  0
SECTION
  2
HEADER
  9
$ACADVER
  1
AC1021
  9
$ACADMAINTVER
 70
    25
  9
$DWGCODEPAGE
  3
ANSI_1250
  9
$INSBASE
 10
0.0
 20
0.0
 30
0.0
  9
$EXTMIN
 10
-626.6576
 20
-267.201
 30
0.0
  9
$EXTMAX
 10
823.5424
 20
727.2434
 30
0.0
  9
$LIMMIN
 10
0.0
 20
0.0
  9
$LIMMAX
 10
12.0
 20
9.0
  9
$ORTHOMODE
 70
     0
  9
$REGENMODE
 70
     1
  9
$FILLMODE
 70
     1
  9
$QTEXTMODE
 70
     0
  9
$MIRRTEXT
 70
     1
  9
$LTSCALE
 40
1.0
  9
$ATTMODE
 70
     1
  9
$TEXTSIZE
 40
0.2
  9
$TRACEWID
 40
0.05
  9
$TEXTSTYLE
  7
Standard
  9
$CLAYER
  8
0
  9
$CELTYPE
  6
ByLayer
  9
$CECOLOR
 62
   256
  9
$CELTSCALE
 40
1.0
  9
$DISPSILH
 70
     0
  9
$DIMSCALE
 40
1.0
  9
$DIMASZ
 40
0.18
  9
$DIMEXO
 40
0.0625
  9
$DIMDLI
 40
0.38
  9
$DIMRND
 40
0.0
  9
$DIMDLE
 40
0.0
  9
$DIMEXE
 40
0.18
  9
$DIMTP
 40
0.0
  9
$DIMTM
 40
0.0
  9
$DIMTXT
 40
0.18
  9
$DIMCEN
 40
0.09
  9
$DIMTSZ
 40
0.0
  9
$DIMTOL
 70
     0
  9
$DIMLIM
 70
     0
  9
$DIMTIH
 70
     1
  9
$DIMTOH
 70
     1
  9
$DIMSE1
 70
     0
  9
$DIMSE2
 70
     0
  9
$DIMTAD
 70
     0
  9
$DIMZIN
 70
     0
  9
$DIMBLK
  1

  9
$DIMASO
 70
     1
  9
$DIMSHO
 70
     1
  9
$DIMPOST
  1

  9
$DIMAPOST
  1

  9
$DIMALT
 70
     0
  9
$DIMALTD
 70
     2
  9
$DIMALTF
 40
25.4
  9
$DIMLFAC
 40
1.0
  9
$DIMTOFL
 70
     0
  9
$DIMTVP
 40
0.0
  9
$DIMTIX
 70
     0
  9
$DIMSOXD
 70
     0
  9
$DIMSAH
 70
     0
  9
$DIMBLK1
  1

  9
$DIMBLK2
  1

  9
$DIMSTYLE
  2
Standard
  9
$DIMCLRD
 70
     0
  9
$DIMCLRE
 70
     0
  9
$DIMCLRT
 70
     0
  9
$DIMTFAC
 40
1.0
  9
$DIMGAP
 40
0.09
  9
$DIMJUST
 70
     0
  9
$DIMSD1
 70
     0
  9
$DIMSD2
 70
     0
  9
$DIMTOLJ
 70
     1
  9
$DIMTZIN
 70
     0
  9
$DIMALTZ
 70
     0
  9
$DIMALTTZ
 70
     0
  9
$DIMUPT
 70
     0
  9
$DIMDEC
 70
     4
  9
$DIMTDEC
 70
     4
  9
$DIMALTU
 70
     2
  9
$DIMALTTD
 70
     2
  9
$DIMTXSTY
  7
Standard
  9
$DIMAUNIT
 70
     0
  9
$DIMADEC
 70
     0
  9
$DIMALTRND
 40
0.0
  9
$DIMAZIN
 70
     0
  9
$DIMDSEP
 70
    46
  9
$DIMATFIT
 70
     3
  9
$DIMFRAC
 70
     0
  9
$DIMLDRBLK
  1

  9
$DIMLUNIT
 70
     2
  9
$DIMLWD
 70
    -2
  9
$DIMLWE
 70
    -2
  9
$DIMTMOVE
 70
     0
  9
$DIMFXL
 40
1.0
  9
$DIMFXLON
 70
     0
  9
$DIMJOGANG
 40
0.7853981633974483
  9
$DIMTFILL
 70
     0
  9
$DIMTFILLCLR
 70
     0
  9
$DIMARCSYM
 70
     0
  9
$DIMLTYPE
  6

  9
$DIMLTEX1
  6

  9
$DIMLTEX2
  6

  9
$LUNITS
 70
     2
  9
$LUPREC
 70
     4
  9
$SKETCHINC
 40
0.1
  9
$FILLETRAD
 40
0.5
  9
$AUNITS
 70
     0
  9
$AUPREC
 70
     0
  9
$MENU
  1
.
  9
$ELEVATION
 40
0.0
  9
$PELEVATION
 40
0.0
  9
$THICKNESS
 40
0.0
  9
$LIMCHECK
 70
     0
  9
$CHAMFERA
 40
0.5
  9
$CHAMFERB
 40
0.5
  9
$CHAMFERC
 40
1.0
  9
$CHAMFERD
 40
0.0
  9
$SKPOLY
 70
     0
  9
$TDCREATE
 40
2456493.933280231
  9
$TDUCREATE
 40
2456493.849946898
  9
$TDUPDATE
 40
2456493.933284815
  9
$TDUUPDATE
 40
2456493.849951481
  9
$TDINDWG
 40
0.0000000116
  9
$TDUSRTIMER
 40
0.0000000116
  9
$USRTIMER
 70
     1
  9
$ANGBASE
 50
0.0
  9
$ANGDIR
 70
     0
  9
$PDMODE
 70
     0
  9
$PDSIZE
 40
0.0
  9
$PLINEWID
 40
0.0
  9
$SPLFRAME
 70
     0
  9
$SPLINETYPE
 70
     6
  9
$SPLINESEGS
 70
     8
  9
$HANDSEED
  5
C2
  9
$SURFTAB1
 70
     6
  9
$SURFTAB2
 70
     6
  9
$SURFTYPE
 70
     6
  9
$SURFU
 70
     6
  9
$SURFV
 70
     6
  9
$UCSBASE
  2

  9
$UCSNAME
  2

  9
$UCSORG
 10
0.0
 20
0.0
 30
0.0
  9
$UCSXDIR
 10
1.0
 20
0.0
 30
0.0
  9
$UCSYDIR
 10
0.0
 20
1.0
 30
0.0
  9
$UCSORTHOREF
  2

  9
$UCSORTHOVIEW
 70
     0
  9
$UCSORGTOP
 10
0.0
 20
0.0
 30
0.0
  9
$UCSORGBOTTOM
 10
0.0
 20
0.0
 30
0.0
  9
$UCSORGLEFT
 10
0.0
 20
0.0
 30
0.0
  9
$UCSORGRIGHT
 10
0.0
 20
0.0
 30
0.0
  9
$UCSORGFRONT
 10
0.0
 20
0.0
 30
0.0
  9
$UCSORGBACK
 10
0.0
 20
0.0
 30
0.0
  9
$PUCSBASE
  2

  9
$PUCSNAME
  2

  9
$PUCSORG
 10
0.0
 20
0.0
 30
0.0
  9
$PUCSXDIR
 10
1.0
 20
0.0
 30
0.0
  9
$PUCSYDIR
 10
0.0
 20
1.0
 30
0.0
  9
$PUCSORTHOREF
  2

  9
$PUCSORTHOVIEW
 70
     0
  9
$PUCSORGTOP
 10
0.0
 20
0.0
 30
0.0
  9
$PUCSORGBOTTOM
 10
0.0
 20
0.0
 30
0.0
  9
$PUCSORGLEFT
 10
0.0
 20
0.0
 30
0.0
  9
$PUCSORGRIGHT
 10
0.0
 20
0.0
 30
0.0
  9
$PUCSORGFRONT
 10
0.0
 20
0.0
 30
0.0
  9
$PUCSORGBACK
 10
0.0
 20
0.0
 30
0.0
  9
$USERI1
 70
     0
  9
$USERI2
 70
     0
  9
$USERI3
 70
     0
  9
$USERI4
 70
     0
  9
$USERI5
 70
     0
  9
$USERR1
 40
0.0
  9
$USERR2
 40
0.0
  9
$USERR3
 40
0.0
  9
$USERR4
 40
0.0
  9
$USERR5
 40
0.0
  9
$WORLDVIEW
 70
     1
  9
$SHADEDGE
 70
     3
  9
$SHADEDIF
 70
    70
  9
$TILEMODE
 70
     1
  9
$MAXACTVP
 70
    64
  9
$PINSBASE
 10
0.0
 20
0.0
 30
0.0
  9
$PLIMCHECK
 70
     0
  9
$PEXTMIN
 10
1.000000000000000E+20
 20
1.000000000000000E+20
 30
1.000000000000000E+20
  9
$PEXTMAX
 10
-1.000000000000000E+20
 20
-1.000000000000000E+20
 30
-1.000000000000000E+20
  9
$PLIMMIN
 10
0.0
 20
0.0
  9
$PLIMMAX
 10
12.0
 20
9.0
  9
$UNITMODE
 70
     0
  9
$VISRETAIN
 70
     1
  9
$PLINEGEN
 70
     0
  9
$PSLTSCALE
 70
     1
  9
$TREEDEPTH
 70
  3020
  9
$CMLSTYLE
  2
Standard
  9
$CMLJUST
 70
     0
  9
$CMLSCALE
 40
1.0
  9
$PROXYGRAPHICS
 70
     1
  9
$MEASUREMENT
 70
     0
  9
$CELWEIGHT
370
    -1
  9
$ENDCAPS
280
     0
  9
$JOINSTYLE
280
     0
  9
$LWDISPLAY
290
     0
  9
$INSUNITS
 70
     4
  9
$HYPERLINKBASE
  1

  9
$STYLESHEET
  1

  9
$XEDIT
290
     1
  9
$CEPSNTYPE
380
     0
  9
$PSTYLEMODE
290
     1
  9
$FINGERPRINTGUID
  2
{0C3D35E9-4198-408A-A315-79866957BBAC}
  9
$VERSIONGUID
  2
{FAEB1C32-E019-11D5-929B-00C0DF256EC4}
  9
$EXTNAMES
290
     1
  9
$PSVPSCALE
 40
0.0
  9
$OLESTARTUP
290
     0
  9
$SORTENTS
280
   127
  9
$INDEXCTL
280
     0
  9
$HIDETEXT
280
     1
  9
$XCLIPFRAME
290
     0
  9
$HALOGAP
280
     0
  9
$OBSCOLOR
 70
   257
  9
$OBSLTYPE
280
     0
  9
$INTERSECTIONDISPLAY
280
     0
  9
$INTERSECTIONCOLOR
 70
   257
  9
$DIMASSOC
280
     2
  9
$PROJECTNAME
  1

  9
$CAMERADISPLAY
290
     0
  9
$LENSLENGTH
 40
50.0
  9
$CAMERAHEIGHT
 40
0.0
  9
$STEPSPERSEC
 40
2.0
  9
$STEPSIZE
 40
6.0
  9
$3DDWFPREC
 40
2.0
  9
$PSOLWIDTH
 40
0.25
  9
$PSOLHEIGHT
 40
4.0
  9
$LOFTANG1
 40
1.570796326794897
  9
$LOFTANG2
 40
1.570796326794897
  9
$LOFTMAG1
 40
0.0
  9
$LOFTMAG2
 40
0.0
  9
$LOFTPARAM
 70
     7
  9
$LOFTNORMALS
280
     1
  9
$LATITUDE
 40
37.795
  9
$LONGITUDE
 40
-122.394
  9
$NORTHDIRECTION
 40
0.0
  9
$TIMEZONE
 70
 -8000
  9
$LIGHTGLYPHDISPLAY
280
     1
  9
$TILEMODELIGHTSYNCH
280
     1
  9
$SOLIDHIST
280
     1
  9
$SHOWHIST
280
     1
  9
$DWFFRAME
280
     2
  9
$DGNFRAME
280
     2
  9
$REALWORLDSCALE
290
     1
  9
$INTERFERECOLOR
 62
   256
  9
$CSHADOW
280
     0
  9
$SHADOWPLANELOCATION
 40
0.0
  0
ENDSEC
  0
SECTION
  2
CLASSES
  0
CLASS
  1
ACDBDICTIONARYWDFLT
  2
AcDbDictionaryWithDefault
  3
ObjectDBX Classes
 90
        0
 91
        4
280
     0
281
     0
  0
CLASS
  1
VISUALSTYLE
  2
AcDbVisualStyle
  3
ObjectDBX Classes
 90
     4095
 91
        4
280
     0
281
     0
  0
CLASS
  1
MATERIAL
  2
AcDbMaterial
  3
ObjectDBX Classes
 90
     1153
 91
        4
280
     0
281
     0
  0
ENDSEC
  0
SECTION
  2
TABLES
  0
TABLE
  2
VPORT
  5
8
330
0
100
AcDbSymbolTable
 70
     1
  0
VPORT
  5
29
330
8
100
AcDbSymbolTableRecord
100
AcDbViewportTableRecord
  2
*Active
 70
     0
 10
0.0
 20
0.0
 11
1.0
 21
1.0
 12
10.42990654205607
 22
4.5
 13
0.0
 23
0.0
 14
0.5
 24
0.5
 15
0.5
 25
0.5
 16
0.0
 26
0.0
 36
1.0
 17
0.0
 27
0.0
 37
0.0
 40
9.0
 41
1.972972972850329
 42
50.0
 43
0.0
 44
0.0
 50
0.0
 51
0.0
 71
     0
 72
   100
 73
     1
 74
     3
 75
     0
 76
     0
 77
     0
 78
     0
281
     0
 65
     1
110
0.0
120
0.0
130
0.0
111
1.0
121
0.0
131
0.0
112
0.0
122
1.0
132
0.0
 79
     0
146
0.0
 60
     3
 61
     5
292
     1
282
     1
141
0.0
142
0.0
 63
   250
  0
ENDTAB
  0
TABLE
  2
LTYPE
  5
5
330
0
100
AcDbSymbolTable
 70
     1
  0
LTYPE
  5
14
330
5
100
AcDbSymbolTableRecord
100
AcDbLinetypeTableRecord
  2
ByBlock
 70
     0
  3

 72
    65
 73
     0
 40
0.0
  0
LTYPE
  5
15
330
5
100
AcDbSymbolTableRecord
100
AcDbLinetypeTableRecord
  2
ByLayer
 70
     0
  3

 72
    65
 73
     0
 40
0.0
  0
LTYPE
  5
16
330
5
100
AcDbSymbolTableRecord
100
AcDbLinetypeTableRecord
  2
Continuous
 70
     0
  3
Solid line
 72
    65
 73
     0
 40
0.0
  0
ENDTAB
  0
TABLE
  2
LAYER
  5
2
330
0
100
AcDbSymbolTable
 70
     2
  0
LAYER
  5
10
330
2
100
AcDbSymbolTableRecord
100
AcDbLayerTableRecord
  2
0
 70
     0
 62
     7
  6
Continuous
370
    -3
390
F
347
3E
  0
LAYER
  5
40
330
2
100
AcDbSymbolTableRecord
100
AcDbLayerTableRecord
  2
Warstwa 1
 70
     0
 62
     7
  6
Continuous
370
    -3
390
F
347
3E
  0
ENDTAB
  0
TABLE
  2
STYLE
  5
3
330
0
100
AcDbSymbolTable
 70
     1
  0
STYLE
  5
11
330
3
100
AcDbSymbolTableRecord
100
AcDbTextStyleTableRecord
  2
Standard
 70
     0
 40
0.0
 41
1.0
 50
0.0
 71
     0
 42
0.2
  3
txt
  4

  0
ENDTAB
  0
TABLE
  2
VIEW
  5
6
330
0
100
AcDbSymbolTable
 70
     0
  0
ENDTAB
  0
TABLE
  2
UCS
  5
7
330
0
100
AcDbSymbolTable
 70
     0
  0
ENDTAB
  0
TABLE
  2
APPID
  5
9
330
0
100
AcDbSymbolTable
 70
     2
  0
APPID
  5
12
330
9
100
AcDbSymbolTableRecord
100
AcDbRegAppTableRecord
  2
ACAD
 70
     0
  0
APPID
  5
3F
330
9
100
AcDbSymbolTableRecord
100
AcDbRegAppTableRecord
  2
ODA
 70
     0
  0
ENDTAB
  0
TABLE
  2
DIMSTYLE
  5
A
330
0
100
AcDbSymbolTable
 70
     1
100
AcDbDimStyleTable
  0
DIMSTYLE
105
27
330
A
100
AcDbSymbolTableRecord
100
AcDbDimStyleTableRecord
  2
Standard
 70
     0
178
     0
340
11
  0
ENDTAB
  0
TABLE
  2
BLOCK_RECORD
  5
1
330
0
100
AcDbSymbolTable
 70
     1
  0
BLOCK_RECORD
  5
1F
330
1
100
AcDbSymbolTableRecord
100
AcDbBlockTableRecord
  2
*Model_Space
340
22
 70
     0
280
     1
281
     0
  0
BLOCK_RECORD
  5
1B
330
1
100
AcDbSymbolTableRecord
100
AcDbBlockTableRecord
  2
*Paper_Space
340
1E
 70
     0
280
     1
281
     0
  0
BLOCK_RECORD
  5
23
330
1
100
AcDbSymbolTableRecord
100
AcDbBlockTableRecord
  2
*Paper_Space0
340
26
 70
     0
280
     1
281
     0
  0
ENDTAB
  0
ENDSEC
  0
SECTION
  2
BLOCKS
  0
BLOCK
  5
20
330
1F
100
AcDbEntity
  8
0
100
AcDbBlockBegin
  2
*Model_Space
 70
     0
 10
0.0
 20
0.0
 30
0.0
  3
*Model_Space
  1

  0
ENDBLK
  5
21
330
1F
100
AcDbEntity
  8
0
100
AcDbBlockEnd
  0
BLOCK
  5
1C
330
1B
100
AcDbEntity
 67
     1
  8
0
100
AcDbBlockBegin
  2
*Paper_Space
 70
     0
 10
0.0
 20
0.0
 30
0.0
  3
*Paper_Space
  1

  0
ENDBLK
  5
1D
330
1B
100
AcDbEntity
 67
     1
  8
0
100
AcDbBlockEnd
  0
BLOCK
  5
24
330
23
100
AcDbEntity
  8
0
100
AcDbBlockBegin
  2
*Paper_Space0
 70
     0
 10
0.0
 20
0.0
 30
0.0
  3
*Paper_Space0
  1

  0
ENDBLK
  5
25
330
23
100
AcDbEntity
  8
0
100
AcDbBlockEnd
  0
ENDSEC
  0
SECTION
  2
ENTITIES
  0
SPLINE
  5
41
330
1F
100
AcDbEntity
  8
Warstwa 1
 62
   250
370
    20
100
AcDbSpline
210
0.0
220
0.0
230
1.0
 70
    11
 71
     3
 72
    36
 73
    32
 74
     0
 42
0.0000000001
 43
0.0000000001
 12
1.0
 22
0.0
 32
0.0
 13
1.0
 23
0.0
 33
0.0
 40
0.0
 40
0.0
 40
0.0
 40
0.0
 40
0.1111111111111111
 40
0.1111111111111111
 40
0.1111111111111111
 40
0.1111111111111111
 40
0.2222222222222222
 40
0.2222222222222222
 40
0.2222222222222222
 40
0.2222222222222222
 40
0.3333333333333333
 40
0.3333333333333333
 40
0.3333333333333333
 40
0.3333333333333333
 40
0.4444444444444444
 40
0.4444444444444444
 40
0.4444444444444444
 40
0.4444444444444444
 40
0.5555555555555556
 40
0.5555555555555556
 40
0.5555555555555556
 40
0.5555555555555556
 40
0.6666666666666666
 40
0.6666666666666666
 40
0.6666666666666666
 40
0.6666666666666666
 40
0.7777777777777778
 40
0.7777777777777778
 40
0.7777777777777778
 40
0.7777777777777778
 40
1.0
 40
1.0
 40
1.0
 40
1.0
 10
-540.4289
 20
-19.9723
 30
0.0
 10
-540.4289
 20
-19.9723
 30
0.0
 10
-551.5576
 20
-31.1011
 30
0.0
 10
-551.5576
 20
-31.1011
 30
0.0
 10
-551.5576
 20
-31.1011
 30
0.0
 10
-551.5576
 20
-31.1011
 30
0.0
 10
-551.5576
 20
-161.1009
 30
0.0
 10
-551.5576
 20
-161.1009
 30
0.0
 10
-551.5576
 20
-161.1009
 30
0.0
 10
-551.5576
 20
-161.1009
 30
0.0
 10
-531.5576
 20
-181.101
 30
0.0
 10
-531.5576
 20
-181.101
 30
0.0
 10
-531.5576
 20
-181.101
 30
0.0
 10
-531.5576
 20
-181.101
 30
0.0
 10
-401.5576
 20
-181.101
 30
0.0
 10
-401.5576
 20
-181.101
 30
0.0
 10
-401.5576
 20
-181.101
 30
0.0
 10
-401.5576
 20
-181.101
 30
0.0
 10
-381.5576
 20
-161.1009
 30
0.0
 10
-381.5576
 20
-161.1009
 30
0.0
 10
-381.5576
 20
-161.1009
 30
0.0
 10
-381.5576
 20
-161.1009
 30
0.0
 10
-381.5576
 20
-31.1011
 30
0.0
 10
-381.5576
 20
-31.1011
 30
0.0
 10
-381.5576
 20
-31.1011
 30
0.0
 10
-381.5576
 20
-31.1011
 30
0.0
 10
-392.6863
 20
-19.9723
 30
0.0
 10
-392.6863
 20
-19.9723
 30
0.0
 10
-392.6863
 20
-19.9723
 30
0.0
 10
-392.6863
 20
-19.9723
 30
0.0
 10
-540.4289
 20
-19.9723
 30
0.0
 10
-540.4289
 20
-19.9723
 30
0.0
  0
SPLINE
  5
42
330
1F
100
AcDbEntity
  8
Warstwa 1
 62
   250
370
    20
100
AcDbSpline
210
0.0
220
0.0
230
1.0
 70
    11
 71
     3
 72
   188
 73
   184
 74
     0
 42
0.0000000001
 43
0.0000000001
 12
1.0
 22
0.0
 32
0.0
 13
1.0
 23
0.0
 33
0.0
 40
0.0
 40
0.0
 40
0.0
 40
0.0
 40
0.0212765957446809
 40
0.0212765957446809
 40
0.0212765957446809
 40
0.0212765957446809
 40
0.0425531914893617
 40
0.0425531914893617
 40
0.0425531914893617
 40
0.0425531914893617
 40
0.0638297872340425
 40
0.0638297872340425
 40
0.0638297872340425
 40
0.0638297872340425
 40
0.0851063829787234
 40
0.0851063829787234
 40
0.0851063829787234
 40
0.0851063829787234
 40
0.1063829787234043
 40
0.1063829787234043
 40
0.1063829787234043
 40
0.1063829787234043
 40
0.1276595744680851
 40
0.1276595744680851
 40
0.1276595744680851
 40
0.1276595744680851
 40
0.148936170212766
 40
0.148936170212766
 40
0.148936170212766
 40
0.148936170212766
 40
0.1702127659574468
 40
0.1702127659574468
 40
0.1702127659574468
 40
0.1702127659574468
 40
0.1914893617021277
 40
0.1914893617021277
 40
0.1914893617021277
 40
0.1914893617021277
 40
0.2127659574468085
 40
0.2127659574468085
 40
0.2127659574468085
 40
0.2127659574468085
 40
0.2340425531914894
 40
0.2340425531914894
 40
0.2340425531914894
 40
0.2340425531914894
 40
0.2553191489361702
 40
0.2553191489361702
 40
0.2553191489361702
 40
0.2553191489361702
 40
0.2765957446808511
 40
0.2765957446808511
 40
0.2765957446808511
 40
0.2765957446808511
 40
0.2978723404255319
 40
0.2978723404255319
 40
0.2978723404255319
 40
0.2978723404255319
 40
0.3191489361702128
 40
0.3191489361702128
 40
0.3191489361702128
 40
0.3191489361702128
 40
0.3404255319148936
 40
0.3404255319148936
 40
0.3404255319148936
 40
0.3404255319148936
 40
0.3617021276595745
 40
0.3617021276595745
 40
0.3617021276595745
 40
0.3617021276595745
 40
0.3829787234042553
 40
0.3829787234042553
 40
0.3829787234042553
 40
0.3829787234042553
 40
0.4042553191489361
 40
0.4042553191489361
 40
0.4042553191489361
 40
0.4042553191489361
 40
0.425531914893617
 40
0.425531914893617
 40
0.425531914893617
 40
0.425531914893617
 40
0.4468085106382979
 40
0.4468085106382979
 40
0.4468085106382979
 40
0.4468085106382979
 40
0.4680851063829787
 40
0.4680851063829787
 40
0.4680851063829787
 40
0.4680851063829787
 40
0.4893617021276596
 40
0.4893617021276596
 40
0.4893617021276596
 40
0.4893617021276596
 40
0.5106382978723404
 40
0.5106382978723404
 40
0.5106382978723404
 40
0.5106382978723404
 40
0.5319148936170213
 40
0.5319148936170213
 40
0.5319148936170213
 40
0.5319148936170213
 40
0.5531914893617021
 40
0.5531914893617021
 40
0.5531914893617021
 40
0.5531914893617021
 40
0.574468085106383
 40
0.574468085106383
 40
0.574468085106383
 40
0.574468085106383
 40
0.5957446808510638
 40
0.5957446808510638
 40
0.5957446808510638
 40
0.5957446808510638
 40
0.6170212765957447
 40
0.6170212765957447
 40
0.6170212765957447
 40
0.6170212765957447
 40
0.6382978723404256
 40
0.6382978723404256
 40
0.6382978723404256
 40
0.6382978723404256
 40
0.6595744680851063
 40
0.6595744680851063
 40
0.6595744680851063
 40
0.6595744680851063
 40
0.6808510638297872
 40
0.6808510638297872
 40
0.6808510638297872
 40
0.6808510638297872
 40
0.7021276595744681
 40
0.7021276595744681
 40
0.7021276595744681
 40
0.7021276595744681
 40
0.723404255319149
 40
0.723404255319149
 40
0.723404255319149
 40
0.723404255319149
 40
0.7446808510638298
 40
0.7446808510638298
 40
0.7446808510638298
 40
0.7446808510638298
 40
0.7659574468085106
 40
0.7659574468085106
 40
0.7659574468085106
 40
0.7659574468085106
 40
0.7872340425531915
 40
0.7872340425531915
 40
0.7872340425531915
 40
0.7872340425531915
 40
0.8085106382978723
 40
0.8085106382978723
 40
0.8085106382978723
 40
0.8085106382978723
 40
0.8297872340425532
 40
0.8297872340425532
 40
0.8297872340425532
 40
0.8297872340425532
 40
0.851063829787234
 40
0.851063829787234
 40
0.851063829787234
 40
0.851063829787234
 40
0.8723404255319149
 40
0.8723404255319149
 40
0.8723404255319149
 40
0.8723404255319149
 40
0.8936170212765957
 40
0.8936170212765957
 40
0.8936170212765957
 40
0.8936170212765957
 40
0.9148936170212766
 40
0.9148936170212766
 40
0.9148936170212766
 40
0.9148936170212766
 40
0.9361702127659575
 40
0.9361702127659575
 40
0.9361702127659575
 40
0.9361702127659575
 40
0.9574468085106383
 40
0.9574468085106383
 40
0.9574468085106383
 40
0.9574468085106383
 40
1.0
 40
1.0
 40
1.0
 40
1.0
 10
-626.5576
 20
53.899
 30
0.0
 10
-626.5576
 20
53.899
 30
0.0
 10
-626.5576
 20
18.899
 30
0.0
 10
-626.5576
 20
18.899
 30
0.0
 10
-626.5576
 20
18.899
 30
0.0
 10
-626.5576
 20
18.899
 30
0.0
 10
-623.5576
 20
18.899
 30
0.0
 10
-623.5576
 20
18.899
 30
0.0
 10
-623.5576
 20
18.899
 30
0.0
 10
-623.5576
 20
18.899
 30
0.0
 10
-623.5576
 20
-16.101
 30
0.0
 10
-623.5576
 20
-16.101
 30
0.0
 10
-623.5576
 20
-16.101
 30
0.0
 10
-623.5576
 20
-16.101
 30
0.0
 10
-626.5576
 20
-16.101
 30
0.0
 10
-626.5576
 20
-16.101
 30
0.0
 10
-626.5576
 20
-16.101
 30
0.0
 10
-626.5576
 20
-16.101
 30
0.0
 10
-626.5576
 20
-51.101
 30
0.0
 10
-626.5576
 20
-51.101
 30
0.0
 10
-626.5576
 20
-51.101
 30
0.0
 10
-626.5576
 20
-51.101
 30
0.0
 10
-623.5576
 20
-51.101
 30
0.0
 10
-623.5576
 20
-51.101
 30
0.0
 10
-623.5576
 20
-51.101
 30
0.0
 10
-623.5576
 20
-51.101
 30
0.0
 10
-623.5576
 20
-86.101
 30
0.0
 10
-623.5576
 20
-86.101
 30
0.0
 10
-623.5576
 20
-86.101
 30
0.0
 10
-623.5576
 20
-86.101
 30
0.0
 10
-626.5576
 20
-86.101
 30
0.0
 10
-626.5576
 20
-86.101
 30
0.0
 10
-626.5576
 20
-86.101
 30
0.0
 10
-626.5576
 20
-86.101
 30
0.0
 10
-626.5576
 20
-121.101
 30
0.0
 10
-626.5576
 20
-121.101
 30
0.0
 10
-626.5576
 20
-121.101
 30
0.0
 10
-626.5576
 20
-121.101
 30
0.0
 10
-623.5576
 20
-121.101
 30
0.0
 10
-623.5576
 20
-121.101
 30
0.0
 10
-623.5576
 20
-121.101
 30
0.0
 10
-623.5576
 20
-121.101
 30
0.0
 10
-623.5576
 20
-156.101
 30
0.0
 10
-623.5576
 20
-156.101
 30
0.0
 10
-623.5576
 20
-156.101
 30
0.0
 10
-623.5576
 20
-156.101
 30
0.0
 10
-626.5576
 20
-156.101
 30
0.0
 10
-626.5576
 20
-156.101
 30
0.0
 10
-626.5576
 20
-156.101
 30
0.0
 10
-626.5576
 20
-156.101
 30
0.0
 10
-626.5576
 20
-191.101
 30
0.0
 10
-626.5576
 20
-191.101
 30
0.0
 10
-626.5576
 20
-191.101
 30
0.0
 10
-626.5576
 20
-191.101
 30
0.0
 10
-623.5576
 20
-191.101
 30
0.0
 10
-623.5576
 20
-191.101
 30
0.0
 10
-623.5576
 20
-191.101
 30
0.0
 10
-623.5576
 20
-191.101
 30
0.0
 10
-623.5576
 20
-226.101
 30
0.0
 10
-623.5576
 20
-226.101
 30
0.0
 10
-623.5576
 20
-226.101
 30
0.0
 10
-623.5576
 20
-226.101
 30
0.0
 10
-626.5576
 20
-226.101
 30
0.0
 10
-626.5576
 20
-226.101
 30
0.0
 10
-626.5576
 20
-226.101
 30
0.0
 10
-626.5576
 20
-226.101
 30
0.0
 10
-626.5576
 20
-261.101
 30
0.0
 10
-626.5576
 20
-261.101
 30
0.0
 10
-626.5576
 20
-261.101
 30
0.0
 10
-626.5576
 20
-261.101
 30
0.0
 10
-626.5576
 20
-267.101
 30
0.0
 10
-626.5576
 20
-267.101
 30
0.0
 10
-626.5576
 20
-267.101
 30
0.0
 10
-626.5576
 20
-267.101
 30
0.0
 10
-575.7493
 20
-267.101
 30
0.0
 10
-575.7493
 20
-267.101
 30
0.0
 10
-575.7493
 20
-267.101
 30
0.0
 10
-575.7493
 20
-267.101
 30
0.0
 10
-570.7222
 20
-261.101
 30
0.0
 10
-570.7222
 20
-261.101
 30
0.0
 10
-570.7222
 20
-261.101
 30
0.0
 10
-570.7222
 20
-261.101
 30
0.0
 10
-382.393
 20
-261.101
 30
0.0
 10
-382.393
 20
-261.101
 30
0.0
 10
-382.393
 20
-261.101
 30
0.0
 10
-382.393
 20
-261.101
 30
0.0
 10
-377.3659
 20
-267.101
 30
0.0
 10
-377.3659
 20
-267.101
 30
0.0
 10
-377.3659
 20
-267.101
 30
0.0
 10
-377.3659
 20
-267.101
 30
0.0
 10
-326.5576
 20
-267.101
 30
0.0
 10
-326.5576
 20
-267.101
 30
0.0
 10
-326.5576
 20
-267.101
 30
0.0
 10
-326.5576
 20
-267.101
 30
0.0
 10
-326.5576
 20
-261.101
 30
0.0
 10
-326.5576
 20
-261.101
 30
0.0
 10
-326.5576
 20
-261.101
 30
0.0
 10
-326.5576
 20
-261.101
 30
0.0
 10
-326.5576
 20
-226.101
 30
0.0
 10
-326.5576
 20
-226.101
 30
0.0
 10
-326.5576
 20
-226.101
 30
0.0
 10
-326.5576
 20
-226.101
 30
0.0
 10
-329.5576
 20
-226.101
 30
0.0
 10
-329.5576
 20
-226.101
 30
0.0
 10
-329.5576
 20
-226.101
 30
0.0
 10
-329.5576
 20
-226.101
 30
0.0
 10
-329.5576
 20
-191.101
 30
0.0
 10
-329.5576
 20
-191.101
 30
0.0
 10
-329.5576
 20
-191.101
 30
0.0
 10
-329.5576
 20
-191.101
 30
0.0
 10
-326.5576
 20
-191.101
 30
0.0
 10
-326.5576
 20
-191.101
 30
0.0
 10
-326.5576
 20
-191.101
 30
0.0
 10
-326.5576
 20
-191.101
 30
0.0
 10
-326.5576
 20
-156.101
 30
0.0
 10
-326.5576
 20
-156.101
 30
0.0
 10
-326.5576
 20
-156.101
 30
0.0
 10
-326.5576
 20
-156.101
 30
0.0
 10
-329.5576
 20
-156.101
 30
0.0
 10
-329.5576
 20
-156.101
 30
0.0
 10
-329.5576
 20
-156.101
 30
0.0
 10
-329.5576
 20
-156.101
 30
0.0
 10
-329.5576
 20
-121.101
 30
0.0
 10
-329.5576
 20
-121.101
 30
0.0
 10
-329.5576
 20
-121.101
 30
0.0
 10
-329.5576
 20
-121.101
 30
0.0
 10
-326.5576
 20
-121.101
 30
0.0
 10
-326.5576
 20
-121.101
 30
0.0
 10
-326.5576
 20
-121.101
 30
0.0
 10
-326.5576
 20
-121.101
 30
0.0
 10
-326.5576
 20
-86.101
 30
0.0
 10
-326.5576
 20
-86.101
 30
0.0
 10
-326.5576
 20
-86.101
 30
0.0
 10
-326.5576
 20
-86.101
 30
0.0
 10
-329.5576
 20
-86.101
 30
0.0
 10
-329.5576
 20
-86.101
 30
0.0
 10
-329.5576
 20
-86.101
 30
0.0
 10
-329.5576
 20
-86.101
 30
0.0
 10
-329.5576
 20
-51.101
 30
0.0
 10
-329.5576
 20
-51.101
 30
0.0
 10
-329.5576
 20
-51.101
 30
0.0
 10
-329.5576
 20
-51.101
 30
0.0
 10
-326.5576
 20
-51.101
 30
0.0
 10
-326.5576
 20
-51.101
 30
0.0
 10
-326.5576
 20
-51.101
 30
0.0
 10
-326.5576
 20
-51.101
 30
0.0
 10
-326.5576
 20
-16.101
 30
0.0
 10
-326.5576
 20
-16.101
 30
0.0
 10
-326.5576
 20
-16.101
 30
0.0
 10
-326.5576
 20
-16.101
 30
0.0
 10
-329.5576
 20
-16.101
 30
0.0
 10
-329.5576
 20
-16.101
 30
0.0
 10
-329.5576
 20
-16.101
 30
0.0
 10
-329.5576
 20
-16.101
 30
0.0
 10
-329.5576
 20
18.899
 30
0.0
 10
-329.5576
 20
18.899
 30
0.0
 10
-329.5576
 20
18.899
 30
0.0
 10
-329.5576
 20
18.899
 30
0.0
 10
-326.5576
 20
18.899
 30
0.0
 10
-326.5576
 20
18.899
 30
0.0
 10
-326.5576
 20
18.899
 30
0.0
 10
-326.5576
 20
18.899
 30
0.0
 10
-326.5576
 20
53.899
 30
0.0
 10
-326.5576
 20
53.899
 30
0.0
 10
-326.5576
 20
53.899
 30
0.0
 10
-326.5576
 20
53.899
 30
0.0
 10
-329.5576
 20
53.899
 30
0.0
 10
-329.5576
 20
53.899
 30
0.0
 10
-329.5576
 20
53.899
 30
0.0
 10
-329.5576
 20
53.899
 30
0.0
 10
-329.5576
 20
88.899
 30
0.0
 10
-329.5576
 20
88.899
 30
0.0
 10
-329.5576
 20
88.899
 30
0.0
 10
-329.5576
 20
88.899
 30
0.0
 10
-623.5576
 20
88.899
 30
0.0
 10
-623.5576
 20
88.899
 30
0.0
 10
-623.5576
 20
88.899
 30
0.0
 10
-623.5576
 20
88.899
 30
0.0
 10
-623.5576
 20
53.899
 30
0.0
 10
-623.5576
 20
53.899
 30
0.0
 10
-623.5576
 20
53.899
 30
0.0
 10
-623.5576
 20
53.899
 30
0.0
 10
-626.5576
 20
53.899
 30
0.0
 10
-626.5576
 20
53.899
 30
0.0
  0
ELLIPSE
  5
43
330
1F
100
AcDbEntity
  8
Warstwa 1
 62
   250
370
    20
100
AcDbEllipse
 10
-614.9576
 20
-220.7009
 30
0.0
 11
0.0
 21
1.6
 31
0.0
210
0.0
220
0.0
230
1.0
 40
1.0
 41
0.0
 42
6.283185307179586
  0
ELLIPSE
  5
44
330
1F
100
AcDbEntity
  8
Warstwa 1
 62
   250
370
    20
100
AcDbEllipse
 10
-338.1576
 20
-220.7009
 30
0.0
 11
0.0
 21
1.6
 31
0.0
210
0.0
220
0.0
230
1.0
 40
1.0
 41
0.0
 42
6.283185307179586
  0
ELLIPSE
  5
45
330
1F
100
AcDbEntity
  8
Warstwa 1
 62
   250
370
    20
100
AcDbEllipse
 10
-614.9576
 20
2.299
 30
0.0
 11
0.0
 21
1.6
 31
0.0
210
0.0
220
0.0
230
1.0
 40
1.0
 41
0.0
 42
6.283185307179586
  0
ELLIPSE
  5
46
330
1F
100
AcDbEntity
  8
Warstwa 1
 62
   250
370
    20
100
AcDbEllipse
 10
-338.1576
 20
2.299
 30
0.0
 11
0.0
 21
1.6
 31
0.0
210
0.0
220
0.0
230
1.0
 40
1.0
 41
0.0
 42
6.283185307179586
  0
ELLIPSE
  5
47
330
1F
100
AcDbEntity
  8
Warstwa 1
 62
   250
370
    20
100
AcDbEllipse
 10
-614.9576
 20
76.2991
 30
0.0
 11
0.0
 21
1.6
 31
0.0
210
0.0
220
0.0
230
1.0
 40
1.0
 41
0.0
 42
6.283185307179586
  0
ELLIPSE
  5
48
330
1F
100
AcDbEntity
  8
Warstwa 1
 62
   250
370
    20
100
AcDbEllipse
 10
-338.1576
 20
76.2991
 30
0.0
 11
0.0
 21
1.6
 31
0.0
210
0.0
220
0.0
230
1.0
 40
1.0
 41
0.0
 42
6.283185307179586
  0
SPLINE
  5
49
330
1F
100
AcDbEntity
  8
Warstwa 1
 62
   250
370
    20
100
AcDbSpline
210
0.0
220
0.0
230
1.0
 70
    11
 71
     3
 72
   188
 73
   184
 74
     0
 42
0.0000000001
 43
0.0000000001
 12
1.0
 22
0.0
 32
0.0
 13
1.0
 23
0.0
 33
0.0
 40
0.0
 40
0.0
 40
0.0
 40
0.0
 40
0.0212765957446809
 40
0.0212765957446809
 40
0.0212765957446809
 40
0.0212765957446809
 40
0.0425531914893617
 40
0.0425531914893617
 40
0.0425531914893617
 40
0.0425531914893617
 40
0.0638297872340425
 40
0.0638297872340425
 40
0.0638297872340425
 40
0.0638297872340425
 40
0.0851063829787234
 40
0.0851063829787234
 40
0.0851063829787234
 40
0.0851063829787234
 40
0.1063829787234043
 40
0.1063829787234043
 40
0.1063829787234043
 40
0.1063829787234043
 40
0.1276595744680851
 40
0.1276595744680851
 40
0.1276595744680851
 40
0.1276595744680851
 40
0.148936170212766
 40
0.148936170212766
 40
0.148936170212766
 40
0.148936170212766
 40
0.1702127659574468
 40
0.1702127659574468
 40
0.1702127659574468
 40
0.1702127659574468
 40
0.1914893617021277
 40
0.1914893617021277
 40
0.1914893617021277
 40
0.1914893617021277
 40
0.2127659574468085
 40
0.2127659574468085
 40
0.2127659574468085
 40
0.2127659574468085
 40
0.2340425531914894
 40
0.2340425531914894
 40
0.2340425531914894
 40
0.2340425531914894
 40
0.2553191489361702
 40
0.2553191489361702
 40
0.2553191489361702
 40
0.2553191489361702
 40
0.2765957446808511
 40
0.2765957446808511
 40
0.2765957446808511
 40
0.2765957446808511
 40
0.2978723404255319
 40
0.2978723404255319
 40
0.2978723404255319
 40
0.2978723404255319
 40
0.3191489361702128
 40
0.3191489361702128
 40
0.3191489361702128
 40
0.3191489361702128
 40
0.3404255319148936
 40
0.3404255319148936
 40
0.3404255319148936
 40
0.3404255319148936
 40
0.3617021276595745
 40
0.3617021276595745
 40
0.3617021276595745
 40
0.3617021276595745
 40
0.3829787234042553
 40
0.3829787234042553
 40
0.3829787234042553
 40
0.3829787234042553
 40
0.4042553191489361
 40
0.4042553191489361
 40
0.4042553191489361
 40
0.4042553191489361
 40
0.425531914893617
 40
0.425531914893617
 40
0.425531914893617
 40
0.425531914893617
 40
0.4468085106382979
 40
0.4468085106382979
 40
0.4468085106382979
 40
0.4468085106382979
 40
0.4680851063829787
 40
0.4680851063829787
 40
0.4680851063829787
 40
0.4680851063829787
 40
0.4893617021276596
 40
0.4893617021276596
 40
0.4893617021276596
 40
0.4893617021276596
 40
0.5106382978723404
 40
0.5106382978723404
 40
0.5106382978723404
 40
0.5106382978723404
 40
0.5319148936170213
 40
0.5319148936170213
 40
0.5319148936170213
 40
0.5319148936170213
 40
0.5531914893617021
 40
0.5531914893617021
 40
0.5531914893617021
 40
0.5531914893617021
 40
0.574468085106383
 40
0.574468085106383
 40
0.574468085106383
 40
0.574468085106383
 40
0.5957446808510638
 40
0.5957446808510638
 40
0.5957446808510638
 40
0.5957446808510638
 40
0.6170212765957447
 40
0.6170212765957447
 40
0.6170212765957447
 40
0.6170212765957447
 40
0.6382978723404256
 40
0.6382978723404256
 40
0.6382978723404256
 40
0.6382978723404256
 40
0.6595744680851063
 40
0.6595744680851063
 40
0.6595744680851063
 40
0.6595744680851063
 40
0.6808510638297872
 40
0.6808510638297872
 40
0.6808510638297872
 40
0.6808510638297872
 40
0.7021276595744681
 40
0.7021276595744681
 40
0.7021276595744681
 40
0.7021276595744681
 40
0.723404255319149
 40
0.723404255319149
 40
0.723404255319149
 40
0.723404255319149
 40
0.7446808510638298
 40
0.7446808510638298
 40
0.7446808510638298
 40
0.7446808510638298
 40
0.7659574468085106
 40
0.7659574468085106
 40
0.7659574468085106
 40
0.7659574468085106
 40
0.7872340425531915
 40
0.7872340425531915
 40
0.7872340425531915
 40
0.7872340425531915
 40
0.8085106382978723
 40
0.8085106382978723
 40
0.8085106382978723
 40
0.8085106382978723
 40
0.8297872340425532
 40
0.8297872340425532
 40
0.8297872340425532
 40
0.8297872340425532
 40
0.851063829787234
 40
0.851063829787234
 40
0.851063829787234
 40
0.851063829787234
 40
0.8723404255319149
 40
0.8723404255319149
 40
0.8723404255319149
 40
0.8723404255319149
 40
0.8936170212765957
 40
0.8936170212765957
 40
0.8936170212765957
 40
0.8936170212765957
 40
0.9148936170212766
 40
0.9148936170212766
 40
0.9148936170212766
 40
0.9148936170212766
 40
0.9361702127659575
 40
0.9361702127659575
 40
0.9361702127659575
 40
0.9361702127659575
 40
0.9574468085106383
 40
0.9574468085106383
 40
0.9574468085106383
 40
0.9574468085106383
 40
1.0
 40
1.0
 40
1.0
 40
1.0
 10
103.4424
 20
-261.101
 30
0.0
 10
103.4424
 20
-261.101
 30
0.0
 10
103.4424
 20
-226.101
 30
0.0
 10
103.4424
 20
-226.101
 30
0.0
 10
103.4424
 20
-226.101
 30
0.0
 10
103.4424
 20
-226.101
 30
0.0
 10
106.4424
 20
-226.101
 30
0.0
 10
106.4424
 20
-226.101
 30
0.0
 10
106.4424
 20
-226.101
 30
0.0
 10
106.4424
 20
-226.101
 30
0.0
 10
106.4424
 20
-191.101
 30
0.0
 10
106.4424
 20
-191.101
 30
0.0
 10
106.4424
 20
-191.101
 30
0.0
 10
106.4424
 20
-191.101
 30
0.0
 10
103.4424
 20
-191.101
 30
0.0
 10
103.4424
 20
-191.101
 30
0.0
 10
103.4424
 20
-191.101
 30
0.0
 10
103.4424
 20
-191.101
 30
0.0
 10
103.4424
 20
-156.101
 30
0.0
 10
103.4424
 20
-156.101
 30
0.0
 10
103.4424
 20
-156.101
 30
0.0
 10
103.4424
 20
-156.101
 30
0.0
 10
106.4424
 20
-156.101
 30
0.0
 10
106.4424
 20
-156.101
 30
0.0
 10
106.4424
 20
-156.101
 30
0.0
 10
106.4424
 20
-156.101
 30
0.0
 10
106.4424
 20
-121.101
 30
0.0
 10
106.4424
 20
-121.101
 30
0.0
 10
106.4424
 20
-121.101
 30
0.0
 10
106.4424
 20
-121.101
 30
0.0
 10
103.4424
 20
-121.101
 30
0.0
 10
103.4424
 20
-121.101
 30
0.0
 10
103.4424
 20
-121.101
 30
0.0
 10
103.4424
 20
-121.101
 30
0.0
 10
103.4424
 20
-86.101
 30
0.0
 10
103.4424
 20
-86.101
 30
0.0
 10
103.4424
 20
-86.101
 30
0.0
 10
103.4424
 20
-86.101
 30
0.0
 10
106.4424
 20
-86.101
 30
0.0
 10
106.4424
 20
-86.101
 30
0.0
 10
106.4424
 20
-86.101
 30
0.0
 10
106.4424
 20
-86.101
 30
0.0
 10
106.4424
 20
-51.101
 30
0.0
 10
106.4424
 20
-51.101
 30
0.0
 10
106.4424
 20
-51.101
 30
0.0
 10
106.4424
 20
-51.101
 30
0.0
 10
103.4424
 20
-51.101
 30
0.0
 10
103.4424
 20
-51.101
 30
0.0
 10
103.4424
 20
-51.101
 30
0.0
 10
103.4424
 20
-51.101
 30
0.0
 10
103.4424
 20
-16.101
 30
0.0
 10
103.4424
 20
-16.101
 30
0.0
 10
103.4424
 20
-16.101
 30
0.0
 10
103.4424
 20
-16.101
 30
0.0
 10
106.4424
 20
-16.101
 30
0.0
 10
106.4424
 20
-16.101
 30
0.0
 10
106.4424
 20
-16.101
 30
0.0
 10
106.4424
 20
-16.101
 30
0.0
 10
106.4424
 20
18.899
 30
0.0
 10
106.4424
 20
18.899
 30
0.0
 10
106.4424
 20
18.899
 30
0.0
 10
106.4424
 20
18.899
 30
0.0
 10
103.4424
 20
18.899
 30
0.0
 10
103.4424
 20
18.899
 30
0.0
 10
103.4424
 20
18.899
 30
0.0
 10
103.4424
 20
18.899
 30
0.0
 10
103.4424
 20
53.899
 30
0.0
 10
103.4424
 20
53.899
 30
0.0
 10
103.4424
 20
53.899
 30
0.0
 10
103.4424
 20
53.899
 30
0.0
 10
106.4424
 20
53.899
 30
0.0
 10
106.4424
 20
53.899
 30
0.0
 10
106.4424
 20
53.899
 30
0.0
 10
106.4424
 20
53.899
 30
0.0
 10
106.4424
 20
88.899
 30
0.0
 10
106.4424
 20
88.899
 30
0.0
 10
106.4424
 20
88.899
 30
0.0
 10
106.4424
 20
88.899
 30
0.0
 10
400.4424
 20
88.899
 30
0.0
 10
400.4424
 20
88.899
 30
0.0
 10
400.4424
 20
88.899
 30
0.0
 10
400.4424
 20
88.899
 30
0.0
 10
400.4424
 20
53.899
 30
0.0
 10
400.4424
 20
53.899
 30
0.0
 10
400.4424
 20
53.899
 30
0.0
 10
400.4424
 20
53.899
 30
0.0
 10
403.4424
 20
53.899
 30
0.0
 10
403.4424
 20
53.899
 30
0.0
 10
403.4424
 20
53.899
 30
0.0
 10
403.4424
 20
53.899
 30
0.0
 10
403.4424
 20
18.899
 30
0.0
 10
403.4424
 20
18.899
 30
0.0
 10
403.4424
 20
18.899
 30
0.0
 10
403.4424
 20
18.899
 30
0.0
 10
400.4424
 20
18.899
 30
0.0
 10
400.4424
 20
18.899
 30
0.0
 10
400.4424
 20
18.899
 30
0.0
 10
400.4424
 20
18.899
 30
0.0
 10
400.4424
 20
-16.101
 30
0.0
 10
400.4424
 20
-16.101
 30
0.0
 10
400.4424
 20
-16.101
 30
0.0
 10
400.4424
 20
-16.101
 30
0.0
 10
403.4424
 20
-16.101
 30
0.0
 10
403.4424
 20
-16.101
 30
0.0
 10
403.4424
 20
-16.101
 30
0.0
 10
403.4424
 20
-16.101
 30
0.0
 10
403.4424
 20
-51.101
 30
0.0
 10
403.4424
 20
-51.101
 30
0.0
 10
403.4424
 20
-51.101
 30
0.0
 10
403.4424
 20
-51.101
 30
0.0
 10
400.4424
 20
-51.101
 30
0.0
 10
400.4424
 20
-51.101
 30
0.0
 10
400.4424
 20
-51.101
 30
0.0
 10
400.4424
 20
-51.101
 30
0.0
 10
400.4424
 20
-86.101
 30
0.0
 10
400.4424
 20
-86.101
 30
0.0
 10
400.4424
 20
-86.101
 30
0.0
 10
400.4424
 20
-86.101
 30
0.0
 10
403.4424
 20
-86.101
 30
0.0
 10
403.4424
 20
-86.101
 30
0.0
 10
403.4424
 20
-86.101
 30
0.0
 10
403.4424
 20
-86.101
 30
0.0
 10
403.4424
 20
-121.101
 30
0.0
 10
403.4424
 20
-121.101
 30
0.0
 10
403.4424
 20
-121.101
 30
0.0
 10
403.4424
 20
-121.101
 30
0.0
 10
400.4424
 20
-121.101
 30
0.0
 10
400.4424
 20
-121.101
 30
0.0
 10
400.4424
 20
-121.101
 30
0.0
 10
400.4424
 20
-121.101
 30
0.0
 10
400.4424
 20
-156.101
 30
0.0
 10
400.4424
 20
-156.101
 30
0.0
 10
400.4424
 20
-156.101
 30
0.0
 10
400.4424
 20
-156.101
 30
0.0
 10
403.4424
 20
-156.101
 30
0.0
 10
403.4424
 20
-156.101
 30
0.0
 10
403.4424
 20
-156.101
 30
0.0
 10
403.4424
 20
-156.101
 30
0.0
 10
403.4424
 20
-191.101
 30
0.0
 10
403.4424
 20
-191.101
 30
0.0
 10
403.4424
 20
-191.101
 30
0.0
 10
403.4424
 20
-191.101
 30
0.0
 10
400.4424
 20
-191.101
 30
0.0
 10
400.4424
 20
-191.101
 30
0.0
 10
400.4424
 20
-191.101
 30
0.0
 10
400.4424
 20
-191.101
 30
0.0
 10
400.4424
 20
-226.101
 30
0.0
 10
400.4424
 20
-226.101
 30
0.0
 10
400.4424
 20
-226.101
 30
0.0
 10
400.4424
 20
-226.101
 30
0.0
 10
403.4424
 20
-226.101
 30
0.0
 10
403.4424
 20
-226.101
 30
0.0
 10
403.4424
 20
-226.101
 30
0.0
 10
403.4424
 20
-226.101
 30
0.0
 10
403.4424
 20
-261.101
 30
0.0
 10
403.4424
 20
-261.101
 30
0.0
 10
403.4424
 20
-261.101
 30
0.0
 10
403.4424
 20
-261.101
 30
0.0
 10
403.4424
 20
-267.101
 30
0.0
 10
403.4424
 20
-267.101
 30
0.0
 10
403.4424
 20
-267.101
 30
0.0
 10
403.4424
 20
-267.101
 30
0.0
 10
352.6341
 20
-267.101
 30
0.0
 10
352.6341
 20
-267.101
 30
0.0
 10
352.6341
 20
-267.101
 30
0.0
 10
352.6341
 20
-267.101
 30
0.0
 10
347.607
 20
-261.101
 30
0.0
 10
347.607
 20
-261.101
 30
0.0
 10
347.607
 20
-261.101
 30
0.0
 10
347.607
 20
-261.101
 30
0.0
 10
159.2778
 20
-261.101
 30
0.0
 10
159.2778
 20
-261.101
 30
0.0
 10
159.2778
 20
-261.101
 30
0.0
 10
159.2778
 20
-261.101
 30
0.0
 10
154.2507
 20
-267.101
 30
0.0
 10
154.2507
 20
-267.101
 30
0.0
 10
154.2507
 20
-267.101
 30
0.0
 10
154.2507
 20
-267.101
 30
0.0
 10
103.4424
 20
-267.101
 30
0.0
 10
103.4424
 20
-267.101
 30
0.0
 10
103.4424
 20
-267.101
 30
0.0
 10
103.4424
 20
-267.101
 30
0.0
 10
103.4424
 20
-261.101
 30
0.0
 10
103.4424
 20
-261.101
 30
0.0
  0
SPLINE
  5
4A
330
1F
100
AcDbEntity
  8
Warstwa 1
 62
   250
370
    20
100
AcDbSpline
210
0.0
220
0.0
230
1.0
 70
    11
 71
     3
 72
    36
 73
    32
 74
     0
 42
0.0000000001
 43
0.0000000001
 12
1.0
 22
0.0
 32
0.0
 13
1.0
 23
0.0
 33
0.0
 40
0.0
 40
0.0
 40
0.0
 40
0.0
 40
0.1111111111111111
 40
0.1111111111111111
 40
0.1111111111111111
 40
0.1111111111111111
 40
0.2222222222222222
 40
0.2222222222222222
 40
0.2222222222222222
 40
0.2222222222222222
 40
0.3333333333333333
 40
0.3333333333333333
 40
0.3333333333333333
 40
0.3333333333333333
 40
0.4444444444444444
 40
0.4444444444444444
 40
0.4444444444444444
 40
0.4444444444444444
 40
0.5555555555555556
 40
0.5555555555555556
 40
0.5555555555555556
 40
0.5555555555555556
 40
0.6666666666666666
 40
0.6666666666666666
 40
0.6666666666666666
 40
0.6666666666666666
 40
0.7777777777777778
 40
0.7777777777777778
 40
0.7777777777777778
 40
0.7777777777777778
 40
1.0
 40
1.0
 40
1.0
 40
1.0
 10
168.4424
 20
-21.101
 30
0.0
 10
168.4424
 20
-21.101
 30
0.0
 10
318.4424
 20
-21.101
 30
0.0
 10
318.4424
 20
-21.101
 30
0.0
 10
318.4424
 20
-21.101
 30
0.0
 10
318.4424
 20
-21.101
 30
0.0
 10
328.4424
 20
-31.1011
 30
0.0
 10
328.4424
 20
-31.1011
 30
0.0
 10
328.4424
 20
-31.1011
 30
0.0
 10
328.4424
 20
-31.1011
 30
0.0
 10
328.4424
 20
-161.1009
 30
0.0
 10
328.4424
 20
-161.1009
 30
0.0
 10
328.4424
 20
-161.1009
 30
0.0
 10
328.4424
 20
-161.1009
 30
0.0
 10
308.4424
 20
-181.101
 30
0.0
 10
308.4424
 20
-181.101
 30
0.0
 10
308.4424
 20
-181.101
 30
0.0
 10
308.4424
 20
-181.101
 30
0.0
 10
178.4424
 20
-181.101
 30
0.0
 10
178.4424
 20
-181.101
 30
0.0
 10
178.4424
 20
-181.101
 30
0.0
 10
178.4424
 20
-181.101
 30
0.0
 10
158.4424
 20
-161.1009
 30
0.0
 10
158.4424
 20
-161.1009
 30
0.0
 10
158.4424
 20
-161.1009
 30
0.0
 10
158.4424
 20
-161.1009
 30
0.0
 10
158.4424
 20
-31.1011
 30
0.0
 10
158.4424
 20
-31.1011
 30
0.0
 10
158.4424
 20
-31.1011
 30
0.0
 10
158.4424
 20
-31.1011
 30
0.0
 10
168.4424
 20
-21.101
 30
0.0
 10
168.4424
 20
-21.101
 30
0.0
  0
ELLIPSE
  5
4B
330
1F
100
AcDbEntity
  8
Warstwa 1
 62
   250
370
    20
100
AcDbEllipse
 10
115.0424
 20
-220.7009
 30
0.0
 11
0.0
 21
1.6
 31
0.0
210
0.0
220
0.0
230
1.0
 40
1.0
 41
0.0
 42
6.283185307179586
  0
ELLIPSE
  5
4C
330
1F
100
AcDbEntity
  8
Warstwa 1
 62
   250
370
    20
100
AcDbEllipse
 10
391.8424
 20
-220.7009
 30
0.0
 11
0.0
 21
1.6
 31
0.0
210
0.0
220
0.0
230
1.0
 40
1.0
 41
0.0
 42
6.283185307179586
  0
ELLIPSE
  5
4D
330
1F
100
AcDbEntity
  8
Warstwa 1
 62
   250
370
    20
100
AcDbEllipse
 10
115.0424
 20
2.299
 30
0.0
 11
0.0
 21
1.6
 31
0.0
210
0.0
220
0.0
230
1.0
 40
1.0
 41
0.0
 42
6.283185307179586
  0
ELLIPSE
  5
4E
330
1F
100
AcDbEntity
  8
Warstwa 1
 62
   250
370
    20
100
AcDbEllipse
 10
391.8424
 20
2.299
 30
0.0
 11
0.0
 21
1.6
 31
0.0
210
0.0
220
0.0
230
1.0
 40
1.0
 41
0.0
 42
6.283185307179586
  0
ELLIPSE
  5
4F
330
1F
100
AcDbEntity
  8
Warstwa 1
 62
   250
370
    20
100
AcDbEllipse
 10
115.0424
 20
76.2991
 30
0.0
 11
0.0
 21
1.6
 31
0.0
210
0.0
220
0.0
230
1.0
 40
1.0
 41
0.0
 42
6.283185307179586
  0
ELLIPSE
  5
50
330
1F
100
AcDbEntity
  8
Warstwa 1
 62
   250
370
    20
100
AcDbEllipse
 10
391.8424
 20
76.2991
 30
0.0
 11
0.0
 21
1.6
 31
0.0
210
0.0
220
0.0
230
1.0
 40
1.0
 41
0.0
 42
6.283185307179586
  0
SPLINE
  5
51
330
1F
100
AcDbEntity
  8
Warstwa 1
 62
   250
370
    20
100
AcDbSpline
210
0.0
220
0.0
230
1.0
 70
    11
 71
     3
 72
    20
 73
    16
 74
     0
 42
0.0000000001
 43
0.0000000001
 12
1.0
 22
0.0
 32
0.0
 13
1.0
 23
0.0
 33
0.0
 40
0.0
 40
0.0
 40
0.0
 40
0.0
 40
0.2
 40
0.2
 40
0.2
 40
0.2
 40
0.4
 40
0.4
 40
0.4
 40
0.4
 40
0.6
 40
0.6
 40
0.6
 40
0.6
 40
1.0
 40
1.0
 40
1.0
 40
1.0
 10
-266.5576
 20
-17.1701
 30
0.0
 10
-262.4155
 20
-17.1701
 30
0.0
 10
-259.0576
 20
-13.8122
 30
0.0
 10
-259.0576
 20
-9.6701
 30
0.0
 10
-259.0576
 20
-9.6701
 30
0.0
 10
-259.0576
 20
-5.528
 30
0.0
 10
-262.4155
 20
-2.1701
 30
0.0
 10
-266.5576
 20
-2.1701
 30
0.0
 10
-266.5576
 20
-2.1701
 30
0.0
 10
-270.6997
 20
-2.1701
 30
0.0
 10
-274.0576
 20
-5.528
 30
0.0
 10
-274.0576
 20
-9.6701
 30
0.0
 10
-274.0576
 20
-9.6701
 30
0.0
 10
-274.0576
 20
-13.8122
 30
0.0
 10
-270.6997
 20
-17.1701
 30
0.0
 10
-266.5576
 20
-17.1701
 30
0.0
  0
SPLINE
  5
52
330
1F
100
AcDbEntity
  8
Warstwa 1
 62
   250
370
    20
100
AcDbSpline
210
0.0
220
0.0
230
1.0
 70
    11
 71
     3
 72
    20
 73
    16
 74
     0
 42
0.0000000001
 43
0.0000000001
 12
1.0
 22
0.0
 32
0.0
 13
1.0
 23
0.0
 33
0.0
 40
0.0
 40
0.0
 40
0.0
 40
0.0
 40
0.2
 40
0.2
 40
0.2
 40
0.2
 40
0.4
 40
0.4
 40
0.4
 40
0.4
 40
0.6
 40
0.6
 40
0.6
 40
0.6
 40
1.0
 40
1.0
 40
1.0
 40
1.0
 10
43.4424
 20
-17.1701
 30
0.0
 10
47.5845
 20
-17.1701
 30
0.0
 10
50.9424
 20
-13.8122
 30
0.0
 10
50.9424
 20
-9.6701
 30
0.0
 10
50.9424
 20
-9.6701
 30
0.0
 10
50.9424
 20
-5.528
 30
0.0
 10
47.5845
 20
-2.1701
 30
0.0
 10
43.4424
 20
-2.1701
 30
0.0
 10
43.4424
 20
-2.1701
 30
0.0
 10
39.3003
 20
-2.1701
 30
0.0
 10
35.9424
 20
-5.528
 30
0.0
 10
35.9424
 20
-9.6701
 30
0.0
 10
35.9424
 20
-9.6701
 30
0.0
 10
35.9424
 20
-13.8122
 30
0.0
 10
39.3003
 20
-17.1701
 30
0.0
 10
43.4424
 20
-17.1701
 30
0.0
  0
SPLINE
  5
53
330
1F
100
AcDbEntity
  8
Warstwa 1
 62
   250
370
    20
100
AcDbSpline
210
0.0
220
0.0
230
1.0
 70
    11
 71
     3
 72
    20
 73
    16
 74
     0
 42
0.0000000001
 43
0.0000000001
 12
1.0
 22
0.0
 32
0.0
 13
1.0
 23
0.0
 33
0.0
 40
0.0
 40
0.0
 40
0.0
 40
0.0
 40
0.2
 40
0.2
 40
0.2
 40
0.2
 40
0.4
 40
0.4
 40
0.4
 40
0.4
 40
0.6
 40
0.6
 40
0.6
 40
0.6
 40
1.0
 40
1.0
 40
1.0
 40
1.0
 10
81.8424
 20
69.6991
 30
0.0
 10
82.7261
 20
69.6991
 30
0.0
 10
83.4424
 20
70.4154
 30
0.0
 10
83.4424
 20
71.2991
 30
0.0
 10
83.4424
 20
71.2991
 30
0.0
 10
83.4424
 20
72.1828
 30
0.0
 10
82.7261
 20
72.8991
 30
0.0
 10
81.8424
 20
72.8991
 30
0.0
 10
81.8424
 20
72.8991
 30
0.0
 10
80.9587
 20
72.8991
 30
0.0
 10
80.2424
 20
72.1828
 30
0.0
 10
80.2424
 20
71.2991
 30
0.0
 10
80.2424
 20
71.2991
 30
0.0
 10
80.2424
 20
70.4154
 30
0.0
 10
80.9587
 20
69.6991
 30
0.0
 10
81.8424
 20
69.6991
 30
0.0
  0
SPLINE
  5
54
330
1F
100
AcDbEntity
  8
Warstwa 1
 62
   250
370
    20
100
AcDbSpline
210
0.0
220
0.0
230
1.0
 70
    11
 71
     3
 72
    20
 73
    16
 74
     0
 42
0.0000000001
 43
0.0000000001
 12
1.0
 22
0.0
 32
0.0
 13
1.0
 23
0.0
 33
0.0
 40
0.0
 40
0.0
 40
0.0
 40
0.0
 40
0.2
 40
0.2
 40
0.2
 40
0.2
 40
0.4
 40
0.4
 40
0.4
 40
0.4
 40
0.6
 40
0.6
 40
0.6
 40
0.6
 40
1.0
 40
1.0
 40
1.0
 40
1.0
 10
-304.9577
 20
69.6991
 30
0.0
 10
-304.074
 20
69.6991
 30
0.0
 10
-303.3577
 20
70.4154
 30
0.0
 10
-303.3577
 20
71.2991
 30
0.0
 10
-303.3577
 20
71.2991
 30
0.0
 10
-303.3577
 20
72.1828
 30
0.0
 10
-304.074
 20
72.8991
 30
0.0
 10
-304.9577
 20
72.8991
 30
0.0
 10
-304.9577
 20
72.8991
 30
0.0
 10
-305.8414
 20
72.8991
 30
0.0
 10
-306.5577
 20
72.1828
 30
0.0
 10
-306.5577
 20
71.2991
 30
0.0
 10
-306.5577
 20
71.2991
 30
0.0
 10
-306.5577
 20
70.4154
 30
0.0
 10
-305.8414
 20
69.6991
 30
0.0
 10
-304.9577
 20
69.6991
 30
0.0
  0
SPLINE
  5
55
330
1F
100
AcDbEntity
  8
Warstwa 1
 62
   250
370
    20
100
AcDbSpline
210
0.0
220
0.0
230
1.0
 70
    11
 71
     3
 72
    20
 73
    16
 74
     0
 42
0.0000000001
 43
0.0000000001
 12
1.0
 22
0.0
 32
0.0
 13
1.0
 23
0.0
 33
0.0
 40
0.0
 40
0.0
 40
0.0
 40
0.0
 40
0.2
 40
0.2
 40
0.2
 40
0.2
 40
0.4
 40
0.4
 40
0.4
 40
0.4
 40
0.6
 40
0.6
 40
0.6
 40
0.6
 40
1.0
 40
1.0
 40
1.0
 40
1.0
 10
81.8424
 20
-4.301
 30
0.0
 10
82.7261
 20
-4.301
 30
0.0
 10
83.4424
 20
-3.5847
 30
0.0
 10
83.4424
 20
-2.701
 30
0.0
 10
83.4424
 20
-2.701
 30
0.0
 10
83.4424
 20
-1.8173
 30
0.0
 10
82.7261
 20
-1.101
 30
0.0
 10
81.8424
 20
-1.101
 30
0.0
 10
81.8424
 20
-1.101
 30
0.0
 10
80.9587
 20
-1.101
 30
0.0
 10
80.2424
 20
-1.8173
 30
0.0
 10
80.2424
 20
-2.701
 30
0.0
 10
80.2424
 20
-2.701
 30
0.0
 10
80.2424
 20
-3.5847
 30
0.0
 10
80.9587
 20
-4.301
 30
0.0
 10
81.8424
 20
-4.301
 30
0.0
  0
SPLINE
  5
56
330
1F
100
AcDbEntity
  8
Warstwa 1
 62
   250
370
    20
100
AcDbSpline
210
0.0
220
0.0
230
1.0
 70
    11
 71
     3
 72
    20
 73
    16
 74
     0
 42
0.0000000001
 43
0.0000000001
 12
1.0
 22
0.0
 32
0.0
 13
1.0
 23
0.0
 33
0.0
 40
0.0
 40
0.0
 40
0.0
 40
0.0
 40
0.2
 40
0.2
 40
0.2
 40
0.2
 40
0.4
 40
0.4
 40
0.4
 40
0.4
 40
0.6
 40
0.6
 40
0.6
 40
0.6
 40
1.0
 40
1.0
 40
1.0
 40
1.0
 10
-304.9577
 20
-4.301
 30
0.0
 10
-304.074
 20
-4.301
 30
0.0
 10
-303.3577
 20
-3.5847
 30
0.0
 10
-303.3577
 20
-2.701
 30
0.0
 10
-303.3577
 20
-2.701
 30
0.0
 10
-303.3577
 20
-1.8173
 30
0.0
 10
-304.074
 20
-1.101
 30
0.0
 10
-304.9577
 20
-1.101
 30
0.0
 10
-304.9577
 20
-1.101
 30
0.0
 10
-305.8414
 20
-1.101
 30
0.0
 10
-306.5577
 20
-1.8173
 30
0.0
 10
-306.5577
 20
-2.701
 30
0.0
 10
-306.5577
 20
-2.701
 30
0.0
 10
-306.5577
 20
-3.5847
 30
0.0
 10
-305.8414
 20
-4.301
 30
0.0
 10
-304.9577
 20
-4.301
 30
0.0
  0
SPLINE
  5
57
330
1F
100
AcDbEntity
  8
Warstwa 1
 62
   250
370
    20
100
AcDbSpline
210
0.0
220
0.0
230
1.0
 70
    11
 71
     3
 72
    20
 73
    16
 74
     0
 42
0.0000000001
 43
0.0000000001
 12
1.0
 22
0.0
 32
0.0
 13
1.0
 23
0.0
 33
0.0
 40
0.0
 40
0.0
 40
0.0
 40
0.0
 40
0.2
 40
0.2
 40
0.2
 40
0.2
 40
0.4
 40
0.4
 40
0.4
 40
0.4
 40
0.6
 40
0.6
 40
0.6
 40
0.6
 40
1.0
 40
1.0
 40
1.0
 40
1.0
 10
-304.9577
 20
-217.3009
 30
0.0
 10
-304.074
 20
-217.3009
 30
0.0
 10
-303.3577
 20
-216.5846
 30
0.0
 10
-303.3577
 20
-215.7009
 30
0.0
 10
-303.3577
 20
-215.7009
 30
0.0
 10
-303.3577
 20
-214.8172
 30
0.0
 10
-304.074
 20
-214.1009
 30
0.0
 10
-304.9577
 20
-214.1009
 30
0.0
 10
-304.9577
 20
-214.1009
 30
0.0
 10
-305.8414
 20
-214.1009
 30
0.0
 10
-306.5577
 20
-214.8172
 30
0.0
 10
-306.5577
 20
-215.7009
 30
0.0
 10
-306.5577
 20
-215.7009
 30
0.0
 10
-306.5577
 20
-216.5846
 30
0.0
 10
-305.8414
 20
-217.3009
 30
0.0
 10
-304.9577
 20
-217.3009
 30
0.0
  0
SPLINE
  5
58
330
1F
100
AcDbEntity
  8
Warstwa 1
 62
   250
370
    20
100
AcDbSpline
210
0.0
220
0.0
230
1.0
 70
    11
 71
     3
 72
    20
 73
    16
 74
     0
 42
0.0000000001
 43
0.0000000001
 12
1.0
 22
0.0
 32
0.0
 13
1.0
 23
0.0
 33
0.0
 40
0.0
 40
0.0
 40
0.0
 40
0.0
 40
0.2
 40
0.2
 40
0.2
 40
0.2
 40
0.4
 40
0.4
 40
0.4
 40
0.4
 40
0.6
 40
0.6
 40
0.6
 40
0.6
 40
1.0
 40
1.0
 40
1.0
 40
1.0
 10
81.8424
 20
-217.3009
 30
0.0
 10
82.7261
 20
-217.3009
 30
0.0
 10
83.4424
 20
-216.5846
 30
0.0
 10
83.4424
 20
-215.7009
 30
0.0
 10
83.4424
 20
-215.7009
 30
0.0
 10
83.4424
 20
-214.8172
 30
0.0
 10
82.7261
 20
-214.1009
 30
0.0
 10
81.8424
 20
-214.1009
 30
0.0
 10
81.8424
 20
-214.1009
 30
0.0
 10
80.9587
 20
-214.1009
 30
0.0
 10
80.2424
 20
-214.8172
 30
0.0
 10
80.2424
 20
-215.7009
 30
0.0
 10
80.2424
 20
-215.7009
 30
0.0
 10
80.2424
 20
-216.5846
 30
0.0
 10
80.9587
 20
-217.3009
 30
0.0
 10
81.8424
 20
-217.3009
 30
0.0
  0
SPLINE
  5
59
330
1F
100
AcDbEntity
  8
Warstwa 1
 62
   250
370
    20
100
AcDbSpline
210
0.0
220
0.0
230
1.0
 70
    11
 71
     3
 72
   188
 73
   184
 74
     0
 42
0.0000000001
 43
0.0000000001
 12
1.0
 22
0.0
 32
0.0
 13
1.0
 23
0.0
 33
0.0
 40
0.0
 40
0.0
 40
0.0
 40
0.0
 40
0.0212765957446809
 40
0.0212765957446809
 40
0.0212765957446809
 40
0.0212765957446809
 40
0.0425531914893617
 40
0.0425531914893617
 40
0.0425531914893617
 40
0.0425531914893617
 40
0.0638297872340425
 40
0.0638297872340425
 40
0.0638297872340425
 40
0.0638297872340425
 40
0.0851063829787234
 40
0.0851063829787234
 40
0.0851063829787234
 40
0.0851063829787234
 40
0.1063829787234043
 40
0.1063829787234043
 40
0.1063829787234043
 40
0.1063829787234043
 40
0.1276595744680851
 40
0.1276595744680851
 40
0.1276595744680851
 40
0.1276595744680851
 40
0.148936170212766
 40
0.148936170212766
 40
0.148936170212766
 40
0.148936170212766
 40
0.1702127659574468
 40
0.1702127659574468
 40
0.1702127659574468
 40
0.1702127659574468
 40
0.1914893617021277
 40
0.1914893617021277
 40
0.1914893617021277
 40
0.1914893617021277
 40
0.2127659574468085
 40
0.2127659574468085
 40
0.2127659574468085
 40
0.2127659574468085
 40
0.2340425531914894
 40
0.2340425531914894
 40
0.2340425531914894
 40
0.2340425531914894
 40
0.2553191489361702
 40
0.2553191489361702
 40
0.2553191489361702
 40
0.2553191489361702
 40
0.2765957446808511
 40
0.2765957446808511
 40
0.2765957446808511
 40
0.2765957446808511
 40
0.2978723404255319
 40
0.2978723404255319
 40
0.2978723404255319
 40
0.2978723404255319
 40
0.3191489361702128
 40
0.3191489361702128
 40
0.3191489361702128
 40
0.3191489361702128
 40
0.3404255319148936
 40
0.3404255319148936
 40
0.3404255319148936
 40
0.3404255319148936
 40
0.3617021276595745
 40
0.3617021276595745
 40
0.3617021276595745
 40
0.3617021276595745
 40
0.3829787234042553
 40
0.3829787234042553
 40
0.3829787234042553
 40
0.3829787234042553
 40
0.4042553191489361
 40
0.4042553191489361
 40
0.4042553191489361
 40
0.4042553191489361
 40
0.425531914893617
 40
0.425531914893617
 40
0.425531914893617
 40
0.425531914893617
 40
0.4468085106382979
 40
0.4468085106382979
 40
0.4468085106382979
 40
0.4468085106382979
 40
0.4680851063829787
 40
0.4680851063829787
 40
0.4680851063829787
 40
0.4680851063829787
 40
0.4893617021276596
 40
0.4893617021276596
 40
0.4893617021276596
 40
0.4893617021276596
 40
0.5106382978723404
 40
0.5106382978723404
 40
0.5106382978723404
 40
0.5106382978723404
 40
0.5319148936170213
 40
0.5319148936170213
 40
0.5319148936170213
 40
0.5319148936170213
 40
0.5531914893617021
 40
0.5531914893617021
 40
0.5531914893617021
 40
0.5531914893617021
 40
0.574468085106383
 40
0.574468085106383
 40
0.574468085106383
 40
0.574468085106383
 40
0.5957446808510638
 40
0.5957446808510638
 40
0.5957446808510638
 40
0.5957446808510638
 40
0.6170212765957447
 40
0.6170212765957447
 40
0.6170212765957447
 40
0.6170212765957447
 40
0.6382978723404256
 40
0.6382978723404256
 40
0.6382978723404256
 40
0.6382978723404256
 40
0.6595744680851063
 40
0.6595744680851063
 40
0.6595744680851063
 40
0.6595744680851063
 40
0.6808510638297872
 40
0.6808510638297872
 40
0.6808510638297872
 40
0.6808510638297872
 40
0.7021276595744681
 40
0.7021276595744681
 40
0.7021276595744681
 40
0.7021276595744681
 40
0.723404255319149
 40
0.723404255319149
 40
0.723404255319149
 40
0.723404255319149
 40
0.7446808510638298
 40
0.7446808510638298
 40
0.7446808510638298
 40
0.7446808510638298
 40
0.7659574468085106
 40
0.7659574468085106
 40
0.7659574468085106
 40
0.7659574468085106
 40
0.7872340425531915
 40
0.7872340425531915
 40
0.7872340425531915
 40
0.7872340425531915
 40
0.8085106382978723
 40
0.8085106382978723
 40
0.8085106382978723
 40
0.8085106382978723
 40
0.8297872340425532
 40
0.8297872340425532
 40
0.8297872340425532
 40
0.8297872340425532
 40
0.851063829787234
 40
0.851063829787234
 40
0.851063829787234
 40
0.851063829787234
 40
0.8723404255319149
 40
0.8723404255319149
 40
0.8723404255319149
 40
0.8723404255319149
 40
0.8936170212765957
 40
0.8936170212765957
 40
0.8936170212765957
 40
0.8936170212765957
 40
0.9148936170212766
 40
0.9148936170212766
 40
0.9148936170212766
 40
0.9148936170212766
 40
0.9361702127659575
 40
0.9361702127659575
 40
0.9361702127659575
 40
0.9361702127659575
 40
0.9574468085106383
 40
0.9574468085106383
 40
0.9574468085106383
 40
0.9574468085106383
 40
1.0
 40
1.0
 40
1.0
 40
1.0
 10
-316.5576
 20
88.899
 30
0.0
 10
-316.5576
 20
88.899
 30
0.0
 10
93.4424
 20
88.899
 30
0.0
 10
93.4424
 20
88.899
 30
0.0
 10
93.4424
 20
88.899
 30
0.0
 10
93.4424
 20
88.899
 30
0.0
 10
93.4424
 20
53.899
 30
0.0
 10
93.4424
 20
53.899
 30
0.0
 10
93.4424
 20
53.899
 30
0.0
 10
93.4424
 20
53.899
 30
0.0
 10
90.4424
 20
53.899
 30
0.0
 10
90.4424
 20
53.899
 30
0.0
 10
90.4424
 20
53.899
 30
0.0
 10
90.4424
 20
53.899
 30
0.0
 10
90.4424
 20
18.899
 30
0.0
 10
90.4424
 20
18.899
 30
0.0
 10
90.4424
 20
18.899
 30
0.0
 10
90.4424
 20
18.899
 30
0.0
 10
93.4424
 20
18.899
 30
0.0
 10
93.4424
 20
18.899
 30
0.0
 10
93.4424
 20
18.899
 30
0.0
 10
93.4424
 20
18.899
 30
0.0
 10
93.4424
 20
-16.101
 30
0.0
 10
93.4424
 20
-16.101
 30
0.0
 10
93.4424
 20
-16.101
 30
0.0
 10
93.4424
 20
-16.101
 30
0.0
 10
90.4424
 20
-16.101
 30
0.0
 10
90.4424
 20
-16.101
 30
0.0
 10
90.4424
 20
-16.101
 30
0.0
 10
90.4424
 20
-16.101
 30
0.0
 10
90.4424
 20
-51.101
 30
0.0
 10
90.4424
 20
-51.101
 30
0.0
 10
90.4424
 20
-51.101
 30
0.0
 10
90.4424
 20
-51.101
 30
0.0
 10
93.4424
 20
-51.101
 30
0.0
 10
93.4424
 20
-51.101
 30
0.0
 10
93.4424
 20
-51.101
 30
0.0
 10
93.4424
 20
-51.101
 30
0.0
 10
93.4424
 20
-86.101
 30
0.0
 10
93.4424
 20
-86.101
 30
0.0
 10
93.4424
 20
-86.101
 30
0.0
 10
93.4424
 20
-86.101
 30
0.0
 10
90.4424
 20
-86.101
 30
0.0
 10
90.4424
 20
-86.101
 30
0.0
 10
90.4424
 20
-86.101
 30
0.0
 10
90.4424
 20
-86.101
 30
0.0
 10
90.4424
 20
-121.101
 30
0.0
 10
90.4424
 20
-121.101
 30
0.0
 10
90.4424
 20
-121.101
 30
0.0
 10
90.4424
 20
-121.101
 30
0.0
 10
93.4424
 20
-121.101
 30
0.0
 10
93.4424
 20
-121.101
 30
0.0
 10
93.4424
 20
-121.101
 30
0.0
 10
93.4424
 20
-121.101
 30
0.0
 10
93.4424
 20
-156.101
 30
0.0
 10
93.4424
 20
-156.101
 30
0.0
 10
93.4424
 20
-156.101
 30
0.0
 10
93.4424
 20
-156.101
 30
0.0
 10
90.4424
 20
-156.101
 30
0.0
 10
90.4424
 20
-156.101
 30
0.0
 10
90.4424
 20
-156.101
 30
0.0
 10
90.4424
 20
-156.101
 30
0.0
 10
90.4424
 20
-191.101
 30
0.0
 10
90.4424
 20
-191.101
 30
0.0
 10
90.4424
 20
-191.101
 30
0.0
 10
90.4424
 20
-191.101
 30
0.0
 10
93.4424
 20
-191.101
 30
0.0
 10
93.4424
 20
-191.101
 30
0.0
 10
93.4424
 20
-191.101
 30
0.0
 10
93.4424
 20
-191.101
 30
0.0
 10
93.4424
 20
-226.101
 30
0.0
 10
93.4424
 20
-226.101
 30
0.0
 10
93.4424
 20
-226.101
 30
0.0
 10
93.4424
 20
-226.101
 30
0.0
 10
90.4424
 20
-226.101
 30
0.0
 10
90.4424
 20
-226.101
 30
0.0
 10
90.4424
 20
-226.101
 30
0.0
 10
90.4424
 20
-226.101
 30
0.0
 10
90.4424
 20
-261.101
 30
0.0
 10
90.4424
 20
-261.101
 30
0.0
 10
90.4424
 20
-261.101
 30
0.0
 10
90.4424
 20
-261.101
 30
0.0
 10
90.4424
 20
-267.101
 30
0.0
 10
90.4424
 20
-267.101
 30
0.0
 10
90.4424
 20
-267.101
 30
0.0
 10
90.4424
 20
-267.101
 30
0.0
 10
29.6341
 20
-267.101
 30
0.0
 10
29.6341
 20
-267.101
 30
0.0
 10
29.6341
 20
-267.101
 30
0.0
 10
29.6341
 20
-267.101
 30
0.0
 10
24.607
 20
-261.101
 30
0.0
 10
24.607
 20
-261.101
 30
0.0
 10
24.607
 20
-261.101
 30
0.0
 10
24.607
 20
-261.101
 30
0.0
 10
-247.7222
 20
-261.101
 30
0.0
 10
-247.7222
 20
-261.101
 30
0.0
 10
-247.7222
 20
-261.101
 30
0.0
 10
-247.7222
 20
-261.101
 30
0.0
 10
-252.7493
 20
-267.101
 30
0.0
 10
-252.7493
 20
-267.101
 30
0.0
 10
-252.7493
 20
-267.101
 30
0.0
 10
-252.7493
 20
-267.101
 30
0.0
 10
-313.5576
 20
-267.101
 30
0.0
 10
-313.5576
 20
-267.101
 30
0.0
 10
-313.5576
 20
-267.101
 30
0.0
 10
-313.5576
 20
-267.101
 30
0.0
 10
-313.5576
 20
-261.101
 30
0.0
 10
-313.5576
 20
-261.101
 30
0.0
 10
-313.5576
 20
-261.101
 30
0.0
 10
-313.5576
 20
-261.101
 30
0.0
 10
-313.5576
 20
-226.101
 30
0.0
 10
-313.5576
 20
-226.101
 30
0.0
 10
-313.5576
 20
-226.101
 30
0.0
 10
-313.5576
 20
-226.101
 30
0.0
 10
-316.5576
 20
-226.101
 30
0.0
 10
-316.5576
 20
-226.101
 30
0.0
 10
-316.5576
 20
-226.101
 30
0.0
 10
-316.5576
 20
-226.101
 30
0.0
 10
-316.5576
 20
-191.101
 30
0.0
 10
-316.5576
 20
-191.101
 30
0.0
 10
-316.5576
 20
-191.101
 30
0.0
 10
-316.5576
 20
-191.101
 30
0.0
 10
-313.5576
 20
-191.101
 30
0.0
 10
-313.5576
 20
-191.101
 30
0.0
 10
-313.5576
 20
-191.101
 30
0.0
 10
-313.5576
 20
-191.101
 30
0.0
 10
-313.5576
 20
-156.101
 30
0.0
 10
-313.5576
 20
-156.101
 30
0.0
 10
-313.5576
 20
-156.101
 30
0.0
 10
-313.5576
 20
-156.101
 30
0.0
 10
-316.5576
 20
-156.101
 30
0.0
 10
-316.5576
 20
-156.101
 30
0.0
 10
-316.5576
 20
-156.101
 30
0.0
 10
-316.5576
 20
-156.101
 30
0.0
 10
-316.5576
 20
-121.101
 30
0.0
 10
-316.5576
 20
-121.101
 30
0.0
 10
-316.5576
 20
-121.101
 30
0.0
 10
-316.5576
 20
-121.101
 30
0.0
 10
-313.5576
 20
-121.101
 30
0.0
 10
-313.5576
 20
-121.101
 30
0.0
 10
-313.5576
 20
-121.101
 30
0.0
 10
-313.5576
 20
-121.101
 30
0.0
 10
-313.5576
 20
-86.101
 30
0.0
 10
-313.5576
 20
-86.101
 30
0.0
 10
-313.5576
 20
-86.101
 30
0.0
 10
-313.5576
 20
-86.101
 30
0.0
 10
-316.5576
 20
-86.101
 30
0.0
 10
-316.5576
 20
-86.101
 30
0.0
 10
-316.5576
 20
-86.101
 30
0.0
 10
-316.5576
 20
-86.101
 30
0.0
 10
-316.5576
 20
-51.101
 30
0.0
 10
-316.5576
 20
-51.101
 30
0.0
 10
-316.5576
 20
-51.101
 30
0.0
 10
-316.5576
 20
-51.101
 30
0.0
 10
-313.5576
 20
-51.101
 30
0.0
 10
-313.5576
 20
-51.101
 30
0.0
 10
-313.5576
 20
-51.101
 30
0.0
 10
-313.5576
 20
-51.101
 30
0.0
 10
-313.5576
 20
-16.101
 30
0.0
 10
-313.5576
 20
-16.101
 30
0.0
 10
-313.5576
 20
-16.101
 30
0.0
 10
-313.5576
 20
-16.101
 30
0.0
 10
-316.5576
 20
-16.101
 30
0.0
 10
-316.5576
 20
-16.101
 30
0.0
 10
-316.5576
 20
-16.101
 30
0.0
 10
-316.5576
 20
-16.101
 30
0.0
 10
-316.5576
 20
18.899
 30
0.0
 10
-316.5576
 20
18.899
 30
0.0
 10
-316.5576
 20
18.899
 30
0.0
 10
-316.5576
 20
18.899
 30
0.0
 10
-313.5576
 20
18.899
 30
0.0
 10
-313.5576
 20
18.899
 30
0.0
 10
-313.5576
 20
18.899
 30
0.0
 10
-313.5576
 20
18.899
 30
0.0
 10
-313.5576
 20
53.899
 30
0.0
 10
-313.5576
 20
53.899
 30
0.0
 10
-313.5576
 20
53.899
 30
0.0
 10
-313.5576
 20
53.899
 30
0.0
 10
-316.5576
 20
53.899
 30
0.0
 10
-316.5576
 20
53.899
 30
0.0
 10
-316.5576
 20
53.899
 30
0.0
 10
-316.5576
 20
53.899
 30
0.0
 10
-316.5576
 20
88.899
 30
0.0
 10
-316.5576
 20
88.899
 30
0.0
  0
SPLINE
  5
5A
330
1F
100
AcDbEntity
  8
Warstwa 1
 62
   250
370
    20
100
AcDbSpline
210
0.0
220
0.0
230
1.0
 70
    11
 71
     3
 72
    36
 73
    32
 74
     0
 42
0.0000000001
 43
0.0000000001
 12
1.0
 22
0.0
 32
0.0
 13
1.0
 23
0.0
 33
0.0
 40
0.0
 40
0.0
 40
0.0
 40
0.0
 40
0.1111111111111111
 40
0.1111111111111111
 40
0.1111111111111111
 40
0.1111111111111111
 40
0.2222222222222222
 40
0.2222222222222222
 40
0.2222222222222222
 40
0.2222222222222222
 40
0.3333333333333333
 40
0.3333333333333333
 40
0.3333333333333333
 40
0.3333333333333333
 40
0.4444444444444444
 40
0.4444444444444444
 40
0.4444444444444444
 40
0.4444444444444444
 40
0.5555555555555556
 40
0.5555555555555556
 40
0.5555555555555556
 40
0.5555555555555556
 40
0.6666666666666666
 40
0.6666666666666666
 40
0.6666666666666666
 40
0.6666666666666666
 40
0.7777777777777778
 40
0.7777777777777778
 40
0.7777777777777778
 40
0.7777777777777778
 40
1.0
 40
1.0
 40
1.0
 40
1.0
 10
-231.5576
 20
-11.101
 30
0.0
 10
-231.5576
 20
-11.101
 30
0.0
 10
8.4424
 20
-11.101
 30
0.0
 10
8.4424
 20
-11.101
 30
0.0
 10
8.4424
 20
-11.101
 30
0.0
 10
8.4424
 20
-11.101
 30
0.0
 10
28.4424
 20
-31.1011
 30
0.0
 10
28.4424
 20
-31.1011
 30
0.0
 10
28.4424
 20
-31.1011
 30
0.0
 10
28.4424
 20
-31.1011
 30
0.0
 10
28.4424
 20
-161.1009
 30
0.0
 10
28.4424
 20
-161.1009
 30
0.0
 10
28.4424
 20
-161.1009
 30
0.0
 10
28.4424
 20
-161.1009
 30
0.0
 10
8.4424
 20
-181.101
 30
0.0
 10
8.4424
 20
-181.101
 30
0.0
 10
8.4424
 20
-181.101
 30
0.0
 10
8.4424
 20
-181.101
 30
0.0
 10
-231.5576
 20
-181.101
 30
0.0
 10
-231.5576
 20
-181.101
 30
0.0
 10
-231.5576
 20
-181.101
 30
0.0
 10
-231.5576
 20
-181.101
 30
0.0
 10
-251.5576
 20
-161.1009
 30
0.0
 10
-251.5576
 20
-161.1009
 30
0.0
 10
-251.5576
 20
-161.1009
 30
0.0
 10
-251.5576
 20
-161.1009
 30
0.0
 10
-251.5576
 20
-31.1011
 30
0.0
 10
-251.5576
 20
-31.1011
 30
0.0
 10
-251.5576
 20
-31.1011
 30
0.0
 10
-251.5576
 20
-31.1011
 30
0.0
 10
-231.5576
 20
-11.101
 30
0.0
 10
-231.5576
 20
-11.101
 30
0.0
  0
SPLINE
  5
5B
330
1F
100
AcDbEntity
  8
Warstwa 1
 62
   250
370
    20
100
AcDbSpline
210
0.0
220
0.0
230
1.0
 70
    11
 71
     3
 72
    20
 73
    16
 74
     0
 42
0.0000000001
 43
0.0000000001
 12
1.0
 22
0.0
 32
0.0
 13
1.0
 23
0.0
 33
0.0
 40
0.0
 40
0.0
 40
0.0
 40
0.0
 40
0.2
 40
0.2
 40
0.2
 40
0.2
 40
0.4
 40
0.4
 40
0.4
 40
0.4
 40
0.6
 40
0.6
 40
0.6
 40
0.6
 40
1.0
 40
1.0
 40
1.0
 40
1.0
 10
563.0423
 20
-213.3009
 30
0.0
 10
563.926
 20
-213.3009
 30
0.0
 10
564.6423
 20
-212.5846
 30
0.0
 10
564.6423
 20
-211.7009
 30
0.0
 10
564.6423
 20
-211.7009
 30
0.0
 10
564.6423
 20
-210.8172
 30
0.0
 10
563.926
 20
-210.1009
 30
0.0
 10
563.0423
 20
-210.1009
 30
0.0
 10
563.0423
 20
-210.1009
 30
0.0
 10
562.1586
 20
-210.1009
 30
0.0
 10
561.4423
 20
-210.8172
 30
0.0
 10
561.4423
 20
-211.7009
 30
0.0
 10
561.4423
 20
-211.7009
 30
0.0
 10
561.4423
 20
-212.5846
 30
0.0
 10
562.1586
 20
-213.3009
 30
0.0
 10
563.0423
 20
-213.3009
 30
0.0
  0
SPLINE
  5
5C
330
1F
100
AcDbEntity
  8
Warstwa 1
 62
   250
370
    20
100
AcDbSpline
210
0.0
220
0.0
230
1.0
 70
    11
 71
     3
 72
    20
 73
    16
 74
     0
 42
0.0000000001
 43
0.0000000001
 12
1.0
 22
0.0
 32
0.0
 13
1.0
 23
0.0
 33
0.0
 40
0.0
 40
0.0
 40
0.0
 40
0.0
 40
0.2
 40
0.2
 40
0.2
 40
0.2
 40
0.4
 40
0.4
 40
0.4
 40
0.4
 40
0.6
 40
0.6
 40
0.6
 40
0.6
 40
1.0
 40
1.0
 40
1.0
 40
1.0
 10
563.0423
 20
37.3125
 30
0.0
 10
563.926
 20
37.3125
 30
0.0
 10
564.6423
 20
38.0288
 30
0.0
 10
564.6423
 20
38.9125
 30
0.0
 10
564.6423
 20
38.9125
 30
0.0
 10
564.6423
 20
39.7962
 30
0.0
 10
563.926
 20
40.5125
 30
0.0
 10
563.0423
 20
40.5125
 30
0.0
 10
563.0423
 20
40.5125
 30
0.0
 10
562.1586
 20
40.5125
 30
0.0
 10
561.4423
 20
39.7962
 30
0.0
 10
561.4423
 20
38.9125
 30
0.0
 10
561.4423
 20
38.9125
 30
0.0
 10
561.4423
 20
38.0288
 30
0.0
 10
562.1586
 20
37.3125
 30
0.0
 10
563.0423
 20
37.3125
 30
0.0
  0
SPLINE
  5
5D
330
1F
100
AcDbEntity
  8
Warstwa 1
 62
   250
370
    20
100
AcDbSpline
210
0.0
220
0.0
230
1.0
 70
    11
 71
     3
 72
    20
 73
    16
 74
     0
 42
0.0000000001
 43
0.0000000001
 12
1.0
 22
0.0
 32
0.0
 13
1.0
 23
0.0
 33
0.0
 40
0.0
 40
0.0
 40
0.0
 40
0.0
 40
0.2
 40
0.2
 40
0.2
 40
0.2
 40
0.4
 40
0.4
 40
0.4
 40
0.4
 40
0.6
 40
0.6
 40
0.6
 40
0.6
 40
1.0
 40
1.0
 40
1.0
 40
1.0
 10
575.0423
 20
-213.3009
 30
0.0
 10
575.926
 20
-213.3009
 30
0.0
 10
576.6423
 20
-212.5846
 30
0.0
 10
576.6423
 20
-211.7009
 30
0.0
 10
576.6423
 20
-211.7009
 30
0.0
 10
576.6423
 20
-210.8172
 30
0.0
 10
575.926
 20
-210.1009
 30
0.0
 10
575.0423
 20
-210.1009
 30
0.0
 10
575.0423
 20
-210.1009
 30
0.0
 10
574.1586
 20
-210.1009
 30
0.0
 10
573.4423
 20
-210.8172
 30
0.0
 10
573.4423
 20
-211.7009
 30
0.0
 10
573.4423
 20
-211.7009
 30
0.0
 10
573.4423
 20
-212.5846
 30
0.0
 10
574.1586
 20
-213.3009
 30
0.0
 10
575.0423
 20
-213.3009
 30
0.0
  0
SPLINE
  5
5E
330
1F
100
AcDbEntity
  8
Warstwa 1
 62
   250
370
    20
100
AcDbSpline
210
0.0
220
0.0
230
1.0
 70
    11
 71
     3
 72
    20
 73
    16
 74
     0
 42
0.0000000001
 43
0.0000000001
 12
1.0
 22
0.0
 32
0.0
 13
1.0
 23
0.0
 33
0.0
 40
0.0
 40
0.0
 40
0.0
 40
0.0
 40
0.2
 40
0.2
 40
0.2
 40
0.2
 40
0.4
 40
0.4
 40
0.4
 40
0.4
 40
0.6
 40
0.6
 40
0.6
 40
0.6
 40
1.0
 40
1.0
 40
1.0
 40
1.0
 10
575.0423
 20
37.3125
 30
0.0
 10
575.926
 20
37.3125
 30
0.0
 10
576.6423
 20
38.0288
 30
0.0
 10
576.6423
 20
38.9125
 30
0.0
 10
576.6423
 20
38.9125
 30
0.0
 10
576.6423
 20
39.7962
 30
0.0
 10
575.926
 20
40.5125
 30
0.0
 10
575.0423
 20
40.5125
 30
0.0
 10
575.0423
 20
40.5125
 30
0.0
 10
574.1586
 20
40.5125
 30
0.0
 10
573.4423
 20
39.7962
 30
0.0
 10
573.4423
 20
38.9125
 30
0.0
 10
573.4423
 20
38.9125
 30
0.0
 10
573.4423
 20
38.0288
 30
0.0
 10
574.1586
 20
37.3125
 30
0.0
 10
575.0423
 20
37.3125
 30
0.0
  0
SPLINE
  5
5F
330
1F
100
AcDbEntity
  8
Warstwa 1
 62
   250
370
    20
100
AcDbSpline
210
0.0
220
0.0
230
1.0
 70
    11
 71
     3
 72
    20
 73
    16
 74
     0
 42
0.0000000001
 43
0.0000000001
 12
1.0
 22
0.0
 32
0.0
 13
1.0
 23
0.0
 33
0.0
 40
0.0
 40
0.0
 40
0.0
 40
0.0
 40
0.2
 40
0.2
 40
0.2
 40
0.2
 40
0.4
 40
0.4
 40
0.4
 40
0.4
 40
0.6
 40
0.6
 40
0.6
 40
0.6
 40
1.0
 40
1.0
 40
1.0
 40
1.0
 10
673.8425
 20
-213.3009
 30
0.0
 10
674.7262
 20
-213.3009
 30
0.0
 10
675.4425
 20
-212.5846
 30
0.0
 10
675.4425
 20
-211.7009
 30
0.0
 10
675.4425
 20
-211.7009
 30
0.0
 10
675.4425
 20
-210.8172
 30
0.0
 10
674.7262
 20
-210.1009
 30
0.0
 10
673.8425
 20
-210.1009
 30
0.0
 10
673.8425
 20
-210.1009
 30
0.0
 10
672.9588
 20
-210.1009
 30
0.0
 10
672.2425
 20
-210.8172
 30
0.0
 10
672.2425
 20
-211.7009
 30
0.0
 10
672.2425
 20
-211.7009
 30
0.0
 10
672.2425
 20
-212.5846
 30
0.0
 10
672.9588
 20
-213.3009
 30
0.0
 10
673.8425
 20
-213.3009
 30
0.0
  0
SPLINE
  5
60
330
1F
100
AcDbEntity
  8
Warstwa 1
 62
   250
370
    20
100
AcDbSpline
210
0.0
220
0.0
230
1.0
 70
    11
 71
     3
 72
    20
 73
    16
 74
     0
 42
0.0000000001
 43
0.0000000001
 12
1.0
 22
0.0
 32
0.0
 13
1.0
 23
0.0
 33
0.0
 40
0.0
 40
0.0
 40
0.0
 40
0.0
 40
0.2
 40
0.2
 40
0.2
 40
0.2
 40
0.4
 40
0.4
 40
0.4
 40
0.4
 40
0.6
 40
0.6
 40
0.6
 40
0.6
 40
1.0
 40
1.0
 40
1.0
 40
1.0
 10
673.8425
 20
37.3125
 30
0.0
 10
674.7262
 20
37.3125
 30
0.0
 10
675.4425
 20
38.0288
 30
0.0
 10
675.4425
 20
38.9125
 30
0.0
 10
675.4425
 20
38.9125
 30
0.0
 10
675.4425
 20
39.7962
 30
0.0
 10
674.7262
 20
40.5125
 30
0.0
 10
673.8425
 20
40.5125
 30
0.0
 10
673.8425
 20
40.5125
 30
0.0
 10
672.9588
 20
40.5125
 30
0.0
 10
672.2425
 20
39.7962
 30
0.0
 10
672.2425
 20
38.9125
 30
0.0
 10
672.2425
 20
38.9125
 30
0.0
 10
672.2425
 20
38.0288
 30
0.0
 10
672.9588
 20
37.3125
 30
0.0
 10
673.8425
 20
37.3125
 30
0.0
  0
SPLINE
  5
61
330
1F
100
AcDbEntity
  8
Warstwa 1
 62
   250
370
    20
100
AcDbSpline
210
0.0
220
0.0
230
1.0
 70
    11
 71
     3
 72
    20
 73
    16
 74
     0
 42
0.0000000001
 43
0.0000000001
 12
1.0
 22
0.0
 32
0.0
 13
1.0
 23
0.0
 33
0.0
 40
0.0
 40
0.0
 40
0.0
 40
0.0
 40
0.2
 40
0.2
 40
0.2
 40
0.2
 40
0.4
 40
0.4
 40
0.4
 40
0.4
 40
0.6
 40
0.6
 40
0.6
 40
0.6
 40
1.0
 40
1.0
 40
1.0
 40
1.0
 10
661.8425
 20
-213.3009
 30
0.0
 10
662.7262
 20
-213.3009
 30
0.0
 10
663.4425
 20
-212.5846
 30
0.0
 10
663.4425
 20
-211.7009
 30
0.0
 10
663.4425
 20
-211.7009
 30
0.0
 10
663.4425
 20
-210.8172
 30
0.0
 10
662.7262
 20
-210.1009
 30
0.0
 10
661.8425
 20
-210.1009
 30
0.0
 10
661.8425
 20
-210.1009
 30
0.0
 10
660.9588
 20
-210.1009
 30
0.0
 10
660.2425
 20
-210.8172
 30
0.0
 10
660.2425
 20
-211.7009
 30
0.0
 10
660.2425
 20
-211.7009
 30
0.0
 10
660.2425
 20
-212.5846
 30
0.0
 10
660.9588
 20
-213.3009
 30
0.0
 10
661.8425
 20
-213.3009
 30
0.0
  0
SPLINE
  5
62
330
1F
100
AcDbEntity
  8
Warstwa 1
 62
   250
370
    20
100
AcDbSpline
210
0.0
220
0.0
230
1.0
 70
    11
 71
     3
 72
    20
 73
    16
 74
     0
 42
0.0000000001
 43
0.0000000001
 12
1.0
 22
0.0
 32
0.0
 13
1.0
 23
0.0
 33
0.0
 40
0.0
 40
0.0
 40
0.0
 40
0.0
 40
0.2
 40
0.2
 40
0.2
 40
0.2
 40
0.4
 40
0.4
 40
0.4
 40
0.4
 40
0.6
 40
0.6
 40
0.6
 40
0.6
 40
1.0
 40
1.0
 40
1.0
 40
1.0
 10
661.8425
 20
37.3125
 30
0.0
 10
662.7262
 20
37.3125
 30
0.0
 10
663.4425
 20
38.0288
 30
0.0
 10
663.4425
 20
38.9125
 30
0.0
 10
663.4425
 20
38.9125
 30
0.0
 10
663.4425
 20
39.7962
 30
0.0
 10
662.7262
 20
40.5125
 30
0.0
 10
661.8425
 20
40.5125
 30
0.0
 10
661.8425
 20
40.5125
 30
0.0
 10
660.9588
 20
40.5125
 30
0.0
 10
660.2425
 20
39.7962
 30
0.0
 10
660.2425
 20
38.9125
 30
0.0
 10
660.2425
 20
38.9125
 30
0.0
 10
660.2425
 20
38.0288
 30
0.0
 10
660.9588
 20
37.3125
 30
0.0
 10
661.8425
 20
37.3125
 30
0.0
  0
SPLINE
  5
63
330
1F
100
AcDbEntity
  8
Warstwa 1
 62
   250
370
    20
100
AcDbSpline
210
0.0
220
0.0
230
1.0
 70
    11
 71
     3
 72
    20
 73
    16
 74
     0
 42
0.0000000001
 43
0.0000000001
 12
1.0
 22
0.0
 32
0.0
 13
1.0
 23
0.0
 33
0.0
 40
0.0
 40
0.0
 40
0.0
 40
0.0
 40
0.2
 40
0.2
 40
0.2
 40
0.2
 40
0.4
 40
0.4
 40
0.4
 40
0.4
 40
0.6
 40
0.6
 40
0.6
 40
0.6
 40
1.0
 40
1.0
 40
1.0
 40
1.0
 10
811.8424
 20
-217.3009
 30
0.0
 10
812.7261
 20
-217.3009
 30
0.0
 10
813.4424
 20
-216.5846
 30
0.0
 10
813.4424
 20
-215.7009
 30
0.0
 10
813.4424
 20
-215.7009
 30
0.0
 10
813.4424
 20
-214.8172
 30
0.0
 10
812.7261
 20
-214.1009
 30
0.0
 10
811.8424
 20
-214.1009
 30
0.0
 10
811.8424
 20
-214.1009
 30
0.0
 10
810.9587
 20
-214.1009
 30
0.0
 10
810.2424
 20
-214.8172
 30
0.0
 10
810.2424
 20
-215.7009
 30
0.0
 10
810.2424
 20
-215.7009
 30
0.0
 10
810.2424
 20
-216.5846
 30
0.0
 10
810.9587
 20
-217.3009
 30
0.0
 10
811.8424
 20
-217.3009
 30
0.0
  0
SPLINE
  5
64
330
1F
100
AcDbEntity
  8
Warstwa 1
 62
   250
370
    20
100
AcDbSpline
210
0.0
220
0.0
230
1.0
 70
    11
 71
     3
 72
    20
 73
    16
 74
     0
 42
0.0000000001
 43
0.0000000001
 12
1.0
 22
0.0
 32
0.0
 13
1.0
 23
0.0
 33
0.0
 40
0.0
 40
0.0
 40
0.0
 40
0.0
 40
0.2
 40
0.2
 40
0.2
 40
0.2
 40
0.4
 40
0.4
 40
0.4
 40
0.4
 40
0.6
 40
0.6
 40
0.6
 40
0.6
 40
1.0
 40
1.0
 40
1.0
 40
1.0
 10
425.0423
 20
-217.3009
 30
0.0
 10
425.926
 20
-217.3009
 30
0.0
 10
426.6423
 20
-216.5846
 30
0.0
 10
426.6423
 20
-215.7009
 30
0.0
 10
426.6423
 20
-215.7009
 30
0.0
 10
426.6423
 20
-214.8172
 30
0.0
 10
425.926
 20
-214.1009
 30
0.0
 10
425.0423
 20
-214.1009
 30
0.0
 10
425.0423
 20
-214.1009
 30
0.0
 10
424.1586
 20
-214.1009
 30
0.0
 10
423.4423
 20
-214.8172
 30
0.0
 10
423.4423
 20
-215.7009
 30
0.0
 10
423.4423
 20
-215.7009
 30
0.0
 10
423.4423
 20
-216.5846
 30
0.0
 10
424.1586
 20
-217.3009
 30
0.0
 10
425.0423
 20
-217.3009
 30
0.0
  0
SPLINE
  5
65
330
1F
100
AcDbEntity
  8
Warstwa 1
 62
   250
370
    20
100
AcDbSpline
210
0.0
220
0.0
230
1.0
 70
    11
 71
     3
 72
    20
 73
    16
 74
     0
 42
0.0000000001
 43
0.0000000001
 12
1.0
 22
0.0
 32
0.0
 13
1.0
 23
0.0
 33
0.0
 40
0.0
 40
0.0
 40
0.0
 40
0.0
 40
0.2
 40
0.2
 40
0.2
 40
0.2
 40
0.4
 40
0.4
 40
0.4
 40
0.4
 40
0.6
 40
0.6
 40
0.6
 40
0.6
 40
1.0
 40
1.0
 40
1.0
 40
1.0
 10
425.0423
 20
-4.301
 30
0.0
 10
425.926
 20
-4.301
 30
0.0
 10
426.6423
 20
-3.5847
 30
0.0
 10
426.6423
 20
-2.701
 30
0.0
 10
426.6423
 20
-2.701
 30
0.0
 10
426.6423
 20
-1.8173
 30
0.0
 10
425.926
 20
-1.101
 30
0.0
 10
425.0423
 20
-1.101
 30
0.0
 10
425.0423
 20
-1.101
 30
0.0
 10
424.1586
 20
-1.101
 30
0.0
 10
423.4423
 20
-1.8173
 30
0.0
 10
423.4423
 20
-2.701
 30
0.0
 10
423.4423
 20
-2.701
 30
0.0
 10
423.4423
 20
-3.5847
 30
0.0
 10
424.1586
 20
-4.301
 30
0.0
 10
425.0423
 20
-4.301
 30
0.0
  0
SPLINE
  5
66
330
1F
100
AcDbEntity
  8
Warstwa 1
 62
   250
370
    20
100
AcDbSpline
210
0.0
220
0.0
230
1.0
 70
    11
 71
     3
 72
    20
 73
    16
 74
     0
 42
0.0000000001
 43
0.0000000001
 12
1.0
 22
0.0
 32
0.0
 13
1.0
 23
0.0
 33
0.0
 40
0.0
 40
0.0
 40
0.0
 40
0.0
 40
0.2
 40
0.2
 40
0.2
 40
0.2
 40
0.4
 40
0.4
 40
0.4
 40
0.4
 40
0.6
 40
0.6
 40
0.6
 40
0.6
 40
1.0
 40
1.0
 40
1.0
 40
1.0
 10
811.8424
 20
-4.301
 30
0.0
 10
812.7261
 20
-4.301
 30
0.0
 10
813.4424
 20
-3.5847
 30
0.0
 10
813.4424
 20
-2.701
 30
0.0
 10
813.4424
 20
-2.701
 30
0.0
 10
813.4424
 20
-1.8173
 30
0.0
 10
812.7261
 20
-1.101
 30
0.0
 10
811.8424
 20
-1.101
 30
0.0
 10
811.8424
 20
-1.101
 30
0.0
 10
810.9587
 20
-1.101
 30
0.0
 10
810.2424
 20
-1.8173
 30
0.0
 10
810.2424
 20
-2.701
 30
0.0
 10
810.2424
 20
-2.701
 30
0.0
 10
810.2424
 20
-3.5847
 30
0.0
 10
810.9587
 20
-4.301
 30
0.0
 10
811.8424
 20
-4.301
 30
0.0
  0
SPLINE
  5
67
330
1F
100
AcDbEntity
  8
Warstwa 1
 62
   250
370
    20
100
AcDbSpline
210
0.0
220
0.0
230
1.0
 70
    11
 71
     3
 72
    20
 73
    16
 74
     0
 42
0.0000000001
 43
0.0000000001
 12
1.0
 22
0.0
 32
0.0
 13
1.0
 23
0.0
 33
0.0
 40
0.0
 40
0.0
 40
0.0
 40
0.0
 40
0.2
 40
0.2
 40
0.2
 40
0.2
 40
0.4
 40
0.4
 40
0.4
 40
0.4
 40
0.6
 40
0.6
 40
0.6
 40
0.6
 40
1.0
 40
1.0
 40
1.0
 40
1.0
 10
425.0423
 20
69.6991
 30
0.0
 10
425.926
 20
69.6991
 30
0.0
 10
426.6423
 20
70.4154
 30
0.0
 10
426.6423
 20
71.2991
 30
0.0
 10
426.6423
 20
71.2991
 30
0.0
 10
426.6423
 20
72.1828
 30
0.0
 10
425.926
 20
72.8991
 30
0.0
 10
425.0423
 20
72.8991
 30
0.0
 10
425.0423
 20
72.8991
 30
0.0
 10
424.1586
 20
72.8991
 30
0.0
 10
423.4423
 20
72.1828
 30
0.0
 10
423.4423
 20
71.2991
 30
0.0
 10
423.4423
 20
71.2991
 30
0.0
 10
423.4423
 20
70.4154
 30
0.0
 10
424.1586
 20
69.6991
 30
0.0
 10
425.0423
 20
69.6991
 30
0.0
  0
SPLINE
  5
68
330
1F
100
AcDbEntity
  8
Warstwa 1
 62
   250
370
    20
100
AcDbSpline
210
0.0
220
0.0
230
1.0
 70
    11
 71
     3
 72
    20
 73
    16
 74
     0
 42
0.0000000001
 43
0.0000000001
 12
1.0
 22
0.0
 32
0.0
 13
1.0
 23
0.0
 33
0.0
 40
0.0
 40
0.0
 40
0.0
 40
0.0
 40
0.2
 40
0.2
 40
0.2
 40
0.2
 40
0.4
 40
0.4
 40
0.4
 40
0.4
 40
0.6
 40
0.6
 40
0.6
 40
0.6
 40
1.0
 40
1.0
 40
1.0
 40
1.0
 10
811.8424
 20
69.6991
 30
0.0
 10
812.7261
 20
69.6991
 30
0.0
 10
813.4424
 20
70.4154
 30
0.0
 10
813.4424
 20
71.2991
 30
0.0
 10
813.4424
 20
71.2991
 30
0.0
 10
813.4424
 20
72.1828
 30
0.0
 10
812.7261
 20
72.8991
 30
0.0
 10
811.8424
 20
72.8991
 30
0.0
 10
811.8424
 20
72.8991
 30
0.0
 10
810.9587
 20
72.8991
 30
0.0
 10
810.2424
 20
72.1828
 30
0.0
 10
810.2424
 20
71.2991
 30
0.0
 10
810.2424
 20
71.2991
 30
0.0
 10
810.2424
 20
70.4154
 30
0.0
 10
810.9587
 20
69.6991
 30
0.0
 10
811.8424
 20
69.6991
 30
0.0
  0
SPLINE
  5
69
330
1F
100
AcDbEntity
  8
Warstwa 1
 62
   250
370
    20
100
AcDbSpline
210
0.0
220
0.0
230
1.0
 70
    11
 71
     3
 72
   188
 73
   184
 74
     0
 42
0.0000000001
 43
0.0000000001
 12
1.0
 22
0.0
 32
0.0
 13
1.0
 23
0.0
 33
0.0
 40
0.0
 40
0.0
 40
0.0
 40
0.0
 40
0.0212765957446809
 40
0.0212765957446809
 40
0.0212765957446809
 40
0.0212765957446809
 40
0.0425531914893617
 40
0.0425531914893617
 40
0.0425531914893617
 40
0.0425531914893617
 40
0.0638297872340425
 40
0.0638297872340425
 40
0.0638297872340425
 40
0.0638297872340425
 40
0.0851063829787234
 40
0.0851063829787234
 40
0.0851063829787234
 40
0.0851063829787234
 40
0.1063829787234043
 40
0.1063829787234043
 40
0.1063829787234043
 40
0.1063829787234043
 40
0.1276595744680851
 40
0.1276595744680851
 40
0.1276595744680851
 40
0.1276595744680851
 40
0.148936170212766
 40
0.148936170212766
 40
0.148936170212766
 40
0.148936170212766
 40
0.1702127659574468
 40
0.1702127659574468
 40
0.1702127659574468
 40
0.1702127659574468
 40
0.1914893617021277
 40
0.1914893617021277
 40
0.1914893617021277
 40
0.1914893617021277
 40
0.2127659574468085
 40
0.2127659574468085
 40
0.2127659574468085
 40
0.2127659574468085
 40
0.2340425531914894
 40
0.2340425531914894
 40
0.2340425531914894
 40
0.2340425531914894
 40
0.2553191489361702
 40
0.2553191489361702
 40
0.2553191489361702
 40
0.2553191489361702
 40
0.2765957446808511
 40
0.2765957446808511
 40
0.2765957446808511
 40
0.2765957446808511
 40
0.2978723404255319
 40
0.2978723404255319
 40
0.2978723404255319
 40
0.2978723404255319
 40
0.3191489361702128
 40
0.3191489361702128
 40
0.3191489361702128
 40
0.3191489361702128
 40
0.3404255319148936
 40
0.3404255319148936
 40
0.3404255319148936
 40
0.3404255319148936
 40
0.3617021276595745
 40
0.3617021276595745
 40
0.3617021276595745
 40
0.3617021276595745
 40
0.3829787234042553
 40
0.3829787234042553
 40
0.3829787234042553
 40
0.3829787234042553
 40
0.4042553191489361
 40
0.4042553191489361
 40
0.4042553191489361
 40
0.4042553191489361
 40
0.425531914893617
 40
0.425531914893617
 40
0.425531914893617
 40
0.425531914893617
 40
0.4468085106382979
 40
0.4468085106382979
 40
0.4468085106382979
 40
0.4468085106382979
 40
0.4680851063829787
 40
0.4680851063829787
 40
0.4680851063829787
 40
0.4680851063829787
 40
0.4893617021276596
 40
0.4893617021276596
 40
0.4893617021276596
 40
0.4893617021276596
 40
0.5106382978723404
 40
0.5106382978723404
 40
0.5106382978723404
 40
0.5106382978723404
 40
0.5319148936170213
 40
0.5319148936170213
 40
0.5319148936170213
 40
0.5319148936170213
 40
0.5531914893617021
 40
0.5531914893617021
 40
0.5531914893617021
 40
0.5531914893617021
 40
0.574468085106383
 40
0.574468085106383
 40
0.574468085106383
 40
0.574468085106383
 40
0.5957446808510638
 40
0.5957446808510638
 40
0.5957446808510638
 40
0.5957446808510638
 40
0.6170212765957447
 40
0.6170212765957447
 40
0.6170212765957447
 40
0.6170212765957447
 40
0.6382978723404256
 40
0.6382978723404256
 40
0.6382978723404256
 40
0.6382978723404256
 40
0.6595744680851063
 40
0.6595744680851063
 40
0.6595744680851063
 40
0.6595744680851063
 40
0.6808510638297872
 40
0.6808510638297872
 40
0.6808510638297872
 40
0.6808510638297872
 40
0.7021276595744681
 40
0.7021276595744681
 40
0.7021276595744681
 40
0.7021276595744681
 40
0.723404255319149
 40
0.723404255319149
 40
0.723404255319149
 40
0.723404255319149
 40
0.7446808510638298
 40
0.7446808510638298
 40
0.7446808510638298
 40
0.7446808510638298
 40
0.7659574468085106
 40
0.7659574468085106
 40
0.7659574468085106
 40
0.7659574468085106
 40
0.7872340425531915
 40
0.7872340425531915
 40
0.7872340425531915
 40
0.7872340425531915
 40
0.8085106382978723
 40
0.8085106382978723
 40
0.8085106382978723
 40
0.8085106382978723
 40
0.8297872340425532
 40
0.8297872340425532
 40
0.8297872340425532
 40
0.8297872340425532
 40
0.851063829787234
 40
0.851063829787234
 40
0.851063829787234
 40
0.851063829787234
 40
0.8723404255319149
 40
0.8723404255319149
 40
0.8723404255319149
 40
0.8723404255319149
 40
0.8936170212765957
 40
0.8936170212765957
 40
0.8936170212765957
 40
0.8936170212765957
 40
0.9148936170212766
 40
0.9148936170212766
 40
0.9148936170212766
 40
0.9148936170212766
 40
0.9361702127659575
 40
0.9361702127659575
 40
0.9361702127659575
 40
0.9361702127659575
 40
0.9574468085106383
 40
0.9574468085106383
 40
0.9574468085106383
 40
0.9574468085106383
 40
1.0
 40
1.0
 40
1.0
 40
1.0
 10
413.4424
 20
88.899
 30
0.0
 10
413.4424
 20
88.899
 30
0.0
 10
823.4424
 20
88.899
 30
0.0
 10
823.4424
 20
88.899
 30
0.0
 10
823.4424
 20
88.899
 30
0.0
 10
823.4424
 20
88.899
 30
0.0
 10
823.4424
 20
53.899
 30
0.0
 10
823.4424
 20
53.899
 30
0.0
 10
823.4424
 20
53.899
 30
0.0
 10
823.4424
 20
53.899
 30
0.0
 10
820.4424
 20
53.899
 30
0.0
 10
820.4424
 20
53.899
 30
0.0
 10
820.4424
 20
53.899
 30
0.0
 10
820.4424
 20
53.899
 30
0.0
 10
820.4424
 20
18.899
 30
0.0
 10
820.4424
 20
18.899
 30
0.0
 10
820.4424
 20
18.899
 30
0.0
 10
820.4424
 20
18.899
 30
0.0
 10
823.4424
 20
18.899
 30
0.0
 10
823.4424
 20
18.899
 30
0.0
 10
823.4424
 20
18.899
 30
0.0
 10
823.4424
 20
18.899
 30
0.0
 10
823.4424
 20
-16.101
 30
0.0
 10
823.4424
 20
-16.101
 30
0.0
 10
823.4424
 20
-16.101
 30
0.0
 10
823.4424
 20
-16.101
 30
0.0
 10
820.4424
 20
-16.101
 30
0.0
 10
820.4424
 20
-16.101
 30
0.0
 10
820.4424
 20
-16.101
 30
0.0
 10
820.4424
 20
-16.101
 30
0.0
 10
820.4424
 20
-51.101
 30
0.0
 10
820.4424
 20
-51.101
 30
0.0
 10
820.4424
 20
-51.101
 30
0.0
 10
820.4424
 20
-51.101
 30
0.0
 10
823.4424
 20
-51.101
 30
0.0
 10
823.4424
 20
-51.101
 30
0.0
 10
823.4424
 20
-51.101
 30
0.0
 10
823.4424
 20
-51.101
 30
0.0
 10
823.4424
 20
-86.101
 30
0.0
 10
823.4424
 20
-86.101
 30
0.0
 10
823.4424
 20
-86.101
 30
0.0
 10
823.4424
 20
-86.101
 30
0.0
 10
820.4424
 20
-86.101
 30
0.0
 10
820.4424
 20
-86.101
 30
0.0
 10
820.4424
 20
-86.101
 30
0.0
 10
820.4424
 20
-86.101
 30
0.0
 10
820.4424
 20
-121.101
 30
0.0
 10
820.4424
 20
-121.101
 30
0.0
 10
820.4424
 20
-121.101
 30
0.0
 10
820.4424
 20
-121.101
 30
0.0
 10
823.4424
 20
-121.101
 30
0.0
 10
823.4424
 20
-121.101
 30
0.0
 10
823.4424
 20
-121.101
 30
0.0
 10
823.4424
 20
-121.101
 30
0.0
 10
823.4424
 20
-156.101
 30
0.0
 10
823.4424
 20
-156.101
 30
0.0
 10
823.4424
 20
-156.101
 30
0.0
 10
823.4424
 20
-156.101
 30
0.0
 10
820.4424
 20
-156.101
 30
0.0
 10
820.4424
 20
-156.101
 30
0.0
 10
820.4424
 20
-156.101
 30
0.0
 10
820.4424
 20
-156.101
 30
0.0
 10
820.4424
 20
-191.101
 30
0.0
 10
820.4424
 20
-191.101
 30
0.0
 10
820.4424
 20
-191.101
 30
0.0
 10
820.4424
 20
-191.101
 30
0.0
 10
823.4424
 20
-191.101
 30
0.0
 10
823.4424
 20
-191.101
 30
0.0
 10
823.4424
 20
-191.101
 30
0.0
 10
823.4424
 20
-191.101
 30
0.0
 10
823.4424
 20
-226.101
 30
0.0
 10
823.4424
 20
-226.101
 30
0.0
 10
823.4424
 20
-226.101
 30
0.0
 10
823.4424
 20
-226.101
 30
0.0
 10
820.4424
 20
-226.101
 30
0.0
 10
820.4424
 20
-226.101
 30
0.0
 10
820.4424
 20
-226.101
 30
0.0
 10
820.4424
 20
-226.101
 30
0.0
 10
820.4424
 20
-261.101
 30
0.0
 10
820.4424
 20
-261.101
 30
0.0
 10
820.4424
 20
-261.101
 30
0.0
 10
820.4424
 20
-261.101
 30
0.0
 10
820.4424
 20
-267.101
 30
0.0
 10
820.4424
 20
-267.101
 30
0.0
 10
820.4424
 20
-267.101
 30
0.0
 10
820.4424
 20
-267.101
 30
0.0
 10
759.6341
 20
-267.101
 30
0.0
 10
759.6341
 20
-267.101
 30
0.0
 10
759.6341
 20
-267.101
 30
0.0
 10
759.6341
 20
-267.101
 30
0.0
 10
754.607
 20
-261.101
 30
0.0
 10
754.607
 20
-261.101
 30
0.0
 10
754.607
 20
-261.101
 30
0.0
 10
754.607
 20
-261.101
 30
0.0
 10
482.2778
 20
-261.101
 30
0.0
 10
482.2778
 20
-261.101
 30
0.0
 10
482.2778
 20
-261.101
 30
0.0
 10
482.2778
 20
-261.101
 30
0.0
 10
477.2507
 20
-267.101
 30
0.0
 10
477.2507
 20
-267.101
 30
0.0
 10
477.2507
 20
-267.101
 30
0.0
 10
477.2507
 20
-267.101
 30
0.0
 10
416.4424
 20
-267.101
 30
0.0
 10
416.4424
 20
-267.101
 30
0.0
 10
416.4424
 20
-267.101
 30
0.0
 10
416.4424
 20
-267.101
 30
0.0
 10
416.4424
 20
-261.101
 30
0.0
 10
416.4424
 20
-261.101
 30
0.0
 10
416.4424
 20
-261.101
 30
0.0
 10
416.4424
 20
-261.101
 30
0.0
 10
416.4424
 20
-226.101
 30
0.0
 10
416.4424
 20
-226.101
 30
0.0
 10
416.4424
 20
-226.101
 30
0.0
 10
416.4424
 20
-226.101
 30
0.0
 10
413.4424
 20
-226.101
 30
0.0
 10
413.4424
 20
-226.101
 30
0.0
 10
413.4424
 20
-226.101
 30
0.0
 10
413.4424
 20
-226.101
 30
0.0
 10
413.4424
 20
-191.101
 30
0.0
 10
413.4424
 20
-191.101
 30
0.0
 10
413.4424
 20
-191.101
 30
0.0
 10
413.4424
 20
-191.101
 30
0.0
 10
416.4424
 20
-191.101
 30
0.0
 10
416.4424
 20
-191.101
 30
0.0
 10
416.4424
 20
-191.101
 30
0.0
 10
416.4424
 20
-191.101
 30
0.0
 10
416.4424
 20
-156.101
 30
0.0
 10
416.4424
 20
-156.101
 30
0.0
 10
416.4424
 20
-156.101
 30
0.0
 10
416.4424
 20
-156.101
 30
0.0
 10
413.4424
 20
-156.101
 30
0.0
 10
413.4424
 20
-156.101
 30
0.0
 10
413.4424
 20
-156.101
 30
0.0
 10
413.4424
 20
-156.101
 30
0.0
 10
413.4424
 20
-121.101
 30
0.0
 10
413.4424
 20
-121.101
 30
0.0
 10
413.4424
 20
-121.101
 30
0.0
 10
413.4424
 20
-121.101
 30
0.0
 10
416.4424
 20
-121.101
 30
0.0
 10
416.4424
 20
-121.101
 30
0.0
 10
416.4424
 20
-121.101
 30
0.0
 10
416.4424
 20
-121.101
 30
0.0
 10
416.4424
 20
-86.101
 30
0.0
 10
416.4424
 20
-86.101
 30
0.0
 10
416.4424
 20
-86.101
 30
0.0
 10
416.4424
 20
-86.101
 30
0.0
 10
413.4424
 20
-86.101
 30
0.0
 10
413.4424
 20
-86.101
 30
0.0
 10
413.4424
 20
-86.101
 30
0.0
 10
413.4424
 20
-86.101
 30
0.0
 10
413.4424
 20
-51.101
 30
0.0
 10
413.4424
 20
-51.101
 30
0.0
 10
413.4424
 20
-51.101
 30
0.0
 10
413.4424
 20
-51.101
 30
0.0
 10
416.4424
 20
-51.101
 30
0.0
 10
416.4424
 20
-51.101
 30
0.0
 10
416.4424
 20
-51.101
 30
0.0
 10
416.4424
 20
-51.101
 30
0.0
 10
416.4424
 20
-16.101
 30
0.0
 10
416.4424
 20
-16.101
 30
0.0
 10
416.4424
 20
-16.101
 30
0.0
 10
416.4424
 20
-16.101
 30
0.0
 10
413.4424
 20
-16.101
 30
0.0
 10
413.4424
 20
-16.101
 30
0.0
 10
413.4424
 20
-16.101
 30
0.0
 10
413.4424
 20
-16.101
 30
0.0
 10
413.4424
 20
18.899
 30
0.0
 10
413.4424
 20
18.899
 30
0.0
 10
413.4424
 20
18.899
 30
0.0
 10
413.4424
 20
18.899
 30
0.0
 10
416.4424
 20
18.899
 30
0.0
 10
416.4424
 20
18.899
 30
0.0
 10
416.4424
 20
18.899
 30
0.0
 10
416.4424
 20
18.899
 30
0.0
 10
416.4424
 20
53.899
 30
0.0
 10
416.4424
 20
53.899
 30
0.0
 10
416.4424
 20
53.899
 30
0.0
 10
416.4424
 20
53.899
 30
0.0
 10
413.4424
 20
53.899
 30
0.0
 10
413.4424
 20
53.899
 30
0.0
 10
413.4424
 20
53.899
 30
0.0
 10
413.4424
 20
53.899
 30
0.0
 10
413.4424
 20
88.899
 30
0.0
 10
413.4424
 20
88.899
 30
0.0
  0
SPLINE
  5
6A
330
1F
100
AcDbEntity
  8
Warstwa 1
 62
   250
370
    20
100
AcDbSpline
210
0.0
220
0.0
230
1.0
 70
    11
 71
     3
 72
    20
 73
    16
 74
     0
 42
0.0000000001
 43
0.0000000001
 12
1.0
 22
0.0
 32
0.0
 13
1.0
 23
0.0
 33
0.0
 40
0.0
 40
0.0
 40
0.0
 40
0.0
 40
0.2
 40
0.2
 40
0.2
 40
0.2
 40
0.4
 40
0.4
 40
0.4
 40
0.4
 40
0.6
 40
0.6
 40
0.6
 40
0.6
 40
1.0
 40
1.0
 40
1.0
 40
1.0
 10
773.4424
 20
-17.1701
 30
0.0
 10
777.5845
 20
-17.1701
 30
0.0
 10
780.9424
 20
-13.8122
 30
0.0
 10
780.9424
 20
-9.6701
 30
0.0
 10
780.9424
 20
-9.6701
 30
0.0
 10
780.9424
 20
-5.528
 30
0.0
 10
777.5845
 20
-2.1701
 30
0.0
 10
773.4424
 20
-2.1701
 30
0.0
 10
773.4424
 20
-2.1701
 30
0.0
 10
769.3003
 20
-2.1701
 30
0.0
 10
765.9424
 20
-5.528
 30
0.0
 10
765.9424
 20
-9.6701
 30
0.0
 10
765.9424
 20
-9.6701
 30
0.0
 10
765.9424
 20
-13.8122
 30
0.0
 10
769.3003
 20
-17.1701
 30
0.0
 10
773.4424
 20
-17.1701
 30
0.0
  0
SPLINE
  5
6B
330
1F
100
AcDbEntity
  8
Warstwa 1
 62
   250
370
    20
100
AcDbSpline
210
0.0
220
0.0
230
1.0
 70
    11
 71
     3
 72
    20
 73
    16
 74
     0
 42
0.0000000001
 43
0.0000000001
 12
1.0
 22
0.0
 32
0.0
 13
1.0
 23
0.0
 33
0.0
 40
0.0
 40
0.0
 40
0.0
 40
0.0
 40
0.2
 40
0.2
 40
0.2
 40
0.2
 40
0.4
 40
0.4
 40
0.4
 40
0.4
 40
0.6
 40
0.6
 40
0.6
 40
0.6
 40
1.0
 40
1.0
 40
1.0
 40
1.0
 10
463.4424
 20
-17.1701
 30
0.0
 10
467.5845
 20
-17.1701
 30
0.0
 10
470.9424
 20
-13.8122
 30
0.0
 10
470.9424
 20
-9.6701
 30
0.0
 10
470.9424
 20
-9.6701
 30
0.0
 10
470.9424
 20
-5.528
 30
0.0
 10
467.5845
 20
-2.1701
 30
0.0
 10
463.4424
 20
-2.1701
 30
0.0
 10
463.4424
 20
-2.1701
 30
0.0
 10
459.3003
 20
-2.1701
 30
0.0
 10
455.9424
 20
-5.528
 30
0.0
 10
455.9424
 20
-9.6701
 30
0.0
 10
455.9424
 20
-9.6701
 30
0.0
 10
455.9424
 20
-13.8122
 30
0.0
 10
459.3003
 20
-17.1701
 30
0.0
 10
463.4424
 20
-17.1701
 30
0.0
  0
SPLINE
  5
6C
330
1F
100
AcDbEntity
  8
Warstwa 1
 62
   250
370
    20
100
AcDbSpline
210
0.0
220
0.0
230
1.0
 70
    11
 71
     3
 72
    20
 73
    16
 74
     0
 42
0.0000000001
 43
0.0000000001
 12
1.0
 22
0.0
 32
0.0
 13
1.0
 23
0.0
 33
0.0
 40
0.0
 40
0.0
 40
0.0
 40
0.0
 40
0.2
 40
0.2
 40
0.2
 40
0.2
 40
0.4
 40
0.4
 40
0.4
 40
0.4
 40
0.6
 40
0.6
 40
0.6
 40
0.6
 40
1.0
 40
1.0
 40
1.0
 40
1.0
 10
80.4424
 20
393.1765
 30
0.0
 10
80.4424
 20
393.1765
 30
0.0
 10
-323.5576
 20
393.1765
 30
0.0
 10
-323.5576
 20
393.1765
 30
0.0
 10
-323.5576
 20
393.1765
 30
0.0
 10
-323.5576
 20
393.1765
 30
0.0
 10
-323.5576
 20
99.1765
 30
0.0
 10
-323.5576
 20
99.1765
 30
0.0
 10
-323.5576
 20
99.1765
 30
0.0
 10
-323.5576
 20
99.1765
 30
0.0
 10
80.4424
 20
99.1765
 30
0.0
 10
80.4424
 20
99.1765
 30
0.0
 10
80.4424
 20
99.1765
 30
0.0
 10
80.4424
 20
99.1765
 30
0.0
 10
80.4424
 20
393.1765
 30
0.0
 10
80.4424
 20
393.1765
 30
0.0
  0
SPLINE
  5
6D
330
1F
100
AcDbEntity
  8
Warstwa 1
 62
   250
370
    20
100
AcDbSpline
210
0.0
220
0.0
230
1.0
 70
    11
 71
     3
 72
    20
 73
    16
 74
     0
 42
0.0000000001
 43
0.0000000001
 12
1.0
 22
0.0
 32
0.0
 13
1.0
 23
0.0
 33
0.0
 40
0.0
 40
0.0
 40
0.0
 40
0.0
 40
0.2
 40
0.2
 40
0.2
 40
0.2
 40
0.4
 40
0.4
 40
0.4
 40
0.4
 40
0.6
 40
0.6
 40
0.6
 40
0.6
 40
1.0
 40
1.0
 40
1.0
 40
1.0
 10
581.3159
 20
393.1765
 30
0.0
 10
581.3159
 20
393.1765
 30
0.0
 10
177.3159
 20
393.1765
 30
0.0
 10
177.3159
 20
393.1765
 30
0.0
 10
177.3159
 20
393.1765
 30
0.0
 10
177.3159
 20
393.1765
 30
0.0
 10
177.3159
 20
99.1765
 30
0.0
 10
177.3159
 20
99.1765
 30
0.0
 10
177.3159
 20
99.1765
 30
0.0
 10
177.3159
 20
99.1765
 30
0.0
 10
581.3159
 20
99.1765
 30
0.0
 10
581.3159
 20
99.1765
 30
0.0
 10
581.3159
 20
99.1765
 30
0.0
 10
581.3159
 20
99.1765
 30
0.0
 10
581.3159
 20
393.1765
 30
0.0
 10
581.3159
 20
393.1765
 30
0.0
  0
ELLIPSE
  5
6E
330
1F
100
AcDbEntity
  8
Warstwa 1
 62
   250
370
    20
100
AcDbEllipse
 10
304.3159
 20
374.6765
 30
0.0
 11
0.0
 21
17.0
 31
0.0
210
0.0
220
0.0
230
1.0
 40
1.0
 41
0.0
 42
6.283185307179586
  0
ELLIPSE
  5
6F
330
1F
100
AcDbEntity
  8
Warstwa 1
 62
   250
370
    20
100
AcDbEllipse
 10
454.3159
 20
374.6765
 30
0.0
 11
0.0
 21
17.0
 31
0.0
210
0.0
220
0.0
230
1.0
 40
1.0
 41
0.0
 42
6.283185307179586
  0
ELLIPSE
  5
70
330
1F
100
AcDbEntity
  8
Warstwa 1
 62
   250
370
    20
100
AcDbEllipse
 10
379.3159
 20
368.1765
 30
0.0
 11
0.0
 21
6.0
 31
0.0
210
0.0
220
0.0
230
1.0
 40
1.0
 41
0.0
 42
6.283185307179586
  0
ELLIPSE
  5
71
330
1F
100
AcDbEntity
  8
Warstwa 1
 62
   250
370
    20
100
AcDbEllipse
 10
341.8159
 20
374.6321
 30
0.0
 11
0.0
 21
1.6
 31
0.0
210
0.0
220
0.0
230
1.0
 40
1.0
 41
0.0
 42
6.283185307179586
  0
ELLIPSE
  5
72
330
1F
100
AcDbEntity
  8
Warstwa 1
 62
   250
370
    20
100
AcDbEllipse
 10
416.8159
 20
374.6321
 30
0.0
 11
0.0
 21
1.6
 31
0.0
210
0.0
220
0.0
230
1.0
 40
1.0
 41
0.0
 42
6.283185307179586
  0
ELLIPSE
  5
73
330
1F
100
AcDbEntity
  8
Warstwa 1
 62
   250
370
    20
100
AcDbEllipse
 10
63.8424
 20
376.5765
 30
0.0
 11
0.0
 21
1.6
 31
0.0
210
0.0
220
0.0
230
1.0
 40
1.0
 41
0.0
 42
6.283185307179586
  0
ELLIPSE
  5
74
330
1F
100
AcDbEntity
  8
Warstwa 1
 62
   250
370
    20
100
AcDbEllipse
 10
564.7159
 20
376.5765
 30
0.0
 11
0.0
 21
1.6
 31
0.0
210
0.0
220
0.0
230
1.0
 40
1.0
 41
0.0
 42
6.283185307179586
  0
ELLIPSE
  5
75
330
1F
100
AcDbEntity
  8
Warstwa 1
 62
   250
370
    20
100
AcDbEllipse
 10
63.8424
 20
115.7765
 30
0.0
 11
0.0
 21
1.6
 31
0.0
210
0.0
220
0.0
230
1.0
 40
1.0
 41
0.0
 42
6.283185307179586
  0
ELLIPSE
  5
76
330
1F
100
AcDbEntity
  8
Warstwa 1
 62
   250
370
    20
100
AcDbEllipse
 10
564.7159
 20
115.7765
 30
0.0
 11
0.0
 21
1.6
 31
0.0
210
0.0
220
0.0
230
1.0
 40
1.0
 41
0.0
 42
6.283185307179586
  0
ELLIPSE
  5
77
330
1F
100
AcDbEntity
  8
Warstwa 1
 62
   250
370
    20
100
AcDbEllipse
 10
-306.9576
 20
376.5765
 30
0.0
 11
0.0
 21
1.6
 31
0.0
210
0.0
220
0.0
230
1.0
 40
1.0
 41
0.0
 42
6.283185307179586
  0
ELLIPSE
  5
78
330
1F
100
AcDbEntity
  8
Warstwa 1
 62
   250
370
    20
100
AcDbEllipse
 10
193.9159
 20
376.5765
 30
0.0
 11
0.0
 21
1.6
 31
0.0
210
0.0
220
0.0
230
1.0
 40
1.0
 41
0.0
 42
6.283185307179586
  0
ELLIPSE
  5
79
330
1F
100
AcDbEntity
  8
Warstwa 1
 62
   250
370
    20
100
AcDbEllipse
 10
-306.9576
 20
115.7765
 30
0.0
 11
0.0
 21
1.6
 31
0.0
210
0.0
220
0.0
230
1.0
 40
1.0
 41
0.0
 42
6.283185307179586
  0
ELLIPSE
  5
7A
330
1F
100
AcDbEntity
  8
Warstwa 1
 62
   250
370
    20
100
AcDbEllipse
 10
193.9159
 20
115.7765
 30
0.0
 11
0.0
 21
1.6
 31
0.0
210
0.0
220
0.0
230
1.0
 40
1.0
 41
0.0
 42
6.283185307179586
  0
LWPOLYLINE
  5
7B
330
1F
100
AcDbEntity
  8
Warstwa 1
 62
   250
370
    20
100
AcDbPolyline
 90
        5
 70
     1
 43
0.0
 10
-271.5576
 20
126.1765
 10
28.4424
 20
126.1765
 10
28.4424
 20
346.1765
 10
-271.5576
 20
346.1765
 10
-271.5576
 20
126.1765
  0
ELLIPSE
  5
7C
330
1F
100
AcDbEntity
  8
Warstwa 1
 62
   250
370
    20
100
AcDbEllipse
 10
467.1007
 20
-237.081
 30
0.0
 11
0.0
 21
9.0
 31
0.0
210
0.0
220
0.0
230
1.0
 40
1.0
 41
0.0
 42
6.283185307179586
  0
ELLIPSE
  5
7D
330
1F
100
AcDbEntity
  8
Warstwa 1
 62
   250
370
    20
100
AcDbEllipse
 10
769.7841
 20
-237.081
 30
0.0
 11
0.0
 21
9.0
 31
0.0
210
0.0
220
0.0
230
1.0
 40
1.0
 41
0.0
 42
6.283185307179586
  0
SPLINE
  5
7E
330
1F
100
AcDbEntity
  8
Warstwa 1
 62
   250
370
    20
100
AcDbSpline
210
0.0
220
0.0
230
1.0
 70
    11
 71
     3
 72
    28
 73
    24
 74
     0
 42
0.0000000001
 43
0.0000000001
 12
1.0
 22
0.0
 32
0.0
 13
1.0
 23
0.0
 33
0.0
 40
0.0
 40
0.0
 40
0.0
 40
0.0
 40
0.1428571428571428
 40
0.1428571428571428
 40
0.1428571428571428
 40
0.1428571428571428
 40
0.2857142857142857
 40
0.2857142857142857
 40
0.2857142857142857
 40
0.2857142857142857
 40
0.4285714285714285
 40
0.4285714285714285
 40
0.4285714285714285
 40
0.4285714285714285
 40
0.5714285714285714
 40
0.5714285714285714
 40
0.5714285714285714
 40
0.5714285714285714
 40
0.7142857142857143
 40
0.7142857142857143
 40
0.7142857142857143
 40
0.7142857142857143
 40
1.0
 40
1.0
 40
1.0
 40
1.0
 10
-25.4501
 20
580.7959
 30
0.0
 10
-25.4501
 20
580.7959
 30
0.0
 10
183.0499
 20
580.7959
 30
0.0
 10
183.0499
 20
580.7959
 30
0.0
 10
183.0499
 20
580.7959
 30
0.0
 10
183.0499
 20
580.7959
 30
0.0
 10
183.0499
 20
586.7959
 30
0.0
 10
183.0499
 20
586.7959
 30
0.0
 10
183.0499
 20
586.7959
 30
0.0
 10
183.0499
 20
586.7959
 30
0.0
 10
173.0499
 20
593.7959
 30
0.0
 10
173.0499
 20
593.7959
 30
0.0
 10
173.0499
 20
593.7959
 30
0.0
 10
173.0499
 20
593.7959
 30
0.0
 10
4.5499
 20
593.7959
 30
0.0
 10
4.5499
 20
593.7959
 30
0.0
 10
4.5499
 20
593.7959
 30
0.0
 10
4.5499
 20
593.7959
 30
0.0
 10
-25.4501
 20
626.7959
 30
0.0
 10
-25.4501
 20
626.7959
 30
0.0
 10
-25.4501
 20
626.7959
 30
0.0
 10
-25.4501
 20
626.7959
 30
0.0
 10
-25.4501
 20
580.7959
 30
0.0
 10
-25.4501
 20
580.7959
 30
0.0
  0
SPLINE
  5
7F
330
1F
100
AcDbEntity
  8
Warstwa 1
 62
   250
370
    20
100
AcDbSpline
210
0.0
220
0.0
230
1.0
 70
    11
 71
     3
 72
    28
 73
    24
 74
     0
 42
0.0000000001
 43
0.0000000001
 12
1.0
 22
0.0
 32
0.0
 13
1.0
 23
0.0
 33
0.0
 40
0.0
 40
0.0
 40
0.0
 40
0.0
 40
0.1428571428571428
 40
0.1428571428571428
 40
0.1428571428571428
 40
0.1428571428571428
 40
0.2857142857142857
 40
0.2857142857142857
 40
0.2857142857142857
 40
0.2857142857142857
 40
0.4285714285714285
 40
0.4285714285714285
 40
0.4285714285714285
 40
0.4285714285714285
 40
0.5714285714285714
 40
0.5714285714285714
 40
0.5714285714285714
 40
0.5714285714285714
 40
0.7142857142857143
 40
0.7142857142857143
 40
0.7142857142857143
 40
0.7142857142857143
 40
1.0
 40
1.0
 40
1.0
 40
1.0
 10
6.6007
 20
632.9376
 30
0.0
 10
6.6007
 20
632.9376
 30
0.0
 10
215.1007
 20
632.9376
 30
0.0
 10
215.1007
 20
632.9376
 30
0.0
 10
215.1007
 20
632.9376
 30
0.0
 10
215.1007
 20
632.9376
 30
0.0
 10
215.1007
 20
638.9376
 30
0.0
 10
215.1007
 20
638.9376
 30
0.0
 10
215.1007
 20
638.9376
 30
0.0
 10
215.1007
 20
638.9376
 30
0.0
 10
205.1007
 20
645.9376
 30
0.0
 10
205.1007
 20
645.9376
 30
0.0
 10
205.1007
 20
645.9376
 30
0.0
 10
205.1007
 20
645.9376
 30
0.0
 10
36.6007
 20
645.9376
 30
0.0
 10
36.6007
 20
645.9376
 30
0.0
 10
36.6007
 20
645.9376
 30
0.0
 10
36.6007
 20
645.9376
 30
0.0
 10
6.6007
 20
678.9376
 30
0.0
 10
6.6007
 20
678.9376
 30
0.0
 10
6.6007
 20
678.9376
 30
0.0
 10
6.6007
 20
678.9376
 30
0.0
 10
6.6007
 20
632.9376
 30
0.0
 10
6.6007
 20
632.9376
 30
0.0
  0
ELLIPSE
  5
80
330
1F
100
AcDbEntity
  8
Warstwa 1
 62
   250
370
    20
100
AcDbEllipse
 10
178.45
 20
585.3958
 30
0.0
 11
0.0
 21
1.6
 31
0.0
210
0.0
220
0.0
230
1.0
 40
1.0
 41
0.0
 42
6.283185307179586
  0
ELLIPSE
  5
81
330
1F
100
AcDbEntity
  8
Warstwa 1
 62
   250
370
    20
100
AcDbEllipse
 10
210.5008
 20
637.5375
 30
0.0
 11
0.0
 21
1.6
 31
0.0
210
0.0
220
0.0
230
1.0
 40
1.0
 41
0.0
 42
6.283185307179586
  0
ELLIPSE
  5
82
330
1F
100
AcDbEntity
  8
Warstwa 1
 62
   250
370
    20
100
AcDbEllipse
 10
168.4571
 20
589.196
 30
0.0
 11
0.0
 21
1.6
 31
0.0
210
0.0
220
0.0
230
1.0
 40
1.0
 41
0.0
 42
6.283185307179586
  0
ELLIPSE
  5
83
330
1F
100
AcDbEntity
  8
Warstwa 1
 62
   250
370
    20
100
AcDbEllipse
 10
200.5079
 20
641.3377
 30
0.0
 11
0.0
 21
1.6
 31
0.0
210
0.0
220
0.0
230
1.0
 40
1.0
 41
0.0
 42
6.283185307179586
  0
ELLIPSE
  5
84
330
1F
100
AcDbEntity
  8
Warstwa 1
 62
   250
370
    20
100
AcDbEllipse
 10
-20.8502
 20
589.196
 30
0.0
 11
0.0
 21
1.6
 31
0.0
210
0.0
220
0.0
230
1.0
 40
1.0
 41
0.0
 42
6.283185307179586
  0
ELLIPSE
  5
85
330
1F
100
AcDbEntity
  8
Warstwa 1
 62
   250
370
    20
100
AcDbEllipse
 10
11.2006
 20
641.3377
 30
0.0
 11
0.0
 21
1.6
 31
0.0
210
0.0
220
0.0
230
1.0
 40
1.0
 41
0.0
 42
6.283185307179586
  0
ELLIPSE
  5
86
330
1F
100
AcDbEntity
  8
Warstwa 1
 62
   250
370
    20
100
AcDbEllipse
 10
-20.8502
 20
617.0596
 30
0.0
 11
0.0
 21
1.6
 31
0.0
210
0.0
220
0.0
230
1.0
 40
1.0
 41
0.0
 42
6.283185307179586
  0
ELLIPSE
  5
87
330
1F
100
AcDbEntity
  8
Warstwa 1
 62
   250
370
    20
100
AcDbEllipse
 10
11.2006
 20
669.2013
 30
0.0
 11
0.0
 21
1.6
 31
0.0
210
0.0
220
0.0
230
1.0
 40
1.0
 41
0.0
 42
6.283185307179586
  0
ELLIPSE
  5
88
330
1F
100
AcDbEntity
  8
Warstwa 1
 62
   250
370
    20
100
AcDbEllipse
 10
136.2822
 20
589.196
 30
0.0
 11
0.0
 21
1.6
 31
0.0
210
0.0
220
0.0
230
1.0
 40
1.0
 41
0.0
 42
6.283185307179586
  0
ELLIPSE
  5
89
330
1F
100
AcDbEntity
  8
Warstwa 1
 62
   250
370
    20
100
AcDbEllipse
 10
59.8175
 20
589.196
 30
0.0
 11
0.0
 21
1.6
 31
0.0
210
0.0
220
0.0
230
1.0
 40
1.0
 41
0.0
 42
6.283185307179586
  0
ELLIPSE
  5
8A
330
1F
100
AcDbEntity
  8
Warstwa 1
 62
   250
370
    20
100
AcDbEllipse
 10
168.333
 20
641.3377
 30
0.0
 11
0.0
 21
1.6
 31
0.0
210
0.0
220
0.0
230
1.0
 40
1.0
 41
0.0
 42
6.283185307179586
  0
ELLIPSE
  5
8B
330
1F
100
AcDbEntity
  8
Warstwa 1
 62
   250
370
    20
100
AcDbEllipse
 10
91.8683
 20
641.3377
 30
0.0
 11
0.0
 21
1.6
 31
0.0
210
0.0
220
0.0
230
1.0
 40
1.0
 41
0.0
 42
6.283185307179586
  0
ELLIPSE
  5
8C
330
1F
100
AcDbEntity
  8
Warstwa 1
 62
   250
370
    20
100
AcDbEllipse
 10
474.4976
 20
700.5279
 30
0.0
 11
0.0
 21
1.6
 31
0.0
210
0.0
220
0.0
230
1.0
 40
1.0
 41
0.0
 42
6.283185307179586
  0
ELLIPSE
  5
8D
330
1F
100
AcDbEntity
  8
Warstwa 1
 62
   250
370
    20
100
AcDbEllipse
 10
398.0329
 20
700.5279
 30
0.0
 11
0.0
 21
1.6
 31
0.0
210
0.0
220
0.0
230
1.0
 40
1.0
 41
0.0
 42
6.283185307179586
  0
ELLIPSE
  5
8E
330
1F
100
AcDbEntity
  8
Warstwa 1
 62
   250
370
    20
100
AcDbEllipse
 10
474.4976
 20
690.5279
 30
0.0
 11
0.0
 21
1.6
 31
0.0
210
0.0
220
0.0
230
1.0
 40
1.0
 41
0.0
 42
6.283185307179586
  0
ELLIPSE
  5
8F
330
1F
100
AcDbEntity
  8
Warstwa 1
 62
   250
370
    20
100
AcDbEllipse
 10
398.0329
 20
690.5279
 30
0.0
 11
0.0
 21
1.6
 31
0.0
210
0.0
220
0.0
230
1.0
 40
1.0
 41
0.0
 42
6.283185307179586
  0
ELLIPSE
  5
90
330
1F
100
AcDbEntity
  8
Warstwa 1
 62
   250
370
    20
100
AcDbEllipse
 10
304.1058
 20
690.5279
 30
0.0
 11
0.0
 21
1.6
 31
0.0
210
0.0
220
0.0
230
1.0
 40
1.0
 41
0.0
 42
6.283185307179586
  0
ELLIPSE
  5
91
330
1F
100
AcDbEntity
  8
Warstwa 1
 62
   250
370
    20
100
AcDbEllipse
 10
227.6411
 20
690.5279
 30
0.0
 11
0.0
 21
1.6
 31
0.0
210
0.0
220
0.0
230
1.0
 40
1.0
 41
0.0
 42
6.283185307179586
  0
ELLIPSE
  5
92
330
1F
100
AcDbEntity
  8
Warstwa 1
 62
   250
370
    20
100
AcDbEllipse
 10
474.4976
 20
547.7278
 30
0.0
 11
0.0
 21
1.6
 31
0.0
210
0.0
220
0.0
230
1.0
 40
1.0
 41
0.0
 42
6.283185307179586
  0
ELLIPSE
  5
93
330
1F
100
AcDbEntity
  8
Warstwa 1
 62
   250
370
    20
100
AcDbEllipse
 10
398.0329
 20
547.7278
 30
0.0
 11
0.0
 21
1.6
 31
0.0
210
0.0
220
0.0
230
1.0
 40
1.0
 41
0.0
 42
6.283185307179586
  0
ELLIPSE
  5
94
330
1F
100
AcDbEntity
  8
Warstwa 1
 62
   250
370
    20
100
AcDbEllipse
 10
474.4976
 20
557.7278
 30
0.0
 11
0.0
 21
1.6
 31
0.0
210
0.0
220
0.0
230
1.0
 40
1.0
 41
0.0
 42
6.283185307179586
  0
ELLIPSE
  5
95
330
1F
100
AcDbEntity
  8
Warstwa 1
 62
   250
370
    20
100
AcDbEllipse
 10
398.0329
 20
557.7278
 30
0.0
 11
0.0
 21
1.6
 31
0.0
210
0.0
220
0.0
230
1.0
 40
1.0
 41
0.0
 42
6.283185307179586
  0
ELLIPSE
  5
96
330
1F
100
AcDbEntity
  8
Warstwa 1
 62
   250
370
    20
100
AcDbEllipse
 10
304.1058
 20
557.7278
 30
0.0
 11
0.0
 21
1.6
 31
0.0
210
0.0
220
0.0
230
1.0
 40
1.0
 41
0.0
 42
6.283185307179586
  0
ELLIPSE
  5
97
330
1F
100
AcDbEntity
  8
Warstwa 1
 62
   250
370
    20
100
AcDbEllipse
 10
227.6411
 20
557.7278
 30
0.0
 11
0.0
 21
1.6
 31
0.0
210
0.0
220
0.0
230
1.0
 40
1.0
 41
0.0
 42
6.283185307179586
  0
SPLINE
  5
98
330
1F
100
AcDbEntity
  8
Warstwa 1
 62
   250
370
    20
100
AcDbSpline
210
0.0
220
0.0
230
1.0
 70
    11
 71
     3
 72
    52
 73
    48
 74
     0
 42
0.0000000001
 43
0.0000000001
 12
1.0
 22
0.0
 32
0.0
 13
1.0
 23
0.0
 33
0.0
 40
0.0
 40
0.0
 40
0.0
 40
0.0
 40
0.0769230769230769
 40
0.0769230769230769
 40
0.0769230769230769
 40
0.0769230769230769
 40
0.1538461538461539
 40
0.1538461538461539
 40
0.1538461538461539
 40
0.1538461538461539
 40
0.2307692307692308
 40
0.2307692307692308
 40
0.2307692307692308
 40
0.2307692307692308
 40
0.3076923076923077
 40
0.3076923076923077
 40
0.3076923076923077
 40
0.3076923076923077
 40
0.3846153846153846
 40
0.3846153846153846
 40
0.3846153846153846
 40
0.3846153846153846
 40
0.4615384615384616
 40
0.4615384615384616
 40
0.4615384615384616
 40
0.4615384615384616
 40
0.5384615384615384
 40
0.5384615384615384
 40
0.5384615384615384
 40
0.5384615384615384
 40
0.6153846153846154
 40
0.6153846153846154
 40
0.6153846153846154
 40
0.6153846153846154
 40
0.6923076923076923
 40
0.6923076923076923
 40
0.6923076923076923
 40
0.6923076923076923
 40
0.7692307692307693
 40
0.7692307692307693
 40
0.7692307692307693
 40
0.7692307692307693
 40
0.8461538461538461
 40
0.8461538461538461
 40
0.8461538461538461
 40
0.8461538461538461
 40
1.0
 40
1.0
 40
1.0
 40
1.0
 10
392.259
 20
708.1278
 30
0.0
 10
392.259
 20
708.1278
 30
0.0
 10
492.2715
 20
708.1278
 30
0.0
 10
492.2715
 20
708.1278
 30
0.0
 10
492.2715
 20
708.1278
 30
0.0
 10
492.2715
 20
708.1278
 30
0.0
 10
492.2715
 20
675.6726
 30
0.0
 10
492.2715
 20
675.6726
 30
0.0
 10
492.2715
 20
675.6726
 30
0.0
 10
492.2715
 20
675.6726
 30
0.0
 10
454.7223
 20
638.1234
 30
0.0
 10
454.7223
 20
638.1234
 30
0.0
 10
454.7223
 20
638.1234
 30
0.0
 10
446.0788
 20
629.4799
 30
0.0
 10
446.0788
 20
615.3361
 30
0.0
 10
454.7223
 20
606.6926
 30
0.0
 10
454.7223
 20
606.6926
 30
0.0
 10
454.7223
 20
606.6926
 30
0.0
 10
492.2715
 20
569.1434
 30
0.0
 10
492.2715
 20
569.1434
 30
0.0
 10
492.2715
 20
569.1434
 30
0.0
 10
492.2715
 20
569.1434
 30
0.0
 10
492.2715
 20
540.1278
 30
0.0
 10
492.2715
 20
540.1278
 30
0.0
 10
492.2715
 20
540.1278
 30
0.0
 10
492.2715
 20
540.1278
 30
0.0
 10
392.259
 20
540.1278
 30
0.0
 10
392.259
 20
540.1278
 30
0.0
 10
392.259
 20
540.1278
 30
0.0
 10
392.259
 20
540.1278
 30
0.0
 10
392.259
 20
567.1882
 30
0.0
 10
392.259
 20
567.1882
 30
0.0
 10
392.259
 20
567.1882
 30
0.0
 10
392.259
 20
567.1882
 30
0.0
 10
431.7634
 20
606.6926
 30
0.0
 10
431.7634
 20
606.6926
 30
0.0
 10
431.7634
 20
606.6926
 30
0.0
 10
440.4069
 20
615.3361
 30
0.0
 10
440.4069
 20
629.4799
 30
0.0
 10
431.7634
 20
638.1234
 30
0.0
 10
431.7634
 20
638.1234
 30
0.0
 10
431.7634
 20
638.1234
 30
0.0
 10
392.259
 20
677.6278
 30
0.0
 10
392.259
 20
677.6278
 30
0.0
 10
392.259
 20
677.6278
 30
0.0
 10
392.259
 20
677.6278
 30
0.0
 10
392.259
 20
708.1278
 30
0.0
 10
392.259
 20
708.1278
 30
0.0
  0
SPLINE
  5
99
330
1F
100
AcDbEntity
  8
Warstwa 1
 62
   250
370
    20
100
AcDbSpline
210
0.0
220
0.0
230
1.0
 70
    11
 71
     3
 72
   100
 73
    96
 74
     0
 42
0.0000000001
 43
0.0000000001
 12
1.0
 22
0.0
 32
0.0
 13
1.0
 23
0.0
 33
0.0
 40
0.0
 40
0.0
 40
0.0
 40
0.0
 40
0.04
 40
0.04
 40
0.04
 40
0.04
 40
0.08
 40
0.08
 40
0.08
 40
0.08
 40
0.12
 40
0.12
 40
0.12
 40
0.12
 40
0.16
 40
0.16
 40
0.16
 40
0.16
 40
0.2
 40
0.2
 40
0.2
 40
0.2
 40
0.24
 40
0.24
 40
0.24
 40
0.24
 40
0.28
 40
0.28
 40
0.28
 40
0.28
 40
0.32
 40
0.32
 40
0.32
 40
0.32
 40
0.36
 40
0.36
 40
0.36
 40
0.36
 40
0.4
 40
0.4
 40
0.4
 40
0.4
 40
0.44
 40
0.44
 40
0.44
 40
0.44
 40
0.48
 40
0.48
 40
0.48
 40
0.48
 40
0.52
 40
0.52
 40
0.52
 40
0.52
 40
0.56
 40
0.56
 40
0.56
 40
0.56
 40
0.6
 40
0.6
 40
0.6
 40
0.6
 40
0.64
 40
0.64
 40
0.64
 40
0.64
 40
0.68
 40
0.68
 40
0.68
 40
0.68
 40
0.72
 40
0.72
 40
0.72
 40
0.72
 40
0.76
 40
0.76
 40
0.76
 40
0.76
 40
0.8
 40
0.8
 40
0.8
 40
0.8
 40
0.84
 40
0.84
 40
0.84
 40
0.84
 40
0.88
 40
0.88
 40
0.88
 40
0.88
 40
0.92
 40
0.92
 40
0.92
 40
0.92
 40
1.0
 40
1.0
 40
1.0
 40
1.0
 10
185.986
 20
727.1434
 30
0.0
 10
185.986
 20
727.1434
 30
0.0
 10
209.9086
 20
727.1434
 30
0.0
 10
209.9086
 20
727.1434
 30
0.0
 10
209.9086
 20
727.1434
 30
0.0
 10
209.9086
 20
727.1434
 30
0.0
 10
237.1743
 20
699.8777
 30
0.0
 10
237.1743
 20
699.8777
 30
0.0
 10
237.1743
 20
699.8777
 30
0.0
 10
253.0208
 20
684.0313
 30
0.0
 10
278.9512
 20
684.0313
 30
0.0
 10
294.7977
 20
699.8777
 30
0.0
 10
294.7977
 20
699.8777
 30
0.0
 10
294.7977
 20
699.8777
 30
0.0
 10
322.0634
 20
727.1434
 30
0.0
 10
322.0634
 20
727.1434
 30
0.0
 10
322.0634
 20
727.1434
 30
0.0
 10
322.0634
 20
727.1434
 30
0.0
 10
345.986
 20
727.1434
 30
0.0
 10
345.986
 20
727.1434
 30
0.0
 10
345.986
 20
727.1434
 30
0.0
 10
345.986
 20
727.1434
 30
0.0
 10
345.986
 20
705.1746
 30
0.0
 10
345.986
 20
705.1746
 30
0.0
 10
345.986
 20
705.1746
 30
0.0
 10
344.6765
 20
704.1548
 30
0.0
 10
343.4156
 20
703.0454
 30
0.0
 10
342.2134
 20
701.8432
 30
0.0
 10
342.2134
 20
701.8432
 30
0.0
 10
342.2134
 20
701.8432
 30
0.0
 10
291.3253
 20
650.9551
 30
0.0
 10
291.3253
 20
650.9551
 30
0.0
 10
291.3253
 20
650.9551
 30
0.0
 10
275.4789
 20
635.1086
 30
0.0
 10
275.4789
 20
609.1782
 30
0.0
 10
291.3253
 20
593.3317
 30
0.0
 10
291.3253
 20
593.3317
 30
0.0
 10
291.3253
 20
593.3317
 30
0.0
 10
342.2134
 20
542.4436
 30
0.0
 10
342.2134
 20
542.4436
 30
0.0
 10
342.2134
 20
542.4436
 30
0.0
 10
343.4156
 20
541.2414
 30
0.0
 10
344.6765
 20
540.132
 30
0.0
 10
345.986
 20
539.1122
 30
0.0
 10
345.986
 20
539.1122
 30
0.0
 10
345.986
 20
539.1122
 30
0.0
 10
345.986
 20
517.1434
 30
0.0
 10
345.986
 20
517.1434
 30
0.0
 10
345.986
 20
517.1434
 30
0.0
 10
345.986
 20
517.1434
 30
0.0
 10
322.0634
 20
517.1434
 30
0.0
 10
322.0634
 20
517.1434
 30
0.0
 10
322.0634
 20
517.1434
 30
0.0
 10
322.0634
 20
517.1434
 30
0.0
 10
294.7977
 20
544.4091
 30
0.0
 10
294.7977
 20
544.4091
 30
0.0
 10
294.7977
 20
544.4091
 30
0.0
 10
278.9512
 20
560.2555
 30
0.0
 10
253.0208
 20
560.2555
 30
0.0
 10
237.1743
 20
544.4091
 30
0.0
 10
237.1743
 20
544.4091
 30
0.0
 10
237.1743
 20
544.4091
 30
0.0
 10
209.9086
 20
517.1434
 30
0.0
 10
209.9086
 20
517.1434
 30
0.0
 10
209.9086
 20
517.1434
 30
0.0
 10
209.9086
 20
517.1434
 30
0.0
 10
185.986
 20
517.1434
 30
0.0
 10
185.986
 20
517.1434
 30
0.0
 10
185.986
 20
517.1434
 30
0.0
 10
185.986
 20
517.1434
 30
0.0
 10
185.986
 20
534.7557
 30
0.0
 10
185.986
 20
534.7557
 30
0.0
 10
185.986
 20
534.7557
 30
0.0
 10
189.8627
 20
536.6662
 30
0.0
 10
193.4929
 20
539.2286
 30
0.0
 10
196.7079
 20
542.4436
 30
0.0
 10
196.7079
 20
542.4436
 30
0.0
 10
196.7079
 20
542.4436
 30
0.0
 10
247.596
 20
593.3317
 30
0.0
 10
247.596
 20
593.3317
 30
0.0
 10
247.596
 20
593.3317
 30
0.0
 10
263.4424
 20
609.1782
 30
0.0
 10
263.4424
 20
635.1086
 30
0.0
 10
247.596
 20
650.9551
 30
0.0
 10
247.596
 20
650.9551
 30
0.0
 10
247.596
 20
650.9551
 30
0.0
 10
196.7079
 20
701.8432
 30
0.0
 10
196.7079
 20
701.8432
 30
0.0
 10
196.7079
 20
701.8432
 30
0.0
 10
193.4929
 20
705.0582
 30
0.0
 10
189.8627
 20
707.6206
 30
0.0
 10
185.986
 20
709.5311
 30
0.0
 10
185.986
 20
709.5311
 30
0.0
 10
185.986
 20
709.5311
 30
0.0
 10
185.986
 20
727.1434
 30
0.0
 10
185.986
 20
727.1434
 30
0.0
  0
SPLINE
  5
9A
330
1F
100
AcDbEntity
  8
Warstwa 1
 62
   250
370
    20
100
AcDbSpline
210
0.0
220
0.0
230
1.0
 70
    11
 71
     3
 72
    20
 73
    16
 74
     0
 42
0.0000000001
 43
0.0000000001
 12
1.0
 22
0.0
 32
0.0
 13
1.0
 23
0.0
 33
0.0
 40
0.0
 40
0.0
 40
0.0
 40
0.0
 40
0.2
 40
0.2
 40
0.2
 40
0.2
 40
0.4
 40
0.4
 40
0.4
 40
0.4
 40
0.6
 40
0.6
 40
0.6
 40
0.6
 40
1.0
 40
1.0
 40
1.0
 40
1.0
 10
-402.0459
 20
563.3215
 30
0.0
 10
-402.0459
 20
564.2051
 30
0.0
 10
-402.7622
 20
564.9215
 30
0.0
 10
-403.6459
 20
564.9215
 30
0.0
 10
-403.6459
 20
564.9215
 30
0.0
 10
-404.5295
 20
564.9215
 30
0.0
 10
-405.2459
 20
564.2051
 30
0.0
 10
-405.2459
 20
563.3215
 30
0.0
 10
-405.2459
 20
563.3215
 30
0.0
 10
-405.2459
 20
562.4378
 30
0.0
 10
-404.5295
 20
561.7215
 30
0.0
 10
-403.6459
 20
561.7215
 30
0.0
 10
-403.6459
 20
561.7215
 30
0.0
 10
-402.7622
 20
561.7215
 30
0.0
 10
-402.0459
 20
562.4378
 30
0.0
 10
-402.0459
 20
563.3215
 30
0.0
  0
SPLINE
  5
9B
330
1F
100
AcDbEntity
  8
Warstwa 1
 62
   250
370
    20
100
AcDbSpline
210
0.0
220
0.0
230
1.0
 70
    11
 71
     3
 72
    20
 73
    16
 74
     0
 42
0.0000000001
 43
0.0000000001
 12
1.0
 22
0.0
 32
0.0
 13
1.0
 23
0.0
 33
0.0
 40
0.0
 40
0.0
 40
0.0
 40
0.0
 40
0.2
 40
0.2
 40
0.2
 40
0.2
 40
0.4
 40
0.4
 40
0.4
 40
0.4
 40
0.6
 40
0.6
 40
0.6
 40
0.6
 40
1.0
 40
1.0
 40
1.0
 40
1.0
 10
-127.2459
 20
563.3215
 30
0.0
 10
-127.2459
 20
564.2051
 30
0.0
 10
-126.5296
 20
564.9215
 30
0.0
 10
-125.6459
 20
564.9215
 30
0.0
 10
-125.6459
 20
564.9215
 30
0.0
 10
-124.7623
 20
564.9215
 30
0.0
 10
-124.0459
 20
564.2051
 30
0.0
 10
-124.0459
 20
563.3215
 30
0.0
 10
-124.0459
 20
563.3215
 30
0.0
 10
-124.0459
 20
562.4378
 30
0.0
 10
-124.7623
 20
561.7215
 30
0.0
 10
-125.6459
 20
561.7215
 30
0.0
 10
-125.6459
 20
561.7215
 30
0.0
 10
-126.5296
 20
561.7215
 30
0.0
 10
-127.2459
 20
562.4378
 30
0.0
 10
-127.2459
 20
563.3215
 30
0.0
  0
SPLINE
  5
9C
330
1F
100
AcDbEntity
  8
Warstwa 1
 62
   250
370
    20
100
AcDbSpline
210
0.0
220
0.0
230
1.0
 70
    11
 71
     3
 72
    20
 73
    16
 74
     0
 42
0.0000000001
 43
0.0000000001
 12
1.0
 22
0.0
 32
0.0
 13
1.0
 23
0.0
 33
0.0
 40
0.0
 40
0.0
 40
0.0
 40
0.0
 40
0.2
 40
0.2
 40
0.2
 40
0.2
 40
0.4
 40
0.4
 40
0.4
 40
0.4
 40
0.6
 40
0.6
 40
0.6
 40
0.6
 40
1.0
 40
1.0
 40
1.0
 40
1.0
 10
-402.0459
 20
492.8215
 30
0.0
 10
-402.0459
 20
493.7051
 30
0.0
 10
-402.7622
 20
494.4215
 30
0.0
 10
-403.6459
 20
494.4215
 30
0.0
 10
-403.6459
 20
494.4215
 30
0.0
 10
-404.5295
 20
494.4215
 30
0.0
 10
-405.2459
 20
493.7051
 30
0.0
 10
-405.2459
 20
492.8215
 30
0.0
 10
-405.2459
 20
492.8215
 30
0.0
 10
-405.2459
 20
491.9378
 30
0.0
 10
-404.5295
 20
491.2215
 30
0.0
 10
-403.6459
 20
491.2215
 30
0.0
 10
-403.6459
 20
491.2215
 30
0.0
 10
-402.7622
 20
491.2215
 30
0.0
 10
-402.0459
 20
491.9378
 30
0.0
 10
-402.0459
 20
492.8215
 30
0.0
  0
SPLINE
  5
9D
330
1F
100
AcDbEntity
  8
Warstwa 1
 62
   250
370
    20
100
AcDbSpline
210
0.0
220
0.0
230
1.0
 70
    11
 71
     3
 72
    20
 73
    16
 74
     0
 42
0.0000000001
 43
0.0000000001
 12
1.0
 22
0.0
 32
0.0
 13
1.0
 23
0.0
 33
0.0
 40
0.0
 40
0.0
 40
0.0
 40
0.0
 40
0.2
 40
0.2
 40
0.2
 40
0.2
 40
0.4
 40
0.4
 40
0.4
 40
0.4
 40
0.6
 40
0.6
 40
0.6
 40
0.6
 40
1.0
 40
1.0
 40
1.0
 40
1.0
 10
-127.2459
 20
492.8215
 30
0.0
 10
-127.2459
 20
493.7051
 30
0.0
 10
-126.5296
 20
494.4215
 30
0.0
 10
-125.6459
 20
494.4215
 30
0.0
 10
-125.6459
 20
494.4215
 30
0.0
 10
-124.7623
 20
494.4215
 30
0.0
 10
-124.0459
 20
493.7051
 30
0.0
 10
-124.0459
 20
492.8215
 30
0.0
 10
-124.0459
 20
492.8215
 30
0.0
 10
-124.0459
 20
491.9378
 30
0.0
 10
-124.7623
 20
491.2215
 30
0.0
 10
-125.6459
 20
491.2215
 30
0.0
 10
-125.6459
 20
491.2215
 30
0.0
 10
-126.5296
 20
491.2215
 30
0.0
 10
-127.2459
 20
491.9378
 30
0.0
 10
-127.2459
 20
492.8215
 30
0.0
  0
SPLINE
  5
9E
330
1F
100
AcDbEntity
  8
Warstwa 1
 62
   250
370
    20
100
AcDbSpline
210
0.0
220
0.0
230
1.0
 70
    11
 71
     3
 72
    52
 73
    48
 74
     0
 42
0.0000000001
 43
0.0000000001
 12
1.0
 22
0.0
 32
0.0
 13
1.0
 23
0.0
 33
0.0
 40
0.0
 40
0.0
 40
0.0
 40
0.0
 40
0.0769230769230769
 40
0.0769230769230769
 40
0.0769230769230769
 40
0.0769230769230769
 40
0.1538461538461539
 40
0.1538461538461539
 40
0.1538461538461539
 40
0.1538461538461539
 40
0.2307692307692308
 40
0.2307692307692308
 40
0.2307692307692308
 40
0.2307692307692308
 40
0.3076923076923077
 40
0.3076923076923077
 40
0.3076923076923077
 40
0.3076923076923077
 40
0.3846153846153846
 40
0.3846153846153846
 40
0.3846153846153846
 40
0.3846153846153846
 40
0.4615384615384616
 40
0.4615384615384616
 40
0.4615384615384616
 40
0.4615384615384616
 40
0.5384615384615384
 40
0.5384615384615384
 40
0.5384615384615384
 40
0.5384615384615384
 40
0.6153846153846154
 40
0.6153846153846154
 40
0.6153846153846154
 40
0.6153846153846154
 40
0.6923076923076923
 40
0.6923076923076923
 40
0.6923076923076923
 40
0.6923076923076923
 40
0.7692307692307693
 40
0.7692307692307693
 40
0.7692307692307693
 40
0.7692307692307693
 40
0.8461538461538461
 40
0.8461538461538461
 40
0.8461538461538461
 40
0.8461538461538461
 40
1.0
 40
1.0
 40
1.0
 40
1.0
 10
-409.6459
 20
570.8215
 30
0.0
 10
-409.6459
 20
570.8215
 30
0.0
 10
-119.6459
 20
570.8215
 30
0.0
 10
-119.6459
 20
570.8215
 30
0.0
 10
-119.6459
 20
570.8215
 30
0.0
 10
-119.6459
 20
570.8215
 30
0.0
 10
-119.6459
 20
540.7325
 30
0.0
 10
-119.6459
 20
540.7325
 30
0.0
 10
-119.6459
 20
540.7325
 30
0.0
 10
-119.6459
 20
540.7325
 30
0.0
 10
-129.6459
 20
540.7325
 30
0.0
 10
-129.6459
 20
540.7325
 30
0.0
 10
-129.6459
 20
540.7325
 30
0.0
 10
-129.6459
 20
540.7325
 30
0.0
 10
-129.6459
 20
515.7325
 30
0.0
 10
-129.6459
 20
515.7325
 30
0.0
 10
-129.6459
 20
515.7325
 30
0.0
 10
-129.6459
 20
515.7325
 30
0.0
 10
-119.6459
 20
515.7325
 30
0.0
 10
-119.6459
 20
515.7325
 30
0.0
 10
-119.6459
 20
515.7325
 30
0.0
 10
-119.6459
 20
515.7325
 30
0.0
 10
-119.6459
 20
485.6434
 30
0.0
 10
-119.6459
 20
485.6434
 30
0.0
 10
-119.6459
 20
485.6434
 30
0.0
 10
-119.6459
 20
485.6434
 30
0.0
 10
-409.6459
 20
485.6434
 30
0.0
 10
-409.6459
 20
485.6434
 30
0.0
 10
-409.6459
 20
485.6434
 30
0.0
 10
-409.6459
 20
485.6434
 30
0.0
 10
-409.6459
 20
515.7325
 30
0.0
 10
-409.6459
 20
515.7325
 30
0.0
 10
-409.6459
 20
515.7325
 30
0.0
 10
-409.6459
 20
515.7325
 30
0.0
 10
-399.6459
 20
515.7325
 30
0.0
 10
-399.6459
 20
515.7325
 30
0.0
 10
-399.6459
 20
515.7325
 30
0.0
 10
-399.6459
 20
515.7325
 30
0.0
 10
-399.6459
 20
540.7325
 30
0.0
 10
-399.6459
 20
540.7325
 30
0.0
 10
-399.6459
 20
540.7325
 30
0.0
 10
-399.6459
 20
540.7325
 30
0.0
 10
-409.6459
 20
540.7325
 30
0.0
 10
-409.6459
 20
540.7325
 30
0.0
 10
-409.6459
 20
540.7325
 30
0.0
 10
-409.6459
 20
540.7325
 30
0.0
 10
-409.6459
 20
570.8215
 30
0.0
 10
-409.6459
 20
570.8215
 30
0.0
  0
SPLINE
  5
9F
330
1F
100
AcDbEntity
  8
Warstwa 1
 62
   250
370
    20
100
AcDbSpline
210
0.0
220
0.0
230
1.0
 70
    11
 71
     3
 72
    36
 73
    32
 74
     0
 42
0.0000000001
 43
0.0000000001
 12
1.0
 22
0.0
 32
0.0
 13
1.0
 23
0.0
 33
0.0
 40
0.0
 40
0.0
 40
0.0
 40
0.0
 40
0.1111111111111111
 40
0.1111111111111111
 40
0.1111111111111111
 40
0.1111111111111111
 40
0.2222222222222222
 40
0.2222222222222222
 40
0.2222222222222222
 40
0.2222222222222222
 40
0.3333333333333333
 40
0.3333333333333333
 40
0.3333333333333333
 40
0.3333333333333333
 40
0.4444444444444444
 40
0.4444444444444444
 40
0.4444444444444444
 40
0.4444444444444444
 40
0.5555555555555556
 40
0.5555555555555556
 40
0.5555555555555556
 40
0.5555555555555556
 40
0.6666666666666666
 40
0.6666666666666666
 40
0.6666666666666666
 40
0.6666666666666666
 40
0.7777777777777778
 40
0.7777777777777778
 40
0.7777777777777778
 40
0.7777777777777778
 40
1.0
 40
1.0
 40
1.0
 40
1.0
 10
-149.9956
 20
524.5556
 30
0.0
 10
-149.9956
 20
524.5556
 30
0.0
 10
-379.2962
 20
524.5556
 30
0.0
 10
-379.2962
 20
524.5556
 30
0.0
 10
-379.2962
 20
524.5556
 30
0.0
 10
-385.8961
 20
524.5556
 30
0.0
 10
-391.2964
 20
519.1556
 30
0.0
 10
-391.2964
 20
512.5557
 30
0.0
 10
-391.2964
 20
512.5557
 30
0.0
 10
-391.2964
 20
512.5557
 30
0.0
 10
-391.2964
 20
508.4091
 30
0.0
 10
-391.2964
 20
508.4091
 30
0.0
 10
-391.2964
 20
508.4091
 30
0.0
 10
-391.2964
 20
501.8092
 30
0.0
 10
-385.8961
 20
496.4092
 30
0.0
 10
-379.2962
 20
496.4092
 30
0.0
 10
-379.2962
 20
496.4092
 30
0.0
 10
-379.2962
 20
496.4092
 30
0.0
 10
-149.9956
 20
496.4092
 30
0.0
 10
-149.9956
 20
496.4092
 30
0.0
 10
-149.9956
 20
496.4092
 30
0.0
 10
-143.3958
 20
496.4092
 30
0.0
 10
-137.9954
 20
501.8092
 30
0.0
 10
-137.9954
 20
508.4091
 30
0.0
 10
-137.9954
 20
508.4091
 30
0.0
 10
-137.9954
 20
508.4091
 30
0.0
 10
-137.9954
 20
512.5557
 30
0.0
 10
-137.9954
 20
512.5557
 30
0.0
 10
-137.9954
 20
512.5557
 30
0.0
 10
-137.9954
 20
519.1556
 30
0.0
 10
-143.3958
 20
524.5556
 30
0.0
 10
-149.9956
 20
524.5556
 30
0.0
  0
ENDSEC
  0
SECTION
  2
OBJECTS
  0
DICTIONARY
  5
C
330
0
100
AcDbDictionary
281
     1
  3
ACAD_GROUP
350
D
  3
ACAD_LAYOUT
350
1A
  3
ACAD_MATERIAL
350
3B
  3
ACAD_MLEADERSTYLE
350
C1
  3
ACAD_MLINESTYLE
350
17
  3
ACAD_PLOTSETTINGS
350
19
  3
ACAD_PLOTSTYLENAME
350
E
  3
ACAD_TABLESTYLE
350
C0
  3
ACAD_VISUALSTYLE
350
2A
  0
DICTIONARY
  5
D
102
{ACAD_REACTORS
330
C
102
}
330
C
100
AcDbDictionary
281
     1
  0
DICTIONARY
  5
1A
102
{ACAD_REACTORS
330
C
102
}
330
C
100
AcDbDictionary
281
     1
  3
Layout1
350
1E
  3
Layout2
350
26
  3
Model
350
22
  0
DICTIONARY
  5
3B
102
{ACAD_REACTORS
330
C
102
}
330
C
100
AcDbDictionary
281
     1
  3
ByBlock
350
3D
  3
ByLayer
350
3C
  3
Global
350
3E
  0
DICTIONARY
  5
C1
102
{ACAD_REACTORS
330
C
102
}
330
C
100
AcDbDictionary
281
     1
  0
DICTIONARY
  5
17
102
{ACAD_REACTORS
330
C
102
}
330
C
100
AcDbDictionary
281
     1
  3
Standard
350
18
  0
DICTIONARY
  5
19
102
{ACAD_REACTORS
330
C
102
}
330
C
100
AcDbDictionary
281
     1
  0
ACDBDICTIONARYWDFLT
  5
E
102
{ACAD_REACTORS
330
C
102
}
330
C
100
AcDbDictionary
281
     1
  3
Normal
350
F
100
AcDbDictionaryWithDefault
340
F
  0
DICTIONARY
  5
C0
102
{ACAD_REACTORS
330
C
102
}
330
C
100
AcDbDictionary
281
     1
  0
DICTIONARY
  5
2A
102
{ACAD_REACTORS
330
C
102
}
330
C
100
AcDbDictionary
281
     1
  3
2dWireframe
350
2F
  3
3D Hidden
350
31
  3
3dWireframe
350
30
  3
Basic
350
32
  3
Brighten
350
36
  3
ColorChange
350
3A
  3
Conceptual
350
34
  3
Dim
350
35
  3
Facepattern
350
39
  3
Flat
350
2B
  3
FlatWithEdges
350
2C
  3
Gouraud
350
2D
  3
GouraudWithEdges
350
2E
  3
Linepattern
350
38
  3
Realistic
350
33
  3
Thicken
350
37
  0
LAYOUT
  5
1E
102
{ACAD_REACTORS
330
1A
102
}
330
1A
100
AcDbPlotSettings
  1

  2
none_device
  4

  6

 40
0.0
 41
0.0
 42
0.0
 43
0.0
 44
0.0
 45
0.0
 46
0.0
 47
0.0
 48
0.0
 49
0.0
140
0.0
141
0.0
142
1.0
143
1.0
 70
   688
 72
     0
 73
     0
 74
     5
  7

 75
    16
 76
     0
 77
     2
 78
   300
147
1.0
148
0.0
149
0.0
100
AcDbLayout
  1
Layout1
 70
     1
 71
     1
 10
0.0
 20
0.0
 11
12.0
 21
9.0
 12
0.0
 22
0.0
 32
0.0
 14
1.000000000000000E+20
 24
1.000000000000000E+20
 34
1.000000000000000E+20
 15
-1.000000000000000E+20
 25
-1.000000000000000E+20
 35
-1.000000000000000E+20
146
0.0
 13
0.0
 23
0.0
 33
0.0
 16
1.0
 26
0.0
 36
0.0
 17
0.0
 27
1.0
 37
0.0
 76
     0
330
1B
  0
LAYOUT
  5
26
102
{ACAD_REACTORS
330
1A
102
}
330
1A
100
AcDbPlotSettings
  1

  2
none_device
  4

  6

 40
0.0
 41
0.0
 42
0.0
 43
0.0
 44
0.0
 45
0.0
 46
0.0
 47
0.0
 48
0.0
 49
0.0
140
0.0
141
0.0
142
1.0
143
1.0
 70
   688
 72
     0
 73
     0
 74
     5
  7

 75
    16
 76
     0
 77
     2
 78
   300
147
1.0
148
0.0
149
0.0
100
AcDbLayout
  1
Layout2
 70
     1
 71
     2
 10
0.0
 20
0.0
 11
0.0
 21
0.0
 12
0.0
 22
0.0
 32
0.0
 14
0.0
 24
0.0
 34
0.0
 15
0.0
 25
0.0
 35
0.0
146
0.0
 13
0.0
 23
0.0
 33
0.0
 16
1.0
 26
0.0
 36
0.0
 17
0.0
 27
1.0
 37
0.0
 76
     0
330
23
  0
LAYOUT
  5
22
102
{ACAD_REACTORS
330
1A
102
}
330
1A
100
AcDbPlotSettings
  1

  2
none_device
  4

  6

 40
0.0
 41
0.0
 42
0.0
 43
0.0
 44
0.0
 45
0.0
 46
0.0
 47
0.0
 48
0.0
 49
0.0
140
0.0
141
0.0
142
1.0
143
1.0
 70
  1712
 72
     0
 73
     0
 74
     0
  7

 75
     0
 76
     0
 77
     2
 78
   300
147
1.0
148
0.0
149
0.0
100
AcDbLayout
  1
Model
 70
     1
 71
     0
 10
0.0
 20
0.0
 11
12.0
 21
9.0
 12
0.0
 22
0.0
 32
0.0
 14
-626.6576
 24
-267.201
 34
0.0
 15
823.5424
 25
727.2434
 35
0.0
146
0.0
 13
0.0
 23
0.0
 33
0.0
 16
1.0
 26
0.0
 36
0.0
 17
0.0
 27
1.0
 37
0.0
 76
     0
330
1F
331
29
  0
MATERIAL
  5
3D
102
{ACAD_REACTORS
330
3B
102
}
330
3B
100
AcDbMaterial
  1
ByBlock
 72
     1
 94
      127
  0
MATERIAL
  5
3C
102
{ACAD_REACTORS
330
3B
102
}
330
3B
100
AcDbMaterial
  1
ByLayer
 72
     1
 94
      127
  0
MATERIAL
  5
3E
102
{ACAD_REACTORS
330
3B
102
}
330
3B
100
AcDbMaterial
  1
Global
 72
     1
 94
      127
  0
MLINESTYLE
  5
18
102
{ACAD_REACTORS
330
17
102
}
330
17
100
AcDbMlineStyle
  2
Standard
 70
     0
  3

 62
   256
 51
90.0
 52
90.0
 71
     2
 49
0.5
 62
   256
  6
BYLAYER
 49
-0.5
 62
   256
  6
BYLAYER
  0
ACDBPLACEHOLDER
  5
F
102
{ACAD_REACTORS
330
E
102
}
330
E
  0
VISUALSTYLE
  5
2F
102
{ACAD_REACTORS
330
2A
102
}
102
{ACAD_XDICTIONARY
360
A8
102
}
330
2A
100
AcDbVisualStyle
  2
2dWireframe
 70
     4
 71
     0
 72
     2
 73
     0
 90
        0
 40
-0.6
 41
-30.0
 62
     5
 63
     7
421
 16777215
 74
     1
 91
        4
 64
     7
 65
   257
 75
     1
175
     1
 42
1.0
 92
        0
 66
   257
 43
1.0
 76
     1
 77
     6
 78
     2
 67
     7
 79
     5
170
     0
171
     0
290
     0
174
     0
 93
        1
 44
0.0
173
     0
291
     0
 45
0.0
  0
VISUALSTYLE
  5
31
102
{ACAD_REACTORS
330
2A
102
}
102
{ACAD_XDICTIONARY
360
AC
102
}
330
2A
100
AcDbVisualStyle
  2
3D Hidden
 70
     6
 71
     1
 72
     2
 73
     2
 90
        0
 40
-0.6
 41
-30.0
 62
     5
 63
     7
421
 16777215
 74
     2
 91
        2
 64
     7
 65
   257
 75
     2
175
     1
 42
40.0
 92
        0
 66
   257
 43
1.0
 76
     1
 77
     6
 78
     2
 67
     7
 79
     3
170
     0
171
     0
290
     0
174
     0
 93
        1
 44
0.0
173
     0
291
     0
 45
0.0
  0
VISUALSTYLE
  5
30
102
{ACAD_REACTORS
330
2A
102
}
102
{ACAD_XDICTIONARY
360
AA
102
}
330
2A
100
AcDbVisualStyle
  2
3dWireframe
 70
     5
 71
     0
 72
     2
 73
     0
 90
        0
 40
-0.6
 41
-30.0
 62
     5
 63
     7
421
 16777215
 74
     1
 91
        4
 64
     7
 65
   257
 75
     1
175
     1
 42
1.0
 92
        0
 66
   257
 43
1.0
 76
     1
 77
     6
 78
     2
 67
     7
 79
     5
170
     0
171
     0
290
     0
174
     0
 93
        1
 44
0.0
173
     0
291
     0
 45
0.0
  0
VISUALSTYLE
  5
32
102
{ACAD_REACTORS
330
2A
102
}
102
{ACAD_XDICTIONARY
360
AE
102
}
330
2A
100
AcDbVisualStyle
  2
Basic
 70
     7
 71
     1
 72
     0
 73
     1
 90
        0
 40
-0.6
 41
-30.0
 62
     5
 63
     7
421
 16777215
 74
     0
 91
        4
 64
     7
 65
   257
 75
     1
175
     1
 42
1.0
 92
        8
 66
     7
 43
1.0
 76
     1
 77
     6
 78
     2
 67
     7
 79
     5
170
     0
171
     0
290
     0
174
     0
 93
        1
 44
0.0
173
     0
291
     1
 45
0.0
  0
VISUALSTYLE
  5
36
102
{ACAD_REACTORS
330
2A
102
}
102
{ACAD_XDICTIONARY
360
B6
102
}
330
2A
100
AcDbVisualStyle
  2
Brighten
 70
    12
 71
     2
 72
     2
 73
     0
 90
        0
 40
-0.6
 41
-30.0
 62
     5
 63
     7
421
 16777215
 74
     1
 91
        4
 64
     7
 65
   257
 75
     1
175
     1
 42
1.0
 92
        8
 66
     7
 43
1.0
 76
     1
 77
     6
 78
     2
 67
     7
 79
     5
170
     0
171
     0
290
     0
174
     0
 93
        1
 44
50.0
173
     0
291
     1
 45
0.0
  0
VISUALSTYLE
  5
3A
102
{ACAD_REACTORS
330
2A
102
}
102
{ACAD_XDICTIONARY
360
BE
102
}
330
2A
100
AcDbVisualStyle
  2
ColorChange
 70
    16
 71
     2
 72
     2
 73
     3
 90
        0
 40
-0.6
 41
-30.0
 62
     5
 63
     8
421
  8421504
 74
     1
 91
        4
 64
     7
 65
   257
 75
     1
175
     1
 42
1.0
 92
        8
 66
     8
424
  8421504
 43
1.0
 76
     1
 77
     6
 78
     2
 67
     7
 79
     5
170
     0
171
     0
290
     0
174
     0
 93
        1
 44
0.0
173
     0
291
     1
 45
0.0
  0
VISUALSTYLE
  5
34
102
{ACAD_REACTORS
330
2A
102
}
102
{ACAD_XDICTIONARY
360
B2
102
}
330
2A
100
AcDbVisualStyle
  2
Conceptual
 70
     9
 71
     3
 72
     2
 73
     0
 90
        0
 40
-0.6
 41
-30.0
 62
     5
 63
     7
421
 16777215
 74
     2
 91
        2
 64
     7
 65
   257
 75
     1
175
     1
 42
40.0
 92
        8
 66
     7
 43
1.0
 76
     1
 77
     6
 78
     2
 67
     7
 79
     3
170
     0
171
     0
290
     0
174
     0
 93
        1
 44
0.0
173
     0
291
     0
 45
0.0
  0
VISUALSTYLE
  5
35
102
{ACAD_REACTORS
330
2A
102
}
102
{ACAD_XDICTIONARY
360
B4
102
}
330
2A
100
AcDbVisualStyle
  2
Dim
 70
    11
 71
     2
 72
     2
 73
     0
 90
        0
 40
-0.6
 41
-30.0
 62
     5
 63
     7
421
 16777215
 74
     1
 91
        4
 64
     7
 65
   257
 75
     1
175
     1
 42
1.0
 92
        8
 66
     7
 43
1.0
 76
     1
 77
     6
 78
     2
 67
     7
 79
     5
170
     0
171
     0
290
     0
174
     0
 93
        1
 44
-50.0
173
     0
291
     1
 45
0.0
  0
VISUALSTYLE
  5
39
102
{ACAD_REACTORS
330
2A
102
}
102
{ACAD_XDICTIONARY
360
BC
102
}
330
2A
100
AcDbVisualStyle
  2
Facepattern
 70
    15
 71
     2
 72
     2
 73
     0
 90
        0
 40
-0.6
 41
-30.0
 62
     5
 63
     7
421
 16777215
 74
     1
 91
        4
 64
     7
 65
   257
 75
     1
175
     1
 42
1.0
 92
        8
 66
     7
 43
1.0
 76
     1
 77
     6
 78
     2
 67
     7
 79
     5
170
     0
171
     0
290
     0
174
     0
 93
        1
 44
0.0
173
     0
291
     1
 45
0.0
  0
VISUALSTYLE
  5
2B
102
{ACAD_REACTORS
330
2A
102
}
102
{ACAD_XDICTIONARY
360
A0
102
}
330
2A
100
AcDbVisualStyle
  2
Flat
 70
     0
 71
     2
 72
     1
 73
     1
 90
        2
 40
-0.6
 41
30.0
 62
     5
 63
     7
421
 16777215
 74
     0
 91
        4
 64
     7
 65
   257
 75
     1
175
     1
 42
1.0
 92
        8
 66
     7
 43
1.0
 76
     1
 77
     6
 78
     2
 67
     7
 79
     5
170
     0
171
     0
290
     0
174
     0
 93
       13
 44
0.0
173
     0
291
     1
 45
0.0
  0
VISUALSTYLE
  5
2C
102
{ACAD_REACTORS
330
2A
102
}
102
{ACAD_XDICTIONARY
360
A2
102
}
330
2A
100
AcDbVisualStyle
  2
FlatWithEdges
 70
     1
 71
     2
 72
     1
 73
     1
 90
        2
 40
-0.6
 41
30.0
 62
     5
 63
     7
421
 16777215
 74
     1
 91
        4
 64
     7
 65
   257
 75
     1
175
     1
 42
1.0
 92
        0
 66
   257
 43
1.0
 76
     1
 77
     6
 78
     2
 67
     7
 79
     5
170
     0
171
     0
290
     0
174
     0
 93
       13
 44
0.0
173
     0
291
     1
 45
0.0
  0
VISUALSTYLE
  5
2D
102
{ACAD_REACTORS
330
2A
102
}
102
{ACAD_XDICTIONARY
360
A4
102
}
330
2A
100
AcDbVisualStyle
  2
Gouraud
 70
     2
 71
     2
 72
     2
 73
     1
 90
        2
 40
-0.6
 41
30.0
 62
     5
 63
     7
421
 16777215
 74
     0
 91
        4
 64
     7
 65
   257
 75
     1
175
     1
 42
1.0
 92
        0
 66
     7
 43
1.0
 76
     1
 77
     6
 78
     2
 67
     7
 79
     5
170
     0
171
     0
290
     0
174
     0
 93
       13
 44
0.0
173
     0
291
     1
 45
0.0
  0
VISUALSTYLE
  5
2E
102
{ACAD_REACTORS
330
2A
102
}
102
{ACAD_XDICTIONARY
360
A6
102
}
330
2A
100
AcDbVisualStyle
  2
GouraudWithEdges
 70
     3
 71
     2
 72
     2
 73
     1
 90
        2
 40
-0.6
 41
30.0
 62
     5
 63
     7
421
 16777215
 74
     1
 91
        4
 64
     7
 65
   257
 75
     1
175
     1
 42
1.0
 92
        0
 66
   257
 43
1.0
 76
     1
 77
     6
 78
     2
 67
     7
 79
     5
170
     0
171
     0
290
     0
174
     0
 93
       13
 44
0.0
173
     0
291
     1
 45
0.0
  0
VISUALSTYLE
  5
38
102
{ACAD_REACTORS
330
2A
102
}
102
{ACAD_XDICTIONARY
360
BA
102
}
330
2A
100
AcDbVisualStyle
  2
Linepattern
 70
    14
 71
     2
 72
     2
 73
     0
 90
        0
 40
-0.6
 41
-30.0
 62
     5
 63
     7
421
 16777215
 74
     1
 91
        4
 64
     7
 65
   257
 75
     7
175
     7
 42
1.0
 92
        8
 66
     7
 43
1.0
 76
     1
 77
     6
 78
     2
 67
     7
 79
     5
170
     0
171
     0
290
     0
174
     0
 93
        1
 44
0.0
173
     0
291
     1
 45
0.0
  0
VISUALSTYLE
  5
33
102
{ACAD_REACTORS
330
2A
102
}
102
{ACAD_XDICTIONARY
360
B0
102
}
330
2A
100
AcDbVisualStyle
  2
Realistic
 70
     8
 71
     2
 72
     2
 73
     0
 90
        0
 40
-0.6
 41
-30.0
 62
     5
 63
     7
421
 16777215
 74
     1
 91
        0
 64
     7
 65
   257
 75
     1
175
     1
 42
1.0
 92
        8
 66
     8
424
  7895160
 43
1.0
 76
     1
 77
     6
 78
     2
 67
     7
 79
     5
170
     0
171
     0
290
     0
174
     0
 93
       13
 44
0.0
173
     0
291
     0
 45
0.0
  0
VISUALSTYLE
  5
37
102
{ACAD_REACTORS
330
2A
102
}
102
{ACAD_XDICTIONARY
360
B8
102
}
330
2A
100
AcDbVisualStyle
  2
Thicken
 70
    13
 71
     2
 72
     2
 73
     0
 90
        0
 40
-0.6
 41
-30.0
 62
     5
 63
     7
421
 16777215
 74
     1
 91
        4
 64
     7
 65
   257
 75
     1
175
     1
 42
1.0
 92
       12
 66
     7
 43
1.0
 76
     1
 77
     6
 78
     2
 67
     7
 79
     5
170
     0
171
     0
290
     0
174
     0
 93
        1
 44
0.0
173
     0
291
     1
 45
0.0
  0
DICTIONARY
  5
A8
330
2F
100
AcDbDictionary
280
     1
281
     1
  3
ACAD_XREC_ROUNDTRIP
360
A9
  0
DICTIONARY
  5
AC
330
31
100
AcDbDictionary
280
     1
281
     1
  3
ACAD_XREC_ROUNDTRIP
360
AD
  0
DICTIONARY
  5
AA
330
30
100
AcDbDictionary
280
     1
281
     1
  3
ACAD_XREC_ROUNDTRIP
360
AB
  0
DICTIONARY
  5
AE
330
32
100
AcDbDictionary
280
     1
281
     1
  3
ACAD_XREC_ROUNDTRIP
360
AF
  0
DICTIONARY
  5
B6
330
36
100
AcDbDictionary
280
     1
281
     1
  3
ACAD_XREC_ROUNDTRIP
360
B7
  0
DICTIONARY
  5
BE
330
3A
100
AcDbDictionary
280
     1
281
     1
  3
ACAD_XREC_ROUNDTRIP
360
BF
  0
DICTIONARY
  5
B2
330
34
100
AcDbDictionary
280
     1
281
     1
  3
ACAD_XREC_ROUNDTRIP
360
B3
  0
DICTIONARY
  5
B4
330
35
100
AcDbDictionary
280
     1
281
     1
  3
ACAD_XREC_ROUNDTRIP
360
B5
  0
DICTIONARY
  5
BC
330
39
100
AcDbDictionary
280
     1
281
     1
  3
ACAD_XREC_ROUNDTRIP
360
BD
  0
DICTIONARY
  5
A0
330
2B
100
AcDbDictionary
280
     1
281
     1
  3
ACAD_XREC_ROUNDTRIP
360
A1
  0
DICTIONARY
  5
A2
330
2C
100
AcDbDictionary
280
     1
281
     1
  3
ACAD_XREC_ROUNDTRIP
360
A3
  0
DICTIONARY
  5
A4
330
2D
100
AcDbDictionary
280
     1
281
     1
  3
ACAD_XREC_ROUNDTRIP
360
A5
  0
DICTIONARY
  5
A6
330
2E
100
AcDbDictionary
280
     1
281
     1
  3
ACAD_XREC_ROUNDTRIP
360
A7
  0
DICTIONARY
  5
BA
330
38
100
AcDbDictionary
280
     1
281
     1
  3
ACAD_XREC_ROUNDTRIP
360
BB
  0
DICTIONARY
  5
B0
330
33
100
AcDbDictionary
280
     1
281
     1
  3
ACAD_XREC_ROUNDTRIP
360
B1
  0
DICTIONARY
  5
B8
330
37
100
AcDbDictionary
280
     1
281
     1
  3
ACAD_XREC_ROUNDTRIP
360
B9
  0
XRECORD
  5
A9
102
{ACAD_REACTORS
330
A8
102
}
330
A8
100
AcDbXrecord
280
     1
102
RTVSPropertyOp0
 70
     1
102
RTVSPropertyOp1
 70
     1
102
RTVSPropertyOp2
 70
     1
102
RTVSPropertyOp3
 70
     1
102
RTVSPropertyOp4
 70
     1
102
RTVSPropertyOp5
 70
     1
102
RTVSPropertyOp6
 70
     1
102
RTVSPropertyOp7
 70
     1
102
RTVSPropertyOp8
 70
     1
102
RTVSPropertyOp9
 70
     1
102
RTVSPropertyOp10
 70
     1
102
RTVSPropertyOp11
 70
     1
102
RTVSPropertyOp12
 70
     1
102
RTVSPropertyOp13
 70
     1
102
RTVSPropertyOp14
 70
     1
102
RTVSPropertyOp15
 70
     1
102
RTVSPropertyOp16
 70
     1
102
RTVSPropertyOp17
 70
     1
102
RTVSPropertyOp18
 70
     1
102
RTVSPropertyOp19
 70
     1
102
RTVSPropertyOp20
 70
     1
102
RTVSPropertyOp21
 70
     1
102
RTVSPropertyOp22
 70
     1
102
RTVSPropertyOp23
 70
     1
102
RTVSPropertyOp24
 70
     1
102
RTVSPropertyOp25
 70
     1
102
RTVSPropertyOp26
 70
     1
102
RTVSPropertyOp27
 70
     1
102
RTVSPropertyOp28
 70
     1
102
RTVSPropertyOp29
 70
     1
102
RTVSPropertyOp30
 70
     1
102
RTVSPropertyOp31
 70
     1
102
RTVSPropertyOp32
 70
     1
  0
XRECORD
  5
AD
102
{ACAD_REACTORS
330
AC
102
}
330
AC
100
AcDbXrecord
280
     1
102
RTVSPropertyOp0
 70
     1
102
RTVSPropertyOp1
 70
     1
102
RTVSPropertyOp2
 70
     1
102
RTVSPropertyOp3
 70
     1
102
RTVSPropertyOp4
 70
     1
102
RTVSPropertyOp5
 70
     1
102
RTVSPropertyOp6
 70
     1
102
RTVSPropertyOp7
 70
     1
102
RTVSPropertyOp8
 70
     1
102
RTVSPropertyOp9
 70
     1
102
RTVSPropertyOp10
 70
     1
102
RTVSPropertyOp11
 70
     1
102
RTVSPropertyOp12
 70
     1
102
RTVSPropertyOp13
 70
     1
102
RTVSPropertyOp14
 70
     1
102
RTVSPropertyOp15
 70
     1
102
RTVSPropertyOp16
 70
     1
102
RTVSPropertyOp17
 70
     1
102
RTVSPropertyOp18
 70
     1
102
RTVSPropertyOp19
 70
     1
102
RTVSPropertyOp20
 70
     1
102
RTVSPropertyOp21
 70
     1
102
RTVSPropertyOp22
 70
     1
102
RTVSPropertyOp23
 70
     1
102
RTVSPropertyOp24
 70
     1
102
RTVSPropertyOp25
 70
     1
102
RTVSPropertyOp26
 70
     1
102
RTVSPropertyOp27
 70
     1
102
RTVSPropertyOp28
 70
     1
102
RTVSPropertyOp29
 70
     1
102
RTVSPropertyOp30
 70
     1
102
RTVSPropertyOp31
 70
     1
102
RTVSPropertyOp32
 70
     1
  0
XRECORD
  5
AB
102
{ACAD_REACTORS
330
AA
102
}
330
AA
100
AcDbXrecord
280
     1
102
RTVSPropertyOp0
 70
     1
102
RTVSPropertyOp1
 70
     1
102
RTVSPropertyOp2
 70
     1
102
RTVSPropertyOp3
 70
     1
102
RTVSPropertyOp4
 70
     1
102
RTVSPropertyOp5
 70
     1
102
RTVSPropertyOp6
 70
     1
102
RTVSPropertyOp7
 70
     1
102
RTVSPropertyOp8
 70
     1
102
RTVSPropertyOp9
 70
     1
102
RTVSPropertyOp10
 70
     1
102
RTVSPropertyOp11
 70
     1
102
RTVSPropertyOp12
 70
     1
102
RTVSPropertyOp13
 70
     1
102
RTVSPropertyOp14
 70
     1
102
RTVSPropertyOp15
 70
     1
102
RTVSPropertyOp16
 70
     1
102
RTVSPropertyOp17
 70
     1
102
RTVSPropertyOp18
 70
     1
102
RTVSPropertyOp19
 70
     1
102
RTVSPropertyOp20
 70
     1
102
RTVSPropertyOp21
 70
     1
102
RTVSPropertyOp22
 70
     1
102
RTVSPropertyOp23
 70
     1
102
RTVSPropertyOp24
 70
     1
102
RTVSPropertyOp25
 70
     1
102
RTVSPropertyOp26
 70
     1
102
RTVSPropertyOp27
 70
     1
102
RTVSPropertyOp28
 70
     1
102
RTVSPropertyOp29
 70
     1
102
RTVSPropertyOp30
 70
     1
102
RTVSPropertyOp31
 70
     1
102
RTVSPropertyOp32
 70
     1
  0
XRECORD
  5
AF
102
{ACAD_REACTORS
330
AE
102
}
330
AE
100
AcDbXrecord
280
     1
102
RTVSPropertyOp0
 70
     1
102
RTVSPropertyOp1
 70
     1
102
RTVSPropertyOp2
 70
     1
102
RTVSPropertyOp3
 70
     1
102
RTVSPropertyOp4
 70
     1
102
RTVSPropertyOp5
 70
     1
102
RTVSPropertyOp6
 70
     1
102
RTVSPropertyOp7
 70
     1
102
RTVSPropertyOp8
 70
     1
102
RTVSPropertyOp9
 70
     1
102
RTVSPropertyOp10
 70
     1
102
RTVSPropertyOp11
 70
     1
102
RTVSPropertyOp12
 70
     1
102
RTVSPropertyOp13
 70
     1
102
RTVSPropertyOp14
 70
     1
102
RTVSPropertyOp15
 70
     1
102
RTVSPropertyOp16
 70
     1
102
RTVSPropertyOp17
 70
     1
102
RTVSPropertyOp18
 70
     1
102
RTVSPropertyOp19
 70
     1
102
RTVSPropertyOp20
 70
     1
102
RTVSPropertyOp21
 70
     1
102
RTVSPropertyOp22
 70
     1
102
RTVSPropertyOp23
 70
     1
102
RTVSPropertyOp24
 70
     1
102
RTVSPropertyOp25
 70
     1
102
RTVSPropertyOp26
 70
     1
102
RTVSPropertyOp27
 70
     1
102
RTVSPropertyOp28
 70
     1
102
RTVSPropertyOp29
 70
     1
102
RTVSPropertyOp30
 70
     1
102
RTVSPropertyOp31
 70
     1
102
RTVSPropertyOp32
 70
     1
  0
XRECORD
  5
B7
102
{ACAD_REACTORS
330
B6
102
}
330
B6
100
AcDbXrecord
280
     1
102
RTVSPropertyOp0
 70
     1
102
RTVSPropertyOp1
 70
     1
102
RTVSPropertyOp2
 70
     1
102
RTVSPropertyOp3
 70
     1
102
RTVSPropertyOp4
 70
     1
102
RTVSPropertyOp5
 70
     1
102
RTVSPropertyOp6
 70
     1
102
RTVSPropertyOp7
 70
     1
102
RTVSPropertyOp8
 70
     1
102
RTVSPropertyOp9
 70
     1
102
RTVSPropertyOp10
 70
     1
102
RTVSPropertyOp11
 70
     1
102
RTVSPropertyOp12
 70
     1
102
RTVSPropertyOp13
 70
     1
102
RTVSPropertyOp14
 70
     1
102
RTVSPropertyOp15
 70
     1
102
RTVSPropertyOp16
 70
     1
102
RTVSPropertyOp17
 70
     1
102
RTVSPropertyOp18
 70
     1
102
RTVSPropertyOp19
 70
     1
102
RTVSPropertyOp20
 70
     1
102
RTVSPropertyOp21
 70
     1
102
RTVSPropertyOp22
 70
     1
102
RTVSPropertyOp23
 70
     1
102
RTVSPropertyOp24
 70
     1
102
RTVSPropertyOp25
 70
     1
102
RTVSPropertyOp26
 70
     1
102
RTVSPropertyOp27
 70
     1
102
RTVSPropertyOp28
 70
     1
102
RTVSPropertyOp29
 70
     1
102
RTVSPropertyOp30
 70
     1
102
RTVSPropertyOp31
 70
     1
102
RTVSPropertyOp32
 70
     1
  0
XRECORD
  5
BF
102
{ACAD_REACTORS
330
BE
102
}
330
BE
100
AcDbXrecord
280
     1
102
RTVSPropertyOp0
 70
     1
102
RTVSPropertyOp1
 70
     1
102
RTVSPropertyOp2
 70
     1
102
RTVSPropertyOp3
 70
     1
102
RTVSPropertyOp4
 70
     1
102
RTVSPropertyOp5
 70
     1
102
RTVSPropertyOp6
 70
     1
102
RTVSPropertyOp7
 70
     1
102
RTVSPropertyOp8
 70
     1
102
RTVSPropertyOp9
 70
     1
102
RTVSPropertyOp10
 70
     1
102
RTVSPropertyOp11
 70
     1
102
RTVSPropertyOp12
 70
     1
102
RTVSPropertyOp13
 70
     1
102
RTVSPropertyOp14
 70
     1
102
RTVSPropertyOp15
 70
     1
102
RTVSPropertyOp16
 70
     1
102
RTVSPropertyOp17
 70
     1
102
RTVSPropertyOp18
 70
     1
102
RTVSPropertyOp19
 70
     1
102
RTVSPropertyOp20
 70
     1
102
RTVSPropertyOp21
 70
     1
102
RTVSPropertyOp22
 70
     1
102
RTVSPropertyOp23
 70
     1
102
RTVSPropertyOp24
 70
     1
102
RTVSPropertyOp25
 70
     1
102
RTVSPropertyOp26
 70
     1
102
RTVSPropertyOp27
 70
     1
102
RTVSPropertyOp28
 70
     1
102
RTVSPropertyOp29
 70
     1
102
RTVSPropertyOp30
 70
     1
102
RTVSPropertyOp31
 70
     1
102
RTVSPropertyOp32
 70
     1
  0
XRECORD
  5
B3
102
{ACAD_REACTORS
330
B2
102
}
330
B2
100
AcDbXrecord
280
     1
102
RTVSPropertyOp0
 70
     1
102
RTVSPropertyOp1
 70
     1
102
RTVSPropertyOp2
 70
     1
102
RTVSPropertyOp3
 70
     1
102
RTVSPropertyOp4
 70
     1
102
RTVSPropertyOp5
 70
     1
102
RTVSPropertyOp6
 70
     1
102
RTVSPropertyOp7
 70
     1
102
RTVSPropertyOp8
 70
     1
102
RTVSPropertyOp9
 70
     1
102
RTVSPropertyOp10
 70
     1
102
RTVSPropertyOp11
 70
     1
102
RTVSPropertyOp12
 70
     1
102
RTVSPropertyOp13
 70
     1
102
RTVSPropertyOp14
 70
     1
102
RTVSPropertyOp15
 70
     1
102
RTVSPropertyOp16
 70
     1
102
RTVSPropertyOp17
 70
     1
102
RTVSPropertyOp18
 70
     1
102
RTVSPropertyOp19
 70
     1
102
RTVSPropertyOp20
 70
     1
102
RTVSPropertyOp21
 70
     1
102
RTVSPropertyOp22
 70
     1
102
RTVSPropertyOp23
 70
     1
102
RTVSPropertyOp24
 70
     1
102
RTVSPropertyOp25
 70
     1
102
RTVSPropertyOp26
 70
     1
102
RTVSPropertyOp27
 70
     1
102
RTVSPropertyOp28
 70
     1
102
RTVSPropertyOp29
 70
     1
102
RTVSPropertyOp30
 70
     1
102
RTVSPropertyOp31
 70
     1
102
RTVSPropertyOp32
 70
     1
  0
XRECORD
  5
B5
102
{ACAD_REACTORS
330
B4
102
}
330
B4
100
AcDbXrecord
280
     1
102
RTVSPropertyOp0
 70
     1
102
RTVSPropertyOp1
 70
     1
102
RTVSPropertyOp2
 70
     1
102
RTVSPropertyOp3
 70
     1
102
RTVSPropertyOp4
 70
     1
102
RTVSPropertyOp5
 70
     1
102
RTVSPropertyOp6
 70
     1
102
RTVSPropertyOp7
 70
     1
102
RTVSPropertyOp8
 70
     1
102
RTVSPropertyOp9
 70
     1
102
RTVSPropertyOp10
 70
     1
102
RTVSPropertyOp11
 70
     1
102
RTVSPropertyOp12
 70
     1
102
RTVSPropertyOp13
 70
     1
102
RTVSPropertyOp14
 70
     1
102
RTVSPropertyOp15
 70
     1
102
RTVSPropertyOp16
 70
     1
102
RTVSPropertyOp17
 70
     1
102
RTVSPropertyOp18
 70
     1
102
RTVSPropertyOp19
 70
     1
102
RTVSPropertyOp20
 70
     1
102
RTVSPropertyOp21
 70
     1
102
RTVSPropertyOp22
 70
     1
102
RTVSPropertyOp23
 70
     1
102
RTVSPropertyOp24
 70
     1
102
RTVSPropertyOp25
 70
     1
102
RTVSPropertyOp26
 70
     1
102
RTVSPropertyOp27
 70
     1
102
RTVSPropertyOp28
 70
     1
102
RTVSPropertyOp29
 70
     1
102
RTVSPropertyOp30
 70
     1
102
RTVSPropertyOp31
 70
     1
102
RTVSPropertyOp32
 70
     1
  0
XRECORD
  5
BD
102
{ACAD_REACTORS
330
BC
102
}
330
BC
100
AcDbXrecord
280
     1
102
RTVSPropertyOp0
 70
     1
102
RTVSPropertyOp1
 70
     1
102
RTVSPropertyOp2
 70
     1
102
RTVSPropertyOp3
 70
     1
102
RTVSPropertyOp4
 70
     1
102
RTVSPropertyOp5
 70
     1
102
RTVSPropertyOp6
 70
     1
102
RTVSPropertyOp7
 70
     1
102
RTVSPropertyOp8
 70
     1
102
RTVSPropertyOp9
 70
     1
102
RTVSPropertyOp10
 70
     1
102
RTVSPropertyOp11
 70
     1
102
RTVSPropertyOp12
 70
     1
102
RTVSPropertyOp13
 70
     1
102
RTVSPropertyOp14
 70
     1
102
RTVSPropertyOp15
 70
     1
102
RTVSPropertyOp16
 70
     1
102
RTVSPropertyOp17
 70
     1
102
RTVSPropertyOp18
 70
     1
102
RTVSPropertyOp19
 70
     1
102
RTVSPropertyOp20
 70
     1
102
RTVSPropertyOp21
 70
     1
102
RTVSPropertyOp22
 70
     1
102
RTVSPropertyOp23
 70
     1
102
RTVSPropertyOp24
 70
     1
102
RTVSPropertyOp25
 70
     1
102
RTVSPropertyOp26
 70
     1
102
RTVSPropertyOp27
 70
     1
102
RTVSPropertyOp28
 70
     1
102
RTVSPropertyOp29
 70
     1
102
RTVSPropertyOp30
 70
     1
102
RTVSPropertyOp31
 70
     1
102
RTVSPropertyOp32
 70
     1
  0
XRECORD
  5
A1
102
{ACAD_REACTORS
330
A0
102
}
330
A0
100
AcDbXrecord
280
     1
102
RTVSPropertyOp0
 70
     1
102
RTVSPropertyOp1
 70
     1
102
RTVSPropertyOp2
 70
     1
102
RTVSPropertyOp3
 70
     1
102
RTVSPropertyOp4
 70
     1
102
RTVSPropertyOp5
 70
     1
102
RTVSPropertyOp6
 70
     1
102
RTVSPropertyOp7
 70
     1
102
RTVSPropertyOp8
 70
     1
102
RTVSPropertyOp9
 70
     1
102
RTVSPropertyOp10
 70
     1
102
RTVSPropertyOp11
 70
     1
102
RTVSPropertyOp12
 70
     1
102
RTVSPropertyOp13
 70
     1
102
RTVSPropertyOp14
 70
     1
102
RTVSPropertyOp15
 70
     1
102
RTVSPropertyOp16
 70
     1
102
RTVSPropertyOp17
 70
     1
102
RTVSPropertyOp18
 70
     1
102
RTVSPropertyOp19
 70
     1
102
RTVSPropertyOp20
 70
     1
102
RTVSPropertyOp21
 70
     1
102
RTVSPropertyOp22
 70
     1
102
RTVSPropertyOp23
 70
     1
102
RTVSPropertyOp24
 70
     1
102
RTVSPropertyOp25
 70
     1
102
RTVSPropertyOp26
 70
     1
102
RTVSPropertyOp27
 70
     1
102
RTVSPropertyOp28
 70
     1
102
RTVSPropertyOp29
 70
     1
102
RTVSPropertyOp30
 70
     1
102
RTVSPropertyOp31
 70
     1
102
RTVSPropertyOp32
 70
     1
  0
XRECORD
  5
A3
102
{ACAD_REACTORS
330
A2
102
}
330
A2
100
AcDbXrecord
280
     1
102
RTVSPropertyOp0
 70
     1
102
RTVSPropertyOp1
 70
     1
102
RTVSPropertyOp2
 70
     1
102
RTVSPropertyOp3
 70
     1
102
RTVSPropertyOp4
 70
     1
102
RTVSPropertyOp5
 70
     1
102
RTVSPropertyOp6
 70
     1
102
RTVSPropertyOp7
 70
     1
102
RTVSPropertyOp8
 70
     1
102
RTVSPropertyOp9
 70
     1
102
RTVSPropertyOp10
 70
     1
102
RTVSPropertyOp11
 70
     1
102
RTVSPropertyOp12
 70
     1
102
RTVSPropertyOp13
 70
     1
102
RTVSPropertyOp14
 70
     1
102
RTVSPropertyOp15
 70
     1
102
RTVSPropertyOp16
 70
     1
102
RTVSPropertyOp17
 70
     1
102
RTVSPropertyOp18
 70
     1
102
RTVSPropertyOp19
 70
     1
102
RTVSPropertyOp20
 70
     1
102
RTVSPropertyOp21
 70
     1
102
RTVSPropertyOp22
 70
     1
102
RTVSPropertyOp23
 70
     1
102
RTVSPropertyOp24
 70
     1
102
RTVSPropertyOp25
 70
     1
102
RTVSPropertyOp26
 70
     1
102
RTVSPropertyOp27
 70
     1
102
RTVSPropertyOp28
 70
     1
102
RTVSPropertyOp29
 70
     1
102
RTVSPropertyOp30
 70
     1
102
RTVSPropertyOp31
 70
     1
102
RTVSPropertyOp32
 70
     1
  0
XRECORD
  5
A5
102
{ACAD_REACTORS
330
A4
102
}
330
A4
100
AcDbXrecord
280
     1
102
RTVSPropertyOp0
 70
     1
102
RTVSPropertyOp1
 70
     1
102
RTVSPropertyOp2
 70
     1
102
RTVSPropertyOp3
 70
     1
102
RTVSPropertyOp4
 70
     1
102
RTVSPropertyOp5
 70
     1
102
RTVSPropertyOp6
 70
     1
102
RTVSPropertyOp7
 70
     1
102
RTVSPropertyOp8
 70
     1
102
RTVSPropertyOp9
 70
     1
102
RTVSPropertyOp10
 70
     1
102
RTVSPropertyOp11
 70
     1
102
RTVSPropertyOp12
 70
     1
102
RTVSPropertyOp13
 70
     1
102
RTVSPropertyOp14
 70
     1
102
RTVSPropertyOp15
 70
     1
102
RTVSPropertyOp16
 70
     1
102
RTVSPropertyOp17
 70
     1
102
RTVSPropertyOp18
 70
     1
102
RTVSPropertyOp19
 70
     1
102
RTVSPropertyOp20
 70
     1
102
RTVSPropertyOp21
 70
     1
102
RTVSPropertyOp22
 70
     1
102
RTVSPropertyOp23
 70
     1
102
RTVSPropertyOp24
 70
     1
102
RTVSPropertyOp25
 70
     1
102
RTVSPropertyOp26
 70
     1
102
RTVSPropertyOp27
 70
     1
102
RTVSPropertyOp28
 70
     1
102
RTVSPropertyOp29
 70
     1
102
RTVSPropertyOp30
 70
     1
102
RTVSPropertyOp31
 70
     1
102
RTVSPropertyOp32
 70
     1
  0
XRECORD
  5
A7
102
{ACAD_REACTORS
330
A6
102
}
330
A6
100
AcDbXrecord
280
     1
102
RTVSPropertyOp0
 70
     1
102
RTVSPropertyOp1
 70
     1
102
RTVSPropertyOp2
 70
     1
102
RTVSPropertyOp3
 70
     1
102
RTVSPropertyOp4
 70
     1
102
RTVSPropertyOp5
 70
     1
102
RTVSPropertyOp6
 70
     1
102
RTVSPropertyOp7
 70
     1
102
RTVSPropertyOp8
 70
     1
102
RTVSPropertyOp9
 70
     1
102
RTVSPropertyOp10
 70
     1
102
RTVSPropertyOp11
 70
     1
102
RTVSPropertyOp12
 70
     1
102
RTVSPropertyOp13
 70
     1
102
RTVSPropertyOp14
 70
     1
102
RTVSPropertyOp15
 70
     1
102
RTVSPropertyOp16
 70
     1
102
RTVSPropertyOp17
 70
     1
102
RTVSPropertyOp18
 70
     1
102
RTVSPropertyOp19
 70
     1
102
RTVSPropertyOp20
 70
     1
102
RTVSPropertyOp21
 70
     1
102
RTVSPropertyOp22
 70
     1
102
RTVSPropertyOp23
 70
     1
102
RTVSPropertyOp24
 70
     1
102
RTVSPropertyOp25
 70
     1
102
RTVSPropertyOp26
 70
     1
102
RTVSPropertyOp27
 70
     1
102
RTVSPropertyOp28
 70
     1
102
RTVSPropertyOp29
 70
     1
102
RTVSPropertyOp30
 70
     1
102
RTVSPropertyOp31
 70
     1
102
RTVSPropertyOp32
 70
     1
  0
XRECORD
  5
BB
102
{ACAD_REACTORS
330
BA
102
}
330
BA
100
AcDbXrecord
280
     1
102
RTVSPropertyOp0
 70
     1
102
RTVSPropertyOp1
 70
     1
102
RTVSPropertyOp2
 70
     1
102
RTVSPropertyOp3
 70
     1
102
RTVSPropertyOp4
 70
     1
102
RTVSPropertyOp5
 70
     1
102
RTVSPropertyOp6
 70
     1
102
RTVSPropertyOp7
 70
     1
102
RTVSPropertyOp8
 70
     1
102
RTVSPropertyOp9
 70
     1
102
RTVSPropertyOp10
 70
     1
102
RTVSPropertyOp11
 70
     1
102
RTVSPropertyOp12
 70
     1
102
RTVSPropertyOp13
 70
     1
102
RTVSPropertyOp14
 70
     1
102
RTVSPropertyOp15
 70
     1
102
RTVSPropertyOp16
 70
     1
102
RTVSPropertyOp17
 70
     1
102
RTVSPropertyOp18
 70
     1
102
RTVSPropertyOp19
 70
     1
102
RTVSPropertyOp20
 70
     1
102
RTVSPropertyOp21
 70
     1
102
RTVSPropertyOp22
 70
     1
102
RTVSPropertyOp23
 70
     1
102
RTVSPropertyOp24
 70
     1
102
RTVSPropertyOp25
 70
     1
102
RTVSPropertyOp26
 70
     1
102
RTVSPropertyOp27
 70
     1
102
RTVSPropertyOp28
 70
     1
102
RTVSPropertyOp29
 70
     1
102
RTVSPropertyOp30
 70
     1
102
RTVSPropertyOp31
 70
     1
102
RTVSPropertyOp32
 70
     1
  0
XRECORD
  5
B1
102
{ACAD_REACTORS
330
B0
102
}
330
B0
100
AcDbXrecord
280
     1
102
RTVSPropertyOp0
 70
     1
102
RTVSPropertyOp1
 70
     1
102
RTVSPropertyOp2
 70
     1
102
RTVSPropertyOp3
 70
     1
102
RTVSPropertyOp4
 70
     1
102
RTVSPropertyOp5
 70
     1
102
RTVSPropertyOp6
 70
     1
102
RTVSPropertyOp7
 70
     1
102
RTVSPropertyOp8
 70
     1
102
RTVSPropertyOp9
 70
     1
102
RTVSPropertyOp10
 70
     1
102
RTVSPropertyOp11
 70
     1
102
RTVSPropertyOp12
 70
     1
102
RTVSPropertyOp13
 70
     1
102
RTVSPropertyOp14
 70
     1
102
RTVSPropertyOp15
 70
     1
102
RTVSPropertyOp16
 70
     1
102
RTVSPropertyOp17
 70
     1
102
RTVSPropertyOp18
 70
     1
102
RTVSPropertyOp19
 70
     1
102
RTVSPropertyOp20
 70
     1
102
RTVSPropertyOp21
 70
     1
102
RTVSPropertyOp22
 70
     1
102
RTVSPropertyOp23
 70
     1
102
RTVSPropertyOp24
 70
     1
102
RTVSPropertyOp25
 70
     1
102
RTVSPropertyOp26
 70
     1
102
RTVSPropertyOp27
 70
     1
102
RTVSPropertyOp28
 70
     1
102
RTVSPropertyOp29
 70
     1
102
RTVSPropertyOp30
 70
     1
102
RTVSPropertyOp31
 70
     1
102
RTVSPropertyOp32
 70
     1
  0
XRECORD
  5
B9
102
{ACAD_REACTORS
330
B8
102
}
330
B8
100
AcDbXrecord
280
     1
102
RTVSPropertyOp0
 70
     1
102
RTVSPropertyOp1
 70
     1
102
RTVSPropertyOp2
 70
     1
102
RTVSPropertyOp3
 70
     1
102
RTVSPropertyOp4
 70
     1
102
RTVSPropertyOp5
 70
     1
102
RTVSPropertyOp6
 70
     1
102
RTVSPropertyOp7
 70
     1
102
RTVSPropertyOp8
 70
     1
102
RTVSPropertyOp9
 70
     1
102
RTVSPropertyOp10
 70
     1
102
RTVSPropertyOp11
 70
     1
102
RTVSPropertyOp12
 70
     1
102
RTVSPropertyOp13
 70
     1
102
RTVSPropertyOp14
 70
     1
102
RTVSPropertyOp15
 70
     1
102
RTVSPropertyOp16
 70
     1
102
RTVSPropertyOp17
 70
     1
102
RTVSPropertyOp18
 70
     1
102
RTVSPropertyOp19
 70
     1
102
RTVSPropertyOp20
 70
     1
102
RTVSPropertyOp21
 70
     1
102
RTVSPropertyOp22
 70
     1
102
RTVSPropertyOp23
 70
     1
102
RTVSPropertyOp24
 70
     1
102
RTVSPropertyOp25
 70
     1
102
RTVSPropertyOp26
 70
     1
102
RTVSPropertyOp27
 70
     1
102
RTVSPropertyOp28
 70
     1
102
RTVSPropertyOp29
 70
     1
102
RTVSPropertyOp30
 70
     1
102
RTVSPropertyOp31
 70
     1
102
RTVSPropertyOp32
 70
     1
  0
ENDSEC
  0
EOF
